<?xml version="1.0" encoding="UTF-8" standalone="no"?>
<!-- Created with Inkscape (http://www.inkscape.org/) -->

<svg
   width="39.952087mm"
   height="40.216663mm"
   viewBox="0 0 39.952087 40.216663"
   version="1.1"
   id="svg36139"
   xmlns:inkscape="http://www.inkscape.org/namespaces/inkscape"
   xmlns:sodipodi="http://sodipodi.sourceforge.net/DTD/sodipodi-0.dtd"
   xmlns:xlink="http://www.w3.org/1999/xlink"
   xmlns="http://www.w3.org/2000/svg"
   xmlns:svg="http://www.w3.org/2000/svg">
  <sodipodi:namedview
     id="namedview36141"
     pagecolor="#505050"
     bordercolor="#eeeeee"
     borderopacity="1"
     inkscape:showpageshadow="0"
     inkscape:pageopacity="0"
     inkscape:pagecheckerboard="0"
     inkscape:deskcolor="#505050"
     inkscape:document-units="mm"
     showgrid="false" />
  <defs
     id="defs36136">
    <radialGradient
       id="id444"
       gradientUnits="userSpaceOnUse"
       gradientTransform="matrix(6.83717e-5,1.10307,-1.43798,0.0054527,4100,-8)"
       xlink:href="#id417"
       cx="1584.42"
       cy="1749.71"
       r="46.994801"
       fx="1584.42"
       fy="1749.71">
  </radialGradient>
    <radialGradient
       id="id417"
       gradientUnits="userSpaceOnUse"
       gradientTransform="matrix(6.83717e-5,1.10307,-1.43798,0.0054527,2175,370)"
       cx="632.21997"
       cy="1072.8101"
       r="46.994801"
       fx="632.21997"
       fy="1072.8101">
   <stop
   offset="0"
   style="stop-opacity:1; stop-color:#CFE2E2"
   id="stop897" />

   <stop
   offset="0.85098"
   style="stop-opacity:1; stop-color:#A3B6B6"
   id="stop899" />

   <stop
   offset="1"
   style="stop-opacity:1; stop-color:#788A8A"
   id="stop901" />

  </radialGradient>
    <radialGradient
       id="id589"
       gradientUnits="userSpaceOnUse"
       gradientTransform="scale(1,0.999974)"
       xlink:href="#id537"
       cx="1584.42"
       cy="1747.63"
       r="53.460499"
       fx="1584.42"
       fy="1747.63">
  </radialGradient>
    <radialGradient
       id="id537"
       gradientUnits="userSpaceOnUse"
       gradientTransform="scale(1,0.999974)"
       cx="632.22198"
       cy="4326.8398"
       r="53.460499"
       fx="632.22198"
       fy="4326.8398">
   <stop
   offset="0"
   style="stop-opacity:1; stop-color:#E2E2E2"
   id="stop1101" />

   <stop
   offset="1"
   style="stop-opacity:1; stop-color:#CFE2E2"
   id="stop1103" />

  </radialGradient>
    <clipPath
       id="id161">
       <path
   d="m 1554,1694 h 61 c 13,0 23,10 23,23 v 61 c 0,13 -10,23 -23,23 h -61 c -13,0 -23,-10 -23,-23 v -61 c 0,-13 10,-23 23,-23 z"
   id="path487" />

      </clipPath>
    <linearGradient
       id="id658"
       gradientUnits="userSpaceOnUse"
       xlink:href="#id645"
       x1="1003.3974"
       y1="2814.8655"
       x2="1003.3974"
       y2="2803.3591"
       gradientTransform="scale(1.5811388,0.63245553)">
  </linearGradient>
    <linearGradient
       id="id645"
       gradientUnits="userSpaceOnUse"
       x1="634.22302"
       y1="2294.1799"
       x2="634.22302"
       y2="2261.8601">
   <stop
   offset="0"
   style="stop-opacity:1; stop-color:#CFE2E2"
   id="stop1281" />

   <stop
   offset="1"
   style="stop-opacity:1; stop-color:#E2E2E2"
   id="stop1283" />

  </linearGradient>
    <linearGradient
       id="id750"
       gradientUnits="userSpaceOnUse"
       xlink:href="#id746"
       x1="1009.5567"
       y1="2798.9211"
       x2="1009.5567"
       y2="2787.7144"
       gradientTransform="scale(1.5714286,0.63636364)">
  </linearGradient>
    <linearGradient
       id="id746"
       gradientUnits="userSpaceOnUse"
       x1="634.159"
       y1="2294.75"
       x2="634.159"
       y2="2263.46">
   <stop
   offset="0"
   style="stop-opacity:1; stop-color:#D0E2E2"
   id="stop1446" />

   <stop
   offset="1"
   style="stop-opacity:1; stop-color:#E2E2E2"
   id="stop1448" />

  </linearGradient>
    <linearGradient
       id="id973"
       gradientUnits="userSpaceOnUse"
       xlink:href="#id914"
       x1="1586.29"
       y1="1781.77"
       x2="1586.29"
       y2="1751.5">
  </linearGradient>
    <linearGradient
       id="id914"
       gradientUnits="userSpaceOnUse"
       x1="634.09497"
       y1="2295.3101"
       x2="634.09497"
       y2="2265.05">
   <stop
   offset="0"
   style="stop-opacity:1; stop-color:#D1E2E2"
   id="stop1686" />

   <stop
   offset="1"
   style="stop-opacity:1; stop-color:#E2E2E2"
   id="stop1688" />

  </linearGradient>
    <linearGradient
       id="id1178"
       gradientUnits="userSpaceOnUse"
       xlink:href="#id1126"
       x1="1586.23"
       y1="1782.33"
       x2="1586.23"
       y2="1753.1">
  </linearGradient>
    <linearGradient
       id="id1126"
       gradientUnits="userSpaceOnUse"
       x1="634.03198"
       y1="2295.8799"
       x2="634.03198"
       y2="2266.6399">
   <stop
   offset="0"
   style="stop-opacity:1; stop-color:#D2E2E2"
   id="stop1974" />

   <stop
   offset="1"
   style="stop-opacity:1; stop-color:#E2E2E2"
   id="stop1976" />

  </linearGradient>
    <linearGradient
       id="id1271"
       gradientUnits="userSpaceOnUse"
       xlink:href="#id1267"
       x1="1586.16"
       y1="1782.9"
       x2="1586.16"
       y2="1754.6899">
  </linearGradient>
    <linearGradient
       id="id1267"
       gradientUnits="userSpaceOnUse"
       x1="1586.16"
       y1="3330.8501"
       x2="1586.16"
       y2="3302.6399">
   <stop
   offset="0"
   style="stop-opacity:1; stop-color:#D3E2E2"
   id="stop2171" />

   <stop
   offset="1"
   style="stop-opacity:1; stop-color:#E2E2E2"
   id="stop2173" />

  </linearGradient>
    <linearGradient
       id="id1445"
       gradientUnits="userSpaceOnUse"
       xlink:href="#id1430"
       x1="1586.1"
       y1="1783.46"
       x2="1586.1"
       y2="1756.28">
  </linearGradient>
    <linearGradient
       id="id1430"
       gradientUnits="userSpaceOnUse"
       x1="633.90399"
       y1="2297.01"
       x2="633.90399"
       y2="2269.8301">
   <stop
   offset="0"
   style="stop-opacity:1; stop-color:#D4E2E2"
   id="stop2398" />

   <stop
   offset="1"
   style="stop-opacity:1; stop-color:#E2E2E2"
   id="stop2400" />

  </linearGradient>
    <linearGradient
       id="id1703"
       gradientUnits="userSpaceOnUse"
       xlink:href="#id1430"
       x1="1586.04"
       y1="1784.02"
       x2="1586.04"
       y2="1757.87">
  </linearGradient>
    <linearGradient
       id="id1869"
       gradientUnits="userSpaceOnUse"
       xlink:href="#id1793"
       x1="1585.97"
       y1="1784.59"
       x2="1585.97"
       y2="1759.46">
  </linearGradient>
    <linearGradient
       id="id1793"
       gradientUnits="userSpaceOnUse"
       x1="633.77698"
       y1="2298.1399"
       x2="633.77698"
       y2="2273.01">
   <stop
   offset="0"
   style="stop-opacity:1; stop-color:#D5E2E2"
   id="stop2897" />

   <stop
   offset="1"
   style="stop-opacity:1; stop-color:#E2E2E2"
   id="stop2899" />

  </linearGradient>
    <linearGradient
       id="id1982"
       gradientUnits="userSpaceOnUse"
       xlink:href="#id1954"
       x1="1585.91"
       y1="1785.15"
       x2="1585.91"
       y2="1761.0601">
  </linearGradient>
    <linearGradient
       id="id1954"
       gradientUnits="userSpaceOnUse"
       x1="633.71301"
       y1="2298.7"
       x2="633.71301"
       y2="2274.6001">
   <stop
   offset="0"
   style="stop-opacity:1; stop-color:#D6E2E2"
   id="stop3122" />

   <stop
   offset="1"
   style="stop-opacity:1; stop-color:#E2E2E2"
   id="stop3124" />

  </linearGradient>
    <linearGradient
       id="id2139"
       gradientUnits="userSpaceOnUse"
       xlink:href="#id2132"
       x1="1585.85"
       y1="1785.72"
       x2="1585.85"
       y2="1762.65">
  </linearGradient>
    <linearGradient
       id="id2132"
       gradientUnits="userSpaceOnUse"
       x1="633.65002"
       y1="2299.26"
       x2="633.65002"
       y2="2276.2">
   <stop
   offset="0"
   style="stop-opacity:1; stop-color:#D7E2E2"
   id="stop3364" />

   <stop
   offset="1"
   style="stop-opacity:1; stop-color:#E2E2E2"
   id="stop3366" />

  </linearGradient>
    <linearGradient
       id="id2396"
       gradientUnits="userSpaceOnUse"
       xlink:href="#id2362"
       x1="1585.78"
       y1="1786.28"
       x2="1585.78"
       y2="1764.24">
  </linearGradient>
    <linearGradient
       id="id2362"
       gradientUnits="userSpaceOnUse"
       x1="633.586"
       y1="2299.8301"
       x2="633.586"
       y2="2277.79">
   <stop
   offset="0"
   style="stop-opacity:1; stop-color:#D8E2E2"
   id="stop3674" />

   <stop
   offset="1"
   style="stop-opacity:1; stop-color:#E2E2E2"
   id="stop3676" />

  </linearGradient>
    <linearGradient
       id="id2546"
       gradientUnits="userSpaceOnUse"
       xlink:href="#id2523"
       x1="1585.72"
       y1="1786.85"
       x2="1585.72"
       y2="1765.83">
  </linearGradient>
    <linearGradient
       id="id2523"
       gradientUnits="userSpaceOnUse"
       x1="633.52197"
       y1="2300.3899"
       x2="633.52197"
       y2="2279.3799">
   <stop
   offset="0"
   style="stop-opacity:1; stop-color:#D9E2E2"
   id="stop3895" />

   <stop
   offset="1"
   style="stop-opacity:1; stop-color:#E2E2E2"
   id="stop3897" />

  </linearGradient>
    <linearGradient
       id="id2688"
       gradientUnits="userSpaceOnUse"
       xlink:href="#id2682"
       x1="1585.65"
       y1="1787.41"
       x2="1585.65"
       y2="1767.4301">
  </linearGradient>
    <linearGradient
       id="id2682"
       gradientUnits="userSpaceOnUse"
       x1="633.45898"
       y1="2300.96"
       x2="633.45898"
       y2="2280.97">
   <stop
   offset="0"
   style="stop-opacity:1; stop-color:#DAE2E2"
   id="stop4122" />

   <stop
   offset="1"
   style="stop-opacity:1; stop-color:#E2E2E2"
   id="stop4124" />

  </linearGradient>
    <linearGradient
       id="id2871"
       gradientUnits="userSpaceOnUse"
       xlink:href="#id2866"
       x1="1585.59"
       y1="1787.98"
       x2="1585.59"
       y2="1769.02">
  </linearGradient>
    <linearGradient
       id="id2866"
       gradientUnits="userSpaceOnUse"
       x1="633.39502"
       y1="2301.52"
       x2="633.39502"
       y2="2282.5701">
   <stop
   offset="0"
   style="stop-opacity:1; stop-color:#DBE2E2"
   id="stop4366" />

   <stop
   offset="1"
   style="stop-opacity:1; stop-color:#E2E2E2"
   id="stop4368" />

  </linearGradient>
    <linearGradient
       id="id3067"
       gradientUnits="userSpaceOnUse"
       xlink:href="#id3058"
       x1="1585.53"
       y1="1788.54"
       x2="1585.53"
       y2="1770.61">
  </linearGradient>
    <linearGradient
       id="id3058"
       gradientUnits="userSpaceOnUse"
       x1="633.33197"
       y1="2302.0901"
       x2="633.33197"
       y2="2284.1599">
   <stop
   offset="0"
   style="stop-opacity:1; stop-color:#DCE2E2"
   id="stop4634" />

   <stop
   offset="1"
   style="stop-opacity:1; stop-color:#E2E2E2"
   id="stop4636" />

  </linearGradient>
    <linearGradient
       id="id3281"
       gradientUnits="userSpaceOnUse"
       xlink:href="#id3254"
       x1="1585.46"
       y1="1789.1"
       x2="1585.46"
       y2="1772.2">
  </linearGradient>
    <linearGradient
       id="id3254"
       gradientUnits="userSpaceOnUse"
       x1="633.26801"
       y1="2302.6499"
       x2="633.26801"
       y2="2285.75">
   <stop
   offset="0"
   style="stop-opacity:1; stop-color:#DDE2E2"
   id="stop4894" />

   <stop
   offset="1"
   style="stop-opacity:1; stop-color:#E2E2E2"
   id="stop4896" />

  </linearGradient>
    <linearGradient
       id="id3430"
       gradientUnits="userSpaceOnUse"
       xlink:href="#id3254"
       x1="1585.4"
       y1="1789.67"
       x2="1585.4"
       y2="1773.8">
  </linearGradient>
    <linearGradient
       id="id3604"
       gradientUnits="userSpaceOnUse"
       xlink:href="#id3601"
       x1="1585.34"
       y1="1790.23"
       x2="1585.34"
       y2="1775.39">
  </linearGradient>
    <linearGradient
       id="id3601"
       gradientUnits="userSpaceOnUse"
       x1="633.14099"
       y1="2303.78"
       x2="633.14099"
       y2="2288.9399">
   <stop
   offset="0"
   style="stop-opacity:1; stop-color:#DEE2E2"
   id="stop5361" />

   <stop
   offset="1"
   style="stop-opacity:1; stop-color:#E2E2E2"
   id="stop5363" />

  </linearGradient>
    <linearGradient
       id="id3827"
       gradientUnits="userSpaceOnUse"
       xlink:href="#id3820"
       x1="1585.27"
       y1="1790.8"
       x2="1585.27"
       y2="1776.98">
  </linearGradient>
    <linearGradient
       id="id3820"
       gradientUnits="userSpaceOnUse"
       x1="633.07703"
       y1="2304.3401"
       x2="633.07703"
       y2="2290.53">
   <stop
   offset="0"
   style="stop-opacity:1; stop-color:#DFE2E2"
   id="stop5668" />

   <stop
   offset="1"
   style="stop-opacity:1; stop-color:#E2E2E2"
   id="stop5670" />

  </linearGradient>
    <linearGradient
       id="id3971"
       gradientUnits="userSpaceOnUse"
       xlink:href="#id3965"
       x1="1585.21"
       y1="1791.36"
       x2="1585.21"
       y2="1778.5699">
  </linearGradient>
    <linearGradient
       id="id3965"
       gradientUnits="userSpaceOnUse"
       x1="633.013"
       y1="2304.9099"
       x2="633.013"
       y2="2292.1201">
   <stop
   offset="0"
   style="stop-opacity:1; stop-color:#E0E2E2"
   id="stop5865" />

   <stop
   offset="1"
   style="stop-opacity:1; stop-color:#E2E2E2"
   id="stop5867" />

  </linearGradient>
    <linearGradient
       id="id4153"
       gradientUnits="userSpaceOnUse"
       xlink:href="#id4150"
       x1="1585.15"
       y1="1791.9301"
       x2="1585.15"
       y2="1780.17">
  </linearGradient>
    <linearGradient
       id="id4150"
       gradientUnits="userSpaceOnUse"
       x1="632.95001"
       y1="2305.47"
       x2="632.95001"
       y2="2293.71">
   <stop
   offset="0"
   style="stop-opacity:1; stop-color:#E1E2E2"
   id="stop6106" />

   <stop
   offset="1"
   style="stop-opacity:1; stop-color:#E2E2E2"
   id="stop6108" />

  </linearGradient>
    <linearGradient
       id="id192"
       gradientUnits="userSpaceOnUse"
       xlink:href="#id191"
       x1="1585.66"
       y1="1729.51"
       x2="1585.66"
       y2="1820.14">
  </linearGradient>
    <linearGradient
       id="id191"
       gradientUnits="userSpaceOnUse"
       x1="629.24902"
       y1="2574.95"
       x2="629.25403"
       y2="2646.8101">
   <stop
   offset="0"
   style="stop-opacity:1; stop-color:#859696"
   id="stop581" />

   <stop
   offset="1"
   style="stop-opacity:1; stop-color:#B5BBBB"
   id="stop583" />

  </linearGradient>
  </defs>
  <g
     inkscape:label="Capa 1"
     inkscape:groupmode="layer"
     id="layer1"
     transform="translate(-139.60335,-10.256814)">
    <g
       id="_904281008"
       style="clip-rule:evenodd;fill-rule:evenodd;image-rendering:optimizeQuality;shape-rendering:geometricPrecision;text-rendering:geometricPrecision"
       transform="matrix(0.26458333,0,0,0.26458333,-259.65289,-433.44943)">
   <g
   id="g31381">
    <g
   id="g31265">
     <rect
   class="fil0"
   x="1512"
   y="1683"
   width="146"
   height="146"
   rx="31"
   ry="31"
   id="rect31255"
   style="fill:#53381d" />

     <rect
   class="fil1"
   x="1512"
   y="1677"
   width="146"
   height="146"
   rx="31"
   ry="31"
   id="rect31257"
   style="fill:#996633" />

     <rect
   class="fil2"
   x="1514"
   y="1679"
   width="141"
   height="141"
   rx="30"
   ry="30"
   id="rect31259"
   style="fill:#ca9560" />

     <rect
   class="fil3"
   x="1515"
   y="1680"
   width="140"
   height="140"
   rx="30"
   ry="30"
   id="rect31261"
   style="fill:#af753b" />

     <rect
   class="fil0"
   x="1519"
   y="1684"
   width="131"
   height="131"
   rx="28"
   ry="28"
   id="rect31263"
   style="fill:#53381d" />

    </g>

    <g
   id="g31339">
     <rect
   class="fil3122"
   x="1521"
   y="1686"
   width="127"
   height="127"
   rx="27"
   ry="27"
   id="rect31267"
   style="fill:#647272" />

     <rect
   class="fil3723"
   x="1523"
   y="1688"
   width="123"
   height="123"
   rx="26"
   ry="26"
   id="rect31269"
   style="fill:url(#id444)" />

     <polygon
   class="fil1005"
   points="1614,1802 1606,1798 1592,1800 1581,1802 1598,1806 "
   id="polygon31271"
   style="fill:#ffffff" />

     <path
   class="fil7"
   d="m 1620,1689 c 13,0 24,10 25,24 l -61,37 -57,-49 c -2,4 -4,8 -4,13 l 61,36 -51,-56 c 4,-3 10,-5 16,-5 l 35,61 z"
   id="path31273"
   style="fill:#ffffff;fill-opacity:0.2" />

     <path
   class="fil1006"
   d="m 1554,1693 h 61 c 7,0 13,3 17,7 4,5 7,10 7,17 v 61 c 0,7 -3,13 -7,17 -4,4 -10,7 -17,7 h -61 c -7,0 -13,-3 -17,-7 -4,-4 -7,-10 -7,-17 v -61 c 0,-7 3,-12 7,-17 4,-4 10,-7 17,-7 z m 61,2 h -61 c -6,0 -12,3 -16,6 -4,4 -6,10 -6,16 v 61 c 0,6 2,12 6,16 4,4 10,6 16,6 h 61 c 6,0 12,-2 16,-6 4,-4 6,-10 6,-16 v -61 c 0,-6 -2,-12 -6,-16 -4,-3 -10,-6 -16,-6 z"
   id="path31275"
   style="fill:#ffffff;fill-rule:nonzero" />

     <path
   class="fil3724"
   d="m 1554,1694 h 61 c 13,0 23,10 23,23 v 61 c 0,13 -10,23 -23,23 h -61 c -13,0 -23,-10 -23,-23 v -61 c 0,-13 10,-23 23,-23 z"
   id="path31277"
   style="fill:url(#id589)" />

     <g
   clip-path="url(#id161)"
   id="g31327">
      <g
   id="g31325">
       <path
   id="path31279"
   class="fil3258"
   d="m 1584,1773 c 35,0 63,12 63,25 0,14 -28,25 -63,25 -34,0 -62,-11 -62,-25 0,-13 28,-25 62,-25 z"
   style="fill:url(#id658);fill-opacity:0" />

       <g
   id="g31321">
        <path
   class="fil3704"
   d="m 1584,1774 c 34,0 61,11 61,24 0,14 -27,25 -61,25 -33,0 -60,-11 -60,-25 0,-13 27,-24 60,-24 z"
   id="path31281"
   style="fill:url(#id750);fill-opacity:0.047059" />

        <path
   class="fil3725"
   d="m 1584,1775 c 33,0 59,10 59,23 0,13 -26,24 -59,24 -32,0 -58,-11 -58,-24 0,-13 26,-23 58,-23 z"
   id="path31283"
   style="fill:url(#id973);fill-opacity:0.094118" />

        <path
   class="fil3726"
   d="m 1584,1776 c 31,0 57,10 57,22 0,13 -26,23 -57,23 -31,0 -56,-10 -56,-23 0,-12 25,-22 56,-22 z"
   id="path31285"
   style="fill:url(#id1178);fill-opacity:0.141176" />

        <path
   class="fil3727"
   d="m 1584,1777 c 30,0 55,9 55,21 0,12 -25,22 -55,22 -30,0 -54,-10 -54,-22 0,-12 24,-21 54,-21 z"
   id="path31287"
   style="fill:url(#id1271);fill-opacity:0.192157" />

        <path
   class="fil3728"
   d="m 1584,1777 c 29,0 53,10 53,21 0,12 -24,21 -53,21 -28,0 -52,-9 -52,-21 0,-11 24,-21 52,-21 z"
   id="path31289"
   style="fill:url(#id1445);fill-opacity:0.239216" />

        <path
   class="fil3729"
   d="m 1584,1778 c 28,0 51,9 51,20 0,12 -23,21 -51,21 -27,0 -50,-9 -50,-21 0,-11 23,-20 50,-20 z"
   id="path31291"
   style="fill:url(#id1703);fill-opacity:0.286275" />

        <path
   class="fil3730"
   d="m 1584,1779 c 27,0 49,9 49,19 0,11 -22,20 -49,20 -26,0 -48,-9 -48,-20 0,-10 22,-19 48,-19 z"
   id="path31293"
   style="fill:url(#id1869);fill-opacity:0.333333" />

        <path
   class="fil3731"
   d="m 1584,1780 c 26,0 47,8 47,18 0,11 -21,19 -47,19 -25,0 -46,-8 -46,-19 0,-10 21,-18 46,-18 z"
   id="path31295"
   style="fill:url(#id1982);fill-opacity:0.380392" />

        <path
   class="fil3732"
   d="m 1584,1781 c 25,0 45,8 45,17 0,10 -20,18 -45,18 -24,0 -44,-8 -44,-18 0,-9 20,-17 44,-17 z"
   id="path31297"
   style="fill:url(#id2139);fill-opacity:0.427451" />

        <path
   class="fil3733"
   d="m 1584,1781 c 24,0 43,8 43,17 0,10 -19,17 -43,17 -23,0 -42,-7 -42,-17 0,-9 19,-17 42,-17 z"
   id="path31299"
   style="fill:url(#id2396);fill-opacity:0.47451" />

        <path
   class="fil3734"
   d="m 1584,1782 c 23,0 41,7 41,16 0,9 -18,17 -41,17 -22,0 -40,-8 -40,-17 0,-9 18,-16 40,-16 z"
   id="path31301"
   style="fill:url(#id2546);fill-opacity:0.52549" />

        <path
   class="fil3735"
   d="m 1584,1783 c 22,0 39,7 39,15 0,9 -17,16 -39,16 -21,0 -38,-7 -38,-16 0,-8 17,-15 38,-15 z"
   id="path31303"
   style="fill:url(#id2688);fill-opacity:0.572549" />

        <path
   class="fil3736"
   d="m 1584,1784 c 21,0 37,6 37,14 0,8 -16,15 -37,15 -20,0 -36,-7 -36,-15 0,-8 16,-14 36,-14 z"
   id="path31305"
   style="fill:url(#id2871);fill-opacity:0.619608" />

        <path
   class="fil3737"
   d="m 1584,1784 c 19,0 35,7 35,14 0,8 -16,14 -35,14 -19,0 -34,-6 -34,-14 0,-7 15,-14 34,-14 z"
   id="path31307"
   style="fill:url(#id3067);fill-opacity:0.666667" />

        <path
   class="fil3738"
   d="m 1584,1785 c 18,0 33,6 33,13 0,8 -15,13 -33,13 -18,0 -32,-5 -32,-13 0,-7 14,-13 32,-13 z"
   id="path31309"
   style="fill:url(#id3281);fill-opacity:0.713725" />

        <path
   class="fil3739"
   d="m 1584,1786 c 17,0 31,6 31,12 0,7 -14,13 -31,13 -16,0 -30,-6 -30,-13 0,-6 14,-12 30,-12 z"
   id="path31311"
   style="fill:url(#id3430);fill-opacity:0.760784" />

        <path
   class="fil3740"
   d="m 1584,1787 c 16,0 29,5 29,11 0,7 -13,12 -29,12 -15,0 -28,-5 -28,-12 0,-6 13,-11 28,-11 z"
   id="path31313"
   style="fill:url(#id3604);fill-opacity:0.807843" />

        <path
   class="fil3741"
   d="m 1584,1788 c 15,0 27,4 27,10 0,6 -12,11 -27,11 -14,0 -26,-5 -26,-11 0,-6 12,-10 26,-10 z"
   id="path31315"
   style="fill:url(#id3827);fill-opacity:0.858824" />

        <path
   class="fil3742"
   d="m 1584,1788 c 14,0 25,5 25,10 0,6 -11,10 -25,10 -13,0 -24,-4 -24,-10 0,-5 11,-10 24,-10 z"
   id="path31317"
   style="fill:url(#id3971);fill-opacity:0.905882" />

        <path
   class="fil3743"
   d="m 1584,1789 c 13,0 23,4 23,9 0,5 -10,9 -23,9 -12,0 -22,-4 -22,-9 0,-5 10,-9 22,-9 z"
   id="path31319"
   style="fill:url(#id4153);fill-opacity:0.952941" />

       </g>

       <ellipse
   class="fil1029"
   cx="1584"
   cy="1798"
   rx="21"
   ry="8"
   id="ellipse31323"
   style="fill:#e2e2e2" />

      </g>

     </g>

     <path
   class="fil32"
   d="m 1554,1694 h 61 c 13,0 23,10 23,23 v 61 c 0,13 -10,23 -23,23 h -61 c -13,0 -23,-10 -23,-23 v -61 c 0,-13 10,-23 23,-23 z"
   id="path31329"
   style="fill:none" />

     <polygon
   class="fil1005"
   points="1531,1717 1532,1722 1537,1721 1546,1717 1539,1723 1532,1725 1531,1729 1528,1725 1523,1725 1528,1722 "
   id="polygon31331"
   style="fill:#ffffff" />

     <path
   class="fil33"
   d="m 1555,1696 h 23 c -8,6 -14,12 -20,19 -6,-4 -12,-8 -19,-12 4,-4 10,-7 16,-7 z m 27,0 h 32 c 12,0 22,10 22,22 v 15 c -16,0 -34,2 -53,6 -6,-7 -13,-14 -20,-20 -1,-1 -2,-2 -4,-3 7,-7 14,-13 23,-20 z m -1,44 c -3,0 -7,1 -10,2 -13,4 -25,8 -36,13 6,-13 13,-25 22,-36 l 1,-1 c 1,1 2,2 4,3 6,6 13,12 19,19 z m -48,13 v -35 c 0,-5 2,-10 5,-13 7,3 13,7 18,12 v 0 c -10,11 -17,23 -23,36 z"
   id="path31333"
   style="fill:#ffffff;fill-opacity:0.301961" />

     <polygon
   class="fil3146"
   points="1614,1801 1606,1797 1592,1799 1582,1802 1598,1805 "
   id="polygon31335"
   style="fill:#788a8a" />

     <polygon
   class="fil3146"
   points="1531,1716 1532,1720 1537,1720 1546,1717 1539,1722 1532,1724 1531,1728 1528,1724 1523,1725 1528,1721 "
   id="polygon31337"
   style="fill:#788a8a" />

    </g>

    <g
   id="g31359">
     <polygon
   class="fil0"
   points="1509,1777 1509,1766 1512,1766 1512,1779 "
   id="polygon31341"
   style="fill:#53381d" />

     <path
   class="fil0"
   d="m 1517,1726 c 12,0 22,10 22,22 0,12 -10,23 -22,23 -3,0 -6,-1 -8,-2 v -42 c 2,-1 5,-1 8,-1 z"
   id="path31343"
   style="fill:#53381d" />

     <path
   class="fil1"
   d="m 1517,1722 c 12,0 22,10 22,23 0,12 -10,22 -22,22 -3,0 -6,-1 -8,-1 v -41 l 4,-3 v 0 c 1,0 3,0 4,0 z"
   id="path31345"
   style="fill:#996633" />

     <path
   class="fil2"
   d="m 1517,1722 c 12,0 22,10 22,23 0,12 -10,22 -22,22 -3,0 -6,-1 -8,-1 v -1 c 2,1 5,1 8,1 12,0 22,-9 22,-21 0,-12 -10,-22 -22,-22 -2,0 -3,0 -4,0 v 0 l -4,3 v -1 l 4,-3 v 0 c 1,0 3,0 4,0 z"
   id="path31347"
   style="fill:#ca9560" />

     <path
   class="fil2"
   d="m 1514,1767 c 0,0 -1,0 -1,0 v -45 0 0 h 1 z"
   id="path31349"
   style="fill:#ca9560" />

     <polygon
   class="fil3"
   points="1509,1770 1509,1766 1509,1763 1509,1725 1513,1722 1513,1767 "
   id="polygon31351"
   style="fill:#af753b" />

     <polygon
   class="fil0"
   points="1514,1770 1512,1769 1510,1773 "
   id="polygon31353"
   style="fill:#53381d" />

     <polygon
   class="fil2"
   points="1513,1766 1509,1769 1509,1770 1513,1767 "
   id="polygon31355"
   style="fill:#ca9560" />

     <polygon
   class="fil2"
   points="1513,1722 1509,1725 1509,1726 1513,1723 "
   id="polygon31357"
   style="fill:#ca9560" />

    </g>

    <g
   id="g31379">
     <polygon
   class="fil0"
   points="1660,1777 1660,1766 1657,1766 1657,1779 "
   id="polygon31361"
   style="fill:#53381d" />

     <path
   class="fil0"
   d="m 1652,1726 c -13,0 -23,10 -23,22 0,12 10,23 23,23 3,0 5,-1 8,-2 v -42 c -3,-1 -5,-1 -8,-1 z"
   id="path31363"
   style="fill:#53381d" />

     <path
   class="fil1"
   d="m 1652,1722 c -13,0 -23,10 -23,23 0,12 10,22 23,22 3,0 5,-1 8,-1 v -41 l -4,-3 v 0 c -1,0 -3,0 -4,0 z"
   id="path31365"
   style="fill:#996633" />

     <path
   class="fil2"
   d="m 1652,1722 c -13,0 -23,10 -23,23 0,12 10,22 23,22 3,0 5,-1 8,-1 v -1 c -3,1 -5,1 -8,1 -12,0 -22,-9 -22,-21 0,-12 10,-22 22,-22 1,0 3,0 4,0 v 0 l 4,3 v -1 l -4,-3 v 0 c -1,0 -3,0 -4,0 z"
   id="path31367"
   style="fill:#ca9560" />

     <path
   class="fil2"
   d="m 1655,1767 c 0,0 1,0 1,0 v -45 0 0 h -1 z"
   id="path31369"
   style="fill:#ca9560" />

     <polygon
   class="fil3"
   points="1660,1770 1660,1766 1660,1763 1660,1725 1656,1722 1656,1767 "
   id="polygon31371"
   style="fill:#af753b" />

     <polygon
   class="fil0"
   points="1655,1770 1657,1769 1658,1773 "
   id="polygon31373"
   style="fill:#53381d" />

     <polygon
   class="fil2"
   points="1656,1766 1660,1769 1660,1770 1656,1767 "
   id="polygon31375"
   style="fill:#ca9560" />

     <polygon
   class="fil2"
   points="1656,1722 1660,1725 1660,1726 1656,1723 "
   id="polygon31377"
   style="fill:#ca9560" />

    </g>

   </g>

   <g
   id="g31389">
    <path
   class="fil1005"
   d="m 1556,1720 h 13 c 1,0 3,2 3,4 v 12 c 0,2 -2,3 -3,3 h -13 c -1,0 -3,-1 -3,-3 v -12 c 0,-2 2,-4 3,-4 z m 44,46 h 13 c 1,0 3,1 3,3 v 12 c 0,2 -2,3 -3,3 h -13 c -1,0 -3,-1 -3,-3 v -12 c 0,-2 2,-3 3,-3 z m -22,0 h 13 c 1,0 3,1 3,3 v 12 c 0,2 -2,3 -3,3 h -13 c -2,0 -3,-1 -3,-3 v -12 c 0,-2 1,-3 3,-3 z m -22,0 h 13 c 1,0 3,1 3,3 v 12 c 0,2 -2,3 -3,3 h -13 c -1,0 -3,-1 -3,-3 v -12 c 0,-2 2,-3 3,-3 z m 44,-23 h 13 c 1,0 3,1 3,3 v 13 c 0,1 -2,3 -3,3 h -13 c -1,0 -3,-2 -3,-3 v -13 c 0,-2 2,-3 3,-3 z m -22,0 h 13 c 1,0 3,1 3,3 v 13 c 0,1 -2,3 -3,3 h -13 c -2,0 -3,-2 -3,-3 v -13 c 0,-2 1,-3 3,-3 z m -22,0 h 13 c 1,0 3,1 3,3 v 13 c 0,1 -2,3 -3,3 h -13 c -1,0 -3,-2 -3,-3 v -13 c 0,-2 2,-3 3,-3 z m 44,-23 h 13 c 1,0 3,2 3,4 v 12 c 0,2 -2,3 -3,3 h -13 c -1,0 -3,-1 -3,-3 v -12 c 0,-2 2,-4 3,-4 z m -22,0 h 13 c 1,0 3,2 3,4 v 12 c 0,2 -2,3 -3,3 h -13 c -2,0 -3,-1 -3,-3 v -12 c 0,-2 1,-4 3,-4 z"
   id="path31383"
   style="fill:#ffffff" />

    <path
   class="fil3122"
   d="m 1556,1716 h 13 c 1,0 3,2 3,4 v 12 c 0,2 -2,3 -3,3 h -13 c -1,0 -3,-1 -3,-3 v -12 c 0,-2 2,-4 3,-4 z m 44,46 h 13 c 1,0 3,1 3,3 v 12 c 0,2 -2,3 -3,3 h -13 c -1,0 -3,-1 -3,-3 v -12 c 0,-2 2,-3 3,-3 z m -22,0 h 13 c 1,0 3,1 3,3 v 12 c 0,2 -2,3 -3,3 h -13 c -2,0 -3,-1 -3,-3 v -12 c 0,-2 1,-3 3,-3 z m -22,0 h 13 c 1,0 3,1 3,3 v 12 c 0,2 -2,3 -3,3 h -13 c -1,0 -3,-1 -3,-3 v -12 c 0,-2 2,-3 3,-3 z m 44,-23 h 13 c 1,0 3,1 3,3 v 13 c 0,1 -2,3 -3,3 h -13 c -1,0 -3,-2 -3,-3 v -13 c 0,-2 2,-3 3,-3 z m -22,0 h 13 c 1,0 3,1 3,3 v 13 c 0,1 -2,3 -3,3 h -13 c -2,0 -3,-2 -3,-3 v -13 c 0,-2 1,-3 3,-3 z m -22,0 h 13 c 1,0 3,1 3,3 v 13 c 0,1 -2,3 -3,3 h -13 c -1,0 -3,-2 -3,-3 v -13 c 0,-2 2,-3 3,-3 z m 44,-23 h 13 c 1,0 3,2 3,4 v 12 c 0,2 -2,3 -3,3 h -13 c -1,0 -3,-1 -3,-3 v -12 c 0,-2 2,-4 3,-4 z m -22,0 h 13 c 1,0 3,2 3,4 v 12 c 0,2 -2,3 -3,3 h -13 c -2,0 -3,-1 -3,-3 v -12 c 0,-2 1,-4 3,-4 z"
   id="path31385"
   style="fill:#647272" />

    <path
   class="fil3744"
   d="m 1556,1720 h 13 c 1,0 3,1 3,3 v 12 c 0,2 -2,3 -3,3 h -13 c -1,0 -3,-1 -3,-3 v -12 c 0,-2 2,-3 3,-3 z m 44,45 h 13 c 1,0 3,1 3,3 v 12 c 0,2 -2,3 -3,3 h -13 c -1,0 -3,-1 -3,-3 v -12 c 0,-2 2,-3 3,-3 z m -22,0 h 13 c 1,0 3,1 3,3 v 12 c 0,2 -2,3 -3,3 h -13 c -2,0 -3,-1 -3,-3 v -12 c 0,-2 1,-3 3,-3 z m -22,0 h 13 c 1,0 3,1 3,3 v 12 c 0,2 -2,3 -3,3 h -13 c -1,0 -3,-1 -3,-3 v -12 c 0,-2 2,-3 3,-3 z m 44,-23 h 13 c 1,0 3,2 3,3 v 13 c 0,1 -2,3 -3,3 h -13 c -1,0 -3,-2 -3,-3 v -13 c 0,-1 2,-3 3,-3 z m -22,0 h 13 c 1,0 3,2 3,3 v 13 c 0,1 -2,3 -3,3 h -13 c -2,0 -3,-2 -3,-3 v -13 c 0,-1 1,-3 3,-3 z m -22,0 h 13 c 1,0 3,2 3,3 v 13 c 0,1 -2,3 -3,3 h -13 c -1,0 -3,-2 -3,-3 v -13 c 0,-1 2,-3 3,-3 z m 44,-22 h 13 c 1,0 3,1 3,3 v 12 c 0,2 -2,3 -3,3 h -13 c -1,0 -3,-1 -3,-3 v -12 c 0,-2 2,-3 3,-3 z m -22,0 h 13 c 1,0 3,1 3,3 v 12 c 0,2 -2,3 -3,3 h -13 c -2,0 -3,-1 -3,-3 v -12 c 0,-2 1,-3 3,-3 z"
   id="path31387"
   style="fill:url(#id192)" />

   </g>

  </g>
  </g>
</svg>
