<?xml version="1.0" encoding="UTF-8" standalone="no"?>
<!-- Created with Inkscape (http://www.inkscape.org/) -->

<svg
   width="39.952065mm"
   height="40.216663mm"
   viewBox="0 0 39.952065 40.216663"
   version="1.1"
   id="svg36139"
   xmlns:inkscape="http://www.inkscape.org/namespaces/inkscape"
   xmlns:sodipodi="http://sodipodi.sourceforge.net/DTD/sodipodi-0.dtd"
   xmlns:xlink="http://www.w3.org/1999/xlink"
   xmlns="http://www.w3.org/2000/svg"
   xmlns:svg="http://www.w3.org/2000/svg">
  <sodipodi:namedview
     id="namedview36141"
     pagecolor="#505050"
     bordercolor="#eeeeee"
     borderopacity="1"
     inkscape:showpageshadow="0"
     inkscape:pageopacity="0"
     inkscape:pagecheckerboard="0"
     inkscape:deskcolor="#505050"
     inkscape:document-units="mm"
     showgrid="false" />
  <defs
     id="defs36136">
    <radialGradient
       id="id501"
       gradientUnits="userSpaceOnUse"
       gradientTransform="matrix(6.83719e-5,1.10306,-1.43798,0.00545266,3444,-165)"
       xlink:href="#id382"
       cx="1419.24"
       cy="1408.1"
       r="46.994801"
       fx="1419.24"
       fy="1408.1">
  </radialGradient>
    <radialGradient
       id="id382"
       gradientUnits="userSpaceOnUse"
       gradientTransform="matrix(6.83719e-5,1.10306,-1.43798,0.00545266,5695,3101)"
       cx="467.04401"
       cy="3635.6899"
       r="46.994801"
       fx="467.04401"
       fy="3635.6899">
   <stop
   offset="0"
   style="stop-opacity:1; stop-color:#5AB70E"
   id="stop832" />

   <stop
   offset="0.85098"
   style="stop-opacity:1; stop-color:#469109"
   id="stop834" />

   <stop
   offset="1"
   style="stop-opacity:1; stop-color:#336B05"
   id="stop836" />

  </radialGradient>
    <radialGradient
       id="id389"
       gradientUnits="userSpaceOnUse"
       gradientTransform="scale(1.00001,0.999987)"
       xlink:href="#id384"
       cx="1419.24"
       cy="1747.8199"
       r="48.445"
       fx="1419.24"
       fy="1747.8199">
  </radialGradient>
    <radialGradient
       id="id384"
       gradientUnits="userSpaceOnUse"
       gradientTransform="scale(1.00001,0.999987)"
       cx="467.04401"
       cy="3633.8101"
       r="48.445"
       fx="467.04401"
       fy="3633.8101">
   <stop
   offset="0"
   style="stop-opacity:1; stop-color:#8DBD25"
   id="stop840" />

   <stop
   offset="1"
   style="stop-opacity:1; stop-color:#5AB70E"
   id="stop842" />

  </radialGradient>
    <clipPath
       id="id117">
      <path
   d="m 1391,1699 h 56 c 11,0 21,10 21,21 v 56 c 0,11 -10,20 -21,20 h -56 c -11,0 -20,-9 -20,-20 v -56 c 0,-11 9,-21 20,-21 z"
   id="path355" />

     </clipPath>
    <linearGradient
       id="id728"
       gradientUnits="userSpaceOnUse"
       xlink:href="#id704"
       x1="906.84027"
       y1="2786.2341"
       x2="906.84027"
       y2="2775.7405"
       gradientTransform="scale(1.5673295,0.63802794)">
  </linearGradient>
    <linearGradient
       id="id704"
       gradientUnits="userSpaceOnUse"
       x1="468.85901"
       y1="3663.72"
       x2="468.85901"
       y2="3634.4299">
   <stop
   offset="0"
   style="stop-opacity:1; stop-color:#5AB70E"
   id="stop1372" />

   <stop
   offset="1"
   style="stop-opacity:1; stop-color:#8DBD25"
   id="stop1374" />

  </linearGradient>
    <linearGradient
       id="id862"
       gradientUnits="userSpaceOnUse"
       xlink:href="#id743"
       x1="1421"
       y1="1778.25"
       x2="1421"
       y2="1749.89">
  </linearGradient>
    <linearGradient
       id="id743"
       gradientUnits="userSpaceOnUse"
       x1="468.80099"
       y1="745.04797"
       x2="468.80099"
       y2="716.69202">
   <stop
   offset="0"
   style="stop-opacity:1; stop-color:#5DB710"
   id="stop1435" />

   <stop
   offset="1"
   style="stop-opacity:1; stop-color:#8DBD26"
   id="stop1437" />

  </linearGradient>
    <linearGradient
       id="id952"
       gradientUnits="userSpaceOnUse"
       xlink:href="#id870"
       x1="894.28436"
       y1="2826.3887"
       x2="894.28436"
       y2="2816.6768"
       gradientTransform="scale(1.5886502,0.62946518)">
  </linearGradient>
    <linearGradient
       id="id870"
       gradientUnits="userSpaceOnUse"
       x1="468.74301"
       y1="745.56"
       x2="468.74301"
       y2="718.13501">
   <stop
   offset="0"
   style="stop-opacity:1; stop-color:#5FB713"
   id="stop1626" />

   <stop
   offset="1"
   style="stop-opacity:1; stop-color:#8DBC28"
   id="stop1628" />

  </linearGradient>
    <linearGradient
       id="id1049"
       gradientUnits="userSpaceOnUse"
       xlink:href="#id1037"
       x1="1420.88"
       y1="1779.27"
       x2="1420.88"
       y2="1752.78">
  </linearGradient>
    <linearGradient
       id="id1037"
       gradientUnits="userSpaceOnUse"
       x1="468.686"
       y1="2292.8201"
       x2="468.686"
       y2="2266.3201">
   <stop
   offset="0"
   style="stop-opacity:1; stop-color:#62B715"
   id="stop1861" />

   <stop
   offset="1"
   style="stop-opacity:1; stop-color:#8EBC29"
   id="stop1863" />

  </linearGradient>
    <linearGradient
       id="id1346"
       gradientUnits="userSpaceOnUse"
       xlink:href="#id1203"
       x1="1420.8199"
       y1="1779.78"
       x2="1420.8199"
       y2="1754.22">
  </linearGradient>
    <linearGradient
       id="id1203"
       gradientUnits="userSpaceOnUse"
       x1="468.62799"
       y1="746.58301"
       x2="468.62799"
       y2="721.021">
   <stop
   offset="0"
   style="stop-opacity:1; stop-color:#64B718"
   id="stop2095" />

   <stop
   offset="1"
   style="stop-opacity:1; stop-color:#8EBC2A"
   id="stop2097" />

  </linearGradient>
    <linearGradient
       id="id1560"
       gradientUnits="userSpaceOnUse"
       xlink:href="#id1521"
       x1="1420.77"
       y1="1780.29"
       x2="1420.77"
       y2="1755.66">
  </linearGradient>
    <linearGradient
       id="id1521"
       gradientUnits="userSpaceOnUse"
       x1="468.57101"
       y1="747.09399"
       x2="468.57101"
       y2="722.46399">
   <stop
   offset="0"
   style="stop-opacity:1; stop-color:#67B71A"
   id="stop2521" />

   <stop
   offset="1"
   style="stop-opacity:1; stop-color:#8EBC2B"
   id="stop2523" />

  </linearGradient>
    <linearGradient
       id="id1690"
       gradientUnits="userSpaceOnUse"
       xlink:href="#id1571"
       x1="1420.71"
       y1="1780.8101"
       x2="1420.71"
       y2="1757.11">
  </linearGradient>
    <linearGradient
       id="id1571"
       gradientUnits="userSpaceOnUse"
       x1="1420.71"
       y1="747.60602"
       x2="1420.71"
       y2="723.90698">
   <stop
   offset="0"
   style="stop-opacity:1; stop-color:#6AB71C"
   id="stop2603" />

   <stop
   offset="1"
   style="stop-opacity:1; stop-color:#8EBB2D"
   id="stop2605" />

  </linearGradient>
    <linearGradient
       id="id1818"
       gradientUnits="userSpaceOnUse"
       xlink:href="#id1745"
       x1="1420.65"
       y1="1781.3199"
       x2="1420.65"
       y2="1758.55">
  </linearGradient>
    <linearGradient
       id="id1745"
       gradientUnits="userSpaceOnUse"
       x1="468.45499"
       y1="3667.3"
       x2="468.45499"
       y2="3644.53">
   <stop
   offset="0"
   style="stop-opacity:1; stop-color:#6CB71F"
   id="stop2837" />

   <stop
   offset="1"
   style="stop-opacity:1; stop-color:#8EBB2E"
   id="stop2839" />

  </linearGradient>
    <linearGradient
       id="id2104"
       gradientUnits="userSpaceOnUse"
       xlink:href="#id1931"
       x1="1420.59"
       y1="1781.83"
       x2="1420.59"
       y2="1759.99">
  </linearGradient>
    <linearGradient
       id="id1931"
       gradientUnits="userSpaceOnUse"
       x1="468.397"
       y1="3667.8101"
       x2="468.397"
       y2="3645.98">
   <stop
   offset="0"
   style="stop-opacity:1; stop-color:#6FB721"
   id="stop3091" />

   <stop
   offset="1"
   style="stop-opacity:1; stop-color:#8FBB2F"
   id="stop3093" />

  </linearGradient>
    <linearGradient
       id="id2276"
       gradientUnits="userSpaceOnUse"
       xlink:href="#id2196"
       x1="1420.54"
       y1="1782.34"
       x2="1420.54"
       y2="1761.4399">
  </linearGradient>
    <linearGradient
       id="id2196"
       gradientUnits="userSpaceOnUse"
       x1="468.33899"
       y1="2295.8899"
       x2="468.33899"
       y2="2274.98">
   <stop
   offset="0"
   style="stop-opacity:1; stop-color:#72B723"
   id="stop3436" />

   <stop
   offset="1"
   style="stop-opacity:1; stop-color:#8FBA31"
   id="stop3438" />

  </linearGradient>
    <linearGradient
       id="id2416"
       gradientUnits="userSpaceOnUse"
       xlink:href="#id2294"
       x1="1420.48"
       y1="1782.85"
       x2="1420.48"
       y2="1762.88">
  </linearGradient>
    <linearGradient
       id="id2294"
       gradientUnits="userSpaceOnUse"
       x1="468.28201"
       y1="749.65198"
       x2="468.28201"
       y2="729.67999">
   <stop
   offset="0"
   style="stop-opacity:1; stop-color:#74B726"
   id="stop3590" />

   <stop
   offset="1"
   style="stop-opacity:1; stop-color:#8FBA32"
   id="stop3592" />

  </linearGradient>
    <linearGradient
       id="id2601"
       gradientUnits="userSpaceOnUse"
       xlink:href="#id2481"
       x1="1420.42"
       y1="1783.36"
       x2="1420.42"
       y2="1764.3199">
  </linearGradient>
    <linearGradient
       id="id2481"
       gradientUnits="userSpaceOnUse"
       x1="468.22501"
       y1="2296.9099"
       x2="468.22501"
       y2="2277.8701">
   <stop
   offset="0"
   style="stop-opacity:1; stop-color:#77B728"
   id="stop3845" />

   <stop
   offset="1"
   style="stop-opacity:1; stop-color:#8FBA33"
   id="stop3847" />

  </linearGradient>
    <linearGradient
       id="id2782"
       gradientUnits="userSpaceOnUse"
       xlink:href="#id2659"
       x1="1420.36"
       y1="1783.88"
       x2="1420.36"
       y2="1765.77">
  </linearGradient>
    <linearGradient
       id="id2659"
       gradientUnits="userSpaceOnUse"
       x1="1420.36"
       y1="750.67499"
       x2="1420.36"
       y2="732.56598">
   <stop
   offset="0"
   style="stop-opacity:1; stop-color:#79B72B"
   id="stop4087" />

   <stop
   offset="1"
   style="stop-opacity:1; stop-color:#8FBA34"
   id="stop4089" />

  </linearGradient>
    <linearGradient
       id="id3023"
       gradientUnits="userSpaceOnUse"
       xlink:href="#id2934"
       x1="1420.3101"
       y1="1784.39"
       x2="1420.3101"
       y2="1767.21">
  </linearGradient>
    <linearGradient
       id="id2934"
       gradientUnits="userSpaceOnUse"
       x1="865.40399"
       y1="560.94897"
       x2="865.40399"
       y2="543.771">
   <stop
   offset="0"
   style="stop-opacity:1; stop-color:#7CB72D"
   id="stop4442" />

   <stop
   offset="1"
   style="stop-opacity:1; stop-color:#8FB936"
   id="stop4444" />

  </linearGradient>
    <linearGradient
       id="id3196"
       gradientUnits="userSpaceOnUse"
       xlink:href="#id3028"
       x1="1420.25"
       y1="1784.9"
       x2="1420.25"
       y2="1768.65">
  </linearGradient>
    <linearGradient
       id="id3028"
       gradientUnits="userSpaceOnUse"
       x1="1420.25"
       y1="751.698"
       x2="1420.25"
       y2="735.45203">
   <stop
   offset="0"
   style="stop-opacity:1; stop-color:#7FB72F"
   id="stop4588" />

   <stop
   offset="1"
   style="stop-opacity:1; stop-color:#90B937"
   id="stop4590" />

  </linearGradient>
    <linearGradient
       id="id3351"
       gradientUnits="userSpaceOnUse"
       xlink:href="#id3212"
       x1="1420.1899"
       y1="1785.41"
       x2="1420.1899"
       y2="1770.09">
  </linearGradient>
    <linearGradient
       id="id3212"
       gradientUnits="userSpaceOnUse"
       x1="467.99399"
       y1="4195.8198"
       x2="467.99399"
       y2="4180.5098">
   <stop
   offset="0"
   style="stop-opacity:1; stop-color:#81B732"
   id="stop4844" />

   <stop
   offset="1"
   style="stop-opacity:1; stop-color:#90B938"
   id="stop4846" />

  </linearGradient>
    <linearGradient
       id="id3565"
       gradientUnits="userSpaceOnUse"
       xlink:href="#id3394"
       x1="1420.13"
       y1="1785.92"
       x2="1420.13"
       y2="1771.54">
  </linearGradient>
    <linearGradient
       id="id3394"
       gradientUnits="userSpaceOnUse"
       x1="467.935"
       y1="3671.9099"
       x2="467.935"
       y2="3657.52">
   <stop
   offset="0"
   style="stop-opacity:1; stop-color:#84B734"
   id="stop5082" />

   <stop
   offset="1"
   style="stop-opacity:1; stop-color:#90B83A"
   id="stop5084" />

  </linearGradient>
    <linearGradient
       id="id3718"
       gradientUnits="userSpaceOnUse"
       xlink:href="#id3688"
       x1="1420.0699"
       y1="1786.4301"
       x2="1420.0699"
       y2="1772.98">
  </linearGradient>
    <linearGradient
       id="id3688"
       gradientUnits="userSpaceOnUse"
       x1="467.87799"
       y1="3672.4199"
       x2="467.87799"
       y2="3658.97">
   <stop
   offset="0"
   style="stop-opacity:1; stop-color:#87B736"
   id="stop5472" />

   <stop
   offset="1"
   style="stop-opacity:1; stop-color:#90B83B"
   id="stop5474" />

  </linearGradient>
    <linearGradient
       id="id3773"
       gradientUnits="userSpaceOnUse"
       xlink:href="#id3753"
       x1="1420.02"
       y1="1786.9399"
       x2="1420.02"
       y2="1774.42">
  </linearGradient>
    <linearGradient
       id="id3753"
       gradientUnits="userSpaceOnUse"
       x1="467.82001"
       y1="3672.9299"
       x2="467.82001"
       y2="3660.4099">
   <stop
   offset="0"
   style="stop-opacity:1; stop-color:#89B739"
   id="stop5573" />

   <stop
   offset="1"
   style="stop-opacity:1; stop-color:#90B83C"
   id="stop5575" />

  </linearGradient>
    <linearGradient
       id="id4099"
       gradientUnits="userSpaceOnUse"
       xlink:href="#id3940"
       x1="1419.96"
       y1="1787.46"
       x2="1419.96"
       y2="1775.87">
  </linearGradient>
    <linearGradient
       id="id3940"
       gradientUnits="userSpaceOnUse"
       x1="865.05798"
       y1="564.01898"
       x2="865.05798"
       y2="552.42999">
   <stop
   offset="0"
   style="stop-opacity:1; stop-color:#8CB73B"
   id="stop5832" />

   <stop
   offset="1"
   style="stop-opacity:1; stop-color:#91B83D"
   id="stop5834" />

  </linearGradient>
    <linearGradient
       id="id4240"
       gradientUnits="userSpaceOnUse"
       xlink:href="#id4114"
       x1="1419.9"
       y1="1787.97"
       x2="1419.9"
       y2="1777.3101">
  </linearGradient>
    <linearGradient
       id="id4114"
       gradientUnits="objectBoundingBox"
       x1="0.51609403"
       y1="0.145578"
       x2="0.51609403"
       y2="0">
   <stop
   offset="0"
   style="stop-opacity:1; stop-color:#8EB73E"
   id="stop6062" />

   <stop
   offset="1"
   style="stop-opacity:1; stop-color:#91B73F"
   id="stop6064" />

  </linearGradient>
    <linearGradient
       id="id338"
       gradientUnits="userSpaceOnUse"
       xlink:href="#id189"
       x1="1420.37"
       y1="1731.41"
       x2="1420.37"
       y2="1813.53">
  </linearGradient>
    <linearGradient
       id="id189"
       gradientUnits="userSpaceOnUse"
       x1="467.02499"
       y1="2229.8799"
       x2="467.02899"
       y2="2302.0801">
   <stop
   offset="0"
   style="stop-opacity:1; stop-color:#317100"
   id="stop571" />

   <stop
   offset="1"
   style="stop-opacity:1; stop-color:#4EB300"
   id="stop573" />

  </linearGradient>
  </defs>
  <g
     inkscape:label="Capa 1"
     inkscape:groupmode="layer"
     id="layer1"
     transform="translate(-95.947108,-10.256814)">
    <g
       id="_923574768"
       style="clip-rule:evenodd;fill-rule:evenodd;image-rendering:optimizeQuality;shape-rendering:geometricPrecision;text-rendering:geometricPrecision"
       transform="matrix(0.26458333,0,0,0.26458333,-259.65289,-433.44943)">
   <g
   id="g25179">
    <rect
   class="fil0"
   x="1346"
   y="1683"
   width="146"
   height="146"
   rx="31"
   ry="31"
   id="rect25169"
   style="fill:#53381d" />

    <rect
   class="fil1"
   x="1346"
   y="1677"
   width="146"
   height="146"
   rx="31"
   ry="31"
   id="rect25171"
   style="fill:#996633" />

    <rect
   class="fil2"
   x="1349"
   y="1679"
   width="141"
   height="141"
   rx="30"
   ry="30"
   id="rect25173"
   style="fill:#ca9560" />

    <rect
   class="fil3"
   x="1349"
   y="1680"
   width="140"
   height="140"
   rx="30"
   ry="30"
   id="rect25175"
   style="fill:#af753b" />

    <rect
   class="fil0"
   x="1354"
   y="1684"
   width="131"
   height="131"
   rx="28"
   ry="28"
   id="rect25177"
   style="fill:#53381d" />

   </g>

   <g
   id="g25253">
    <rect
   class="fil2146"
   x="1362"
   y="1692"
   width="115"
   height="115"
   rx="24"
   ry="24"
   id="rect25181"
   style="fill:#254c05" />

    <rect
   class="fil2718"
   x="1363"
   y="1694"
   width="112"
   height="112"
   rx="24"
   ry="24"
   id="rect25183"
   style="fill:url(#id501)" />

    <polygon
   class="fil2148"
   points="1446,1797 1439,1793 1426,1795 1416,1797 1431,1801 "
   id="polygon25185"
   style="fill:#7cd637" />

    <path
   class="fil7"
   d="m 1451,1694 c 12,0 23,10 24,22 l -56,34 -51,-45 c -3,4 -4,8 -4,13 l 55,32 -46,-50 c 4,-4 9,-6 14,-6 l 32,56 z"
   id="path25187"
   style="fill:#ffffff;fill-opacity:0.2" />

    <path
   class="fil2149"
   d="m 1391,1699 h 56 c 6,0 11,2 15,6 4,4 6,9 6,15 v 56 c 0,6 -2,11 -6,15 -4,4 -9,6 -15,6 h -56 c -5,0 -11,-2 -15,-6 -4,-4 -6,-9 -6,-15 v -56 c 0,-6 2,-11 6,-15 4,-4 10,-6 15,-6 z m 56,1 h -56 c -5,0 -10,2 -14,6 -3,4 -5,9 -5,14 v 56 c 0,5 2,10 5,14 4,3 9,5 14,5 h 56 c 6,0 10,-2 14,-5 4,-4 6,-9 6,-14 v -56 c 0,-5 -2,-10 -6,-14 -4,-4 -8,-6 -14,-6 z"
   id="path25189"
   style="fill:#7cd637;fill-rule:nonzero" />

    <path
   class="fil2763"
   d="m 1391,1699 h 56 c 11,0 21,10 21,21 v 56 c 0,11 -10,20 -21,20 h -56 c -11,0 -20,-9 -20,-20 v -56 c 0,-11 9,-21 20,-21 z"
   id="path25191"
   style="fill:url(#id389)" />

    <g
   clip-path="url(#id117)"
   id="g25241">
     <g
   id="g25239">
      <path
   id="path25193"
   class="fil2764"
   d="m 1419,1771 c 31,0 57,10 57,23 0,12 -26,23 -57,23 -31,0 -56,-11 -56,-23 0,-13 25,-23 56,-23 z"
   style="fill:url(#id728);fill-opacity:0" />

      <g
   id="g25235">
       <path
   class="fil2765"
   d="m 1419,1772 c 30,0 55,10 55,22 0,12 -25,22 -55,22 -30,0 -54,-10 -54,-22 0,-12 24,-22 54,-22 z"
   id="path25195"
   style="fill:url(#id862);fill-opacity:0.047059" />

       <path
   class="fil2698"
   d="m 1419,1773 c 29,0 53,9 53,21 0,12 -24,21 -53,21 -29,0 -53,-9 -53,-21 0,-12 24,-21 53,-21 z"
   id="path25197"
   style="fill:url(#id952);fill-opacity:0.094118" />

       <path
   class="fil2766"
   d="m 1419,1773 c 28,0 51,9 51,21 0,11 -23,20 -51,20 -28,0 -51,-9 -51,-20 0,-12 23,-21 51,-21 z"
   id="path25199"
   style="fill:url(#id1049);fill-opacity:0.141176" />

       <path
   class="fil2767"
   d="m 1419,1774 c 27,0 49,9 49,20 0,11 -22,20 -49,20 -27,0 -49,-9 -49,-20 0,-11 22,-20 49,-20 z"
   id="path25201"
   style="fill:url(#id1346);fill-opacity:0.192157" />

       <path
   class="fil2768"
   d="m 1419,1775 c 26,0 48,8 48,19 0,10 -22,19 -48,19 -26,0 -47,-9 -47,-19 0,-11 21,-19 47,-19 z"
   id="path25203"
   style="fill:url(#id1560);fill-opacity:0.239216" />

       <path
   class="fil2769"
   d="m 1419,1775 c 25,0 46,9 46,19 0,10 -21,18 -46,18 -25,0 -45,-8 -45,-18 0,-10 20,-19 45,-19 z"
   id="path25205"
   style="fill:url(#id1690);fill-opacity:0.286275" />

       <path
   class="fil2770"
   d="m 1419,1776 c 24,0 44,8 44,18 0,10 -20,17 -44,17 -24,0 -44,-7 -44,-17 0,-10 20,-18 44,-18 z"
   id="path25207"
   style="fill:url(#id1818);fill-opacity:0.333333" />

       <path
   class="fil2771"
   d="m 1419,1777 c 23,0 42,7 42,17 0,9 -19,17 -42,17 -23,0 -42,-8 -42,-17 0,-10 19,-17 42,-17 z"
   id="path25209"
   style="fill:url(#id2104);fill-opacity:0.380392" />

       <path
   class="fil2772"
   d="m 1419,1778 c 22,0 40,7 40,16 0,9 -18,16 -40,16 -22,0 -40,-7 -40,-16 0,-9 18,-16 40,-16 z"
   id="path25211"
   style="fill:url(#id2276);fill-opacity:0.427451" />

       <path
   class="fil2773"
   d="m 1419,1778 c 21,0 39,7 39,16 0,8 -18,15 -39,15 -21,0 -38,-7 -38,-15 0,-9 17,-16 38,-16 z"
   id="path25213"
   style="fill:url(#id2416);fill-opacity:0.47451" />

       <path
   class="fil2774"
   d="m 1419,1779 c 20,0 37,7 37,15 0,8 -17,15 -37,15 -20,0 -36,-7 -36,-15 0,-8 16,-15 36,-15 z"
   id="path25215"
   style="fill:url(#id2601);fill-opacity:0.52549" />

       <path
   class="fil2775"
   d="m 1419,1780 c 19,0 35,6 35,14 0,8 -16,14 -35,14 -19,0 -35,-6 -35,-14 0,-8 16,-14 35,-14 z"
   id="path25217"
   style="fill:url(#id2782);fill-opacity:0.572549" />

       <path
   class="fil2776"
   d="m 1419,1781 c 19,0 33,5 33,13 0,7 -14,13 -33,13 -18,0 -33,-6 -33,-13 0,-8 15,-13 33,-13 z"
   id="path25219"
   style="fill:url(#id3023);fill-opacity:0.619608" />

       <path
   class="fil2777"
   d="m 1419,1781 c 18,0 32,6 32,13 0,7 -14,12 -32,12 -17,0 -31,-5 -31,-12 0,-7 14,-13 31,-13 z"
   id="path25221"
   style="fill:url(#id3196);fill-opacity:0.666667" />

       <path
   class="fil2778"
   d="m 1419,1782 c 17,0 30,5 30,12 0,6 -13,12 -30,12 -16,0 -29,-6 -29,-12 0,-7 13,-12 29,-12 z"
   id="path25223"
   style="fill:url(#id3351);fill-opacity:0.713725" />

       <path
   class="fil2779"
   d="m 1419,1783 c 16,0 28,5 28,11 0,6 -12,11 -28,11 -15,0 -27,-5 -27,-11 0,-6 12,-11 27,-11 z"
   id="path25225"
   style="fill:url(#id3565);fill-opacity:0.760784" />

       <path
   class="fil2780"
   d="m 1419,1783 c 15,0 26,5 26,11 0,6 -11,10 -26,10 -14,0 -26,-4 -26,-10 0,-6 12,-11 26,-11 z"
   id="path25227"
   style="fill:url(#id3718);fill-opacity:0.807843" />

       <path
   class="fil2781"
   d="m 1419,1784 c 14,0 24,4 24,10 0,5 -10,10 -24,10 -13,0 -24,-5 -24,-10 0,-6 11,-10 24,-10 z"
   id="path25229"
   style="fill:url(#id3773);fill-opacity:0.858824" />

       <path
   class="fil2782"
   d="m 1419,1785 c 13,0 23,4 23,9 0,5 -10,9 -23,9 -12,0 -22,-4 -22,-9 0,-5 10,-9 22,-9 z"
   id="path25231"
   style="fill:url(#id4099);fill-opacity:0.905882" />

       <path
   class="fil2783"
   d="m 1419,1786 c 12,0 21,3 21,8 0,4 -9,8 -21,8 -11,0 -20,-4 -20,-8 0,-5 9,-8 20,-8 z"
   id="path25233"
   style="fill:url(#id4240);fill-opacity:0.952941" />

      </g>

      <ellipse
   class="fil2172"
   cx="1419"
   cy="1794"
   rx="19"
   ry="8"
   id="ellipse25237"
   style="fill:#91b740" />

     </g>

    </g>

    <path
   class="fil32"
   d="m 1391,1699 h 56 c 11,0 21,10 21,21 v 56 c 0,11 -10,20 -21,20 h -56 c -11,0 -20,-9 -20,-20 v -56 c 0,-11 9,-21 20,-21 z"
   id="path25243"
   style="fill:none" />

    <polygon
   class="fil2148"
   points="1371,1720 1372,1724 1376,1724 1384,1721 1378,1726 1371,1727 1371,1731 1368,1727 1364,1728 1368,1724 "
   id="polygon25245"
   style="fill:#7cd637" />

    <path
   class="fil33"
   d="m 1393,1701 h 21 c -7,6 -14,11 -19,17 -5,-4 -11,-7 -16,-11 3,-3 8,-6 14,-6 z m 24,0 h 29 c 11,0 20,9 20,20 v 13 c -14,0 -31,2 -48,6 -6,-6 -12,-12 -18,-18 -1,-1 -2,-2 -3,-2 5,-7 12,-13 20,-19 z m -1,40 c -3,0 -6,1 -9,2 -12,3 -23,7 -33,12 6,-12 12,-23 21,-33 v -1 c 1,1 2,2 4,3 6,5 12,11 17,17 z m -43,12 v -32 c 0,-5 2,-9 4,-12 6,3 12,7 17,11 h -1 c -8,10 -15,21 -20,33 z"
   id="path25247"
   style="fill:#ffffff;fill-opacity:0.301961" />

    <polygon
   class="fil2173"
   points="1446,1796 1439,1793 1426,1794 1417,1797 1431,1800 "
   id="polygon25249"
   style="fill:#336b05" />

    <polygon
   class="fil2173"
   points="1371,1719 1372,1723 1376,1723 1384,1721 1378,1725 1371,1726 1371,1730 1368,1726 1364,1728 1368,1723 "
   id="polygon25251"
   style="fill:#336b05" />

   </g>

   <g
   id="g25273">
    <polygon
   class="fil0"
   points="1344,1777 1344,1766 1346,1766 1346,1779 "
   id="polygon25255"
   style="fill:#53381d" />

    <path
   class="fil0"
   d="m 1352,1726 c 12,0 22,10 22,22 0,12 -10,23 -22,23 -3,0 -6,-1 -8,-2 v -42 c 2,-1 5,-1 8,-1 z"
   id="path25257"
   style="fill:#53381d" />

    <path
   class="fil1"
   d="m 1352,1722 c 12,0 22,10 22,23 0,12 -10,22 -22,22 -3,0 -6,-1 -8,-1 v -41 l 4,-3 v 0 c 1,0 2,0 4,0 z"
   id="path25259"
   style="fill:#996633" />

    <path
   class="fil2"
   d="m 1352,1722 c 12,0 22,10 22,23 0,12 -10,22 -22,22 -3,0 -6,-1 -8,-1 v -1 c 2,1 5,1 8,1 12,0 22,-9 22,-21 0,-12 -10,-22 -22,-22 -2,0 -3,0 -4,0 v 0 l -4,3 v -1 l 4,-3 v 0 c 1,0 2,0 4,0 z"
   id="path25261"
   style="fill:#ca9560" />

    <path
   class="fil2"
   d="m 1349,1767 c -1,0 -1,0 -1,0 v -45 0 0 h 1 z"
   id="path25263"
   style="fill:#ca9560" />

    <polygon
   class="fil3"
   points="1344,1770 1344,1766 1344,1763 1344,1725 1348,1722 1348,1767 "
   id="polygon25265"
   style="fill:#af753b" />

    <polygon
   class="fil0"
   points="1349,1770 1346,1769 1345,1773 "
   id="polygon25267"
   style="fill:#53381d" />

    <polygon
   class="fil2"
   points="1348,1766 1344,1769 1344,1770 1348,1767 "
   id="polygon25269"
   style="fill:#ca9560" />

    <polygon
   class="fil2"
   points="1348,1722 1344,1725 1344,1726 1348,1723 "
   id="polygon25271"
   style="fill:#ca9560" />

   </g>

   <g
   id="g25293">
    <polygon
   class="fil0"
   points="1495,1777 1495,1766 1492,1766 1492,1779 "
   id="polygon25275"
   style="fill:#53381d" />

    <path
   class="fil0"
   d="m 1487,1726 c -13,0 -23,10 -23,22 0,12 10,23 23,23 3,0 5,-1 8,-2 v -42 c -3,-1 -5,-1 -8,-1 z"
   id="path25277"
   style="fill:#53381d" />

    <path
   class="fil1"
   d="m 1487,1722 c -13,0 -23,10 -23,23 0,12 10,22 23,22 3,0 5,-1 8,-1 v -41 l -4,-3 v 0 c -2,0 -3,0 -4,0 z"
   id="path25279"
   style="fill:#996633" />

    <path
   class="fil2"
   d="m 1487,1722 c -13,0 -23,10 -23,23 0,12 10,22 23,22 3,0 5,-1 8,-1 v -1 c -3,1 -5,1 -8,1 -12,0 -22,-9 -22,-21 0,-12 10,-22 22,-22 1,0 3,0 4,0 v 0 l 4,3 v -1 l -4,-3 v 0 c -2,0 -3,0 -4,0 z"
   id="path25281"
   style="fill:#ca9560" />

    <path
   class="fil2"
   d="m 1490,1767 c 0,0 0,0 1,0 v -45 0 0 h -1 z"
   id="path25283"
   style="fill:#ca9560" />

    <polygon
   class="fil3"
   points="1495,1770 1495,1766 1495,1763 1495,1725 1491,1722 1491,1767 "
   id="polygon25285"
   style="fill:#af753b" />

    <polygon
   class="fil0"
   points="1489,1770 1492,1769 1493,1773 "
   id="polygon25287"
   style="fill:#53381d" />

    <polygon
   class="fil2"
   points="1491,1766 1495,1769 1495,1770 1491,1767 "
   id="polygon25289"
   style="fill:#ca9560" />

    <polygon
   class="fil2"
   points="1491,1722 1495,1725 1495,1726 1491,1723 "
   id="polygon25291"
   style="fill:#ca9560" />

   </g>

   <g
   id="g25301">
    <path
   class="fil2148"
   d="m 1394,1723 h 11 c 1,0 3,1 3,3 v 11 c 0,2 -2,3 -3,3 h -11 c -2,0 -3,-1 -3,-3 v -11 c 0,-2 1,-3 3,-3 z m 40,41 h 11 c 1,0 3,1 3,3 v 11 c 0,2 -2,3 -3,3 h -11 c -2,0 -3,-1 -3,-3 v -11 c 0,-2 1,-3 3,-3 z m -20,0 h 11 c 1,0 3,1 3,3 v 11 c 0,2 -2,3 -3,3 h -11 c -2,0 -3,-1 -3,-3 v -11 c 0,-2 1,-3 3,-3 z m -20,0 h 11 c 1,0 3,1 3,3 v 11 c 0,2 -2,3 -3,3 h -11 c -2,0 -3,-1 -3,-3 v -11 c 0,-2 1,-3 3,-3 z m 40,-20 h 11 c 1,0 3,1 3,3 v 11 c 0,1 -2,3 -3,3 h -11 c -2,0 -3,-2 -3,-3 v -11 c 0,-2 1,-3 3,-3 z m -20,0 h 11 c 1,0 3,1 3,3 v 11 c 0,1 -2,3 -3,3 h -11 c -2,0 -3,-2 -3,-3 v -11 c 0,-2 1,-3 3,-3 z m -20,0 h 11 c 1,0 3,1 3,3 v 11 c 0,1 -2,3 -3,3 h -11 c -2,0 -3,-2 -3,-3 v -11 c 0,-2 1,-3 3,-3 z m 40,-21 h 11 c 1,0 3,1 3,3 v 11 c 0,2 -2,3 -3,3 h -11 c -2,0 -3,-1 -3,-3 v -11 c 0,-2 1,-3 3,-3 z m -20,0 h 11 c 1,0 3,1 3,3 v 11 c 0,2 -2,3 -3,3 h -11 c -2,0 -3,-1 -3,-3 v -11 c 0,-2 1,-3 3,-3 z"
   id="path25295"
   style="fill:#7cd637" />

    <path
   class="fil2696"
   d="m 1394,1720 h 11 c 1,0 3,1 3,2 v 12 c 0,1 -2,2 -3,2 h -11 c -2,0 -3,-1 -3,-2 v -12 c 0,-1 1,-2 3,-2 z m 40,41 h 11 c 1,0 3,1 3,2 v 12 c 0,1 -2,2 -3,2 h -11 c -2,0 -3,-1 -3,-2 v -12 c 0,-1 1,-2 3,-2 z m -20,0 h 11 c 1,0 3,1 3,2 v 12 c 0,1 -2,2 -3,2 h -11 c -2,0 -3,-1 -3,-2 v -12 c 0,-1 1,-2 3,-2 z m -20,0 h 11 c 1,0 3,1 3,2 v 12 c 0,1 -2,2 -3,2 h -11 c -2,0 -3,-1 -3,-2 v -12 c 0,-1 1,-2 3,-2 z m 40,-21 h 11 c 1,0 3,1 3,3 v 11 c 0,2 -2,3 -3,3 h -11 c -2,0 -3,-1 -3,-3 v -11 c 0,-2 1,-3 3,-3 z m -20,0 h 11 c 1,0 3,1 3,3 v 11 c 0,2 -2,3 -3,3 h -11 c -2,0 -3,-1 -3,-3 v -11 c 0,-2 1,-3 3,-3 z m -20,0 h 11 c 1,0 3,1 3,3 v 11 c 0,2 -2,3 -3,3 h -11 c -2,0 -3,-1 -3,-3 v -11 c 0,-2 1,-3 3,-3 z m 40,-20 h 11 c 1,0 3,1 3,2 v 12 c 0,1 -2,2 -3,2 h -11 c -2,0 -3,-1 -3,-2 v -12 c 0,-1 1,-2 3,-2 z m -20,0 h 11 c 1,0 3,1 3,2 v 12 c 0,1 -2,2 -3,2 h -11 c -2,0 -3,-1 -3,-2 v -12 c 0,-1 1,-2 3,-2 z"
   id="path25297"
   style="fill:#225500" />

    <path
   class="fil2784"
   d="m 1394,1722 h 11 c 1,0 3,2 3,3 v 11 c 0,2 -2,3 -3,3 h -11 c -2,0 -3,-1 -3,-3 v -11 c 0,-1 1,-3 3,-3 z m 40,41 h 11 c 1,0 3,2 3,3 v 11 c 0,2 -2,3 -3,3 h -11 c -2,0 -3,-1 -3,-3 v -11 c 0,-1 1,-3 3,-3 z m -20,0 h 11 c 1,0 3,2 3,3 v 11 c 0,2 -2,3 -3,3 h -11 c -2,0 -3,-1 -3,-3 v -11 c 0,-1 1,-3 3,-3 z m -20,0 h 11 c 1,0 3,2 3,3 v 11 c 0,2 -2,3 -3,3 h -11 c -2,0 -3,-1 -3,-3 v -11 c 0,-1 1,-3 3,-3 z m 40,-20 h 11 c 1,0 3,1 3,3 v 11 c 0,1 -2,3 -3,3 h -11 c -2,0 -3,-2 -3,-3 v -11 c 0,-2 1,-3 3,-3 z m -20,0 h 11 c 1,0 3,1 3,3 v 11 c 0,1 -2,3 -3,3 h -11 c -2,0 -3,-2 -3,-3 v -11 c 0,-2 1,-3 3,-3 z m -20,0 h 11 c 1,0 3,1 3,3 v 11 c 0,1 -2,3 -3,3 h -11 c -2,0 -3,-2 -3,-3 v -11 c 0,-2 1,-3 3,-3 z m 40,-21 h 11 c 1,0 3,2 3,3 v 11 c 0,2 -2,3 -3,3 h -11 c -2,0 -3,-1 -3,-3 v -11 c 0,-1 1,-3 3,-3 z m -20,0 h 11 c 1,0 3,2 3,3 v 11 c 0,2 -2,3 -3,3 h -11 c -2,0 -3,-1 -3,-3 v -11 c 0,-1 1,-3 3,-3 z"
   id="path25299"
   style="fill:url(#id338)" />

   </g>

  </g>
  </g>
</svg>
