<?xml version="1.0" encoding="UTF-8" standalone="no"?>
<!-- Created with Inkscape (http://www.inkscape.org/) -->

<svg
   width="39.952084mm"
   height="40.481251mm"
   viewBox="0 0 39.952084 40.481251"
   version="1.1"
   id="svg146398"
   inkscape:version="1.2.2 (732a01da63, 2022-12-09)"
   sodipodi:docname="sett_normal.svg"
   xmlns:inkscape="http://www.inkscape.org/namespaces/inkscape"
   xmlns:sodipodi="http://sodipodi.sourceforge.net/DTD/sodipodi-0.dtd"
   xmlns:xlink="http://www.w3.org/1999/xlink"
   xmlns="http://www.w3.org/2000/svg"
   xmlns:svg="http://www.w3.org/2000/svg">
  <sodipodi:namedview
     id="namedview146400"
     pagecolor="#505050"
     bordercolor="#eeeeee"
     borderopacity="1"
     inkscape:showpageshadow="0"
     inkscape:pageopacity="0"
     inkscape:pagecheckerboard="0"
     inkscape:deskcolor="#505050"
     inkscape:document-units="mm"
     showgrid="false"
     inkscape:zoom="0.914906"
     inkscape:cx="353.58824"
     inkscape:cy="373.80889"
     inkscape:window-width="3840"
     inkscape:window-height="2126"
     inkscape:window-x="2869"
     inkscape:window-y="-11"
     inkscape:window-maximized="1"
     inkscape:current-layer="layer1" />
  <defs
     id="defs146395">
    <radialGradient
       id="id513"
       gradientUnits="userSpaceOnUse"
       gradientTransform="matrix(6.83717e-5,1.10307,-1.43798,0.0054527,6359,4157)"
       xlink:href="#id413"
       cx="134.586"
       cy="4328.9199"
       r="46.994801"
       fx="134.586"
       fy="4328.9199">
  </radialGradient>
    <radialGradient
       id="id413"
       gradientUnits="userSpaceOnUse"
       gradientTransform="matrix(6.83717e-5,0.480234,-1.43798,0.00237391,875,175)"
       cx="367.621"
       cy="352.63"
       r="141.59"
       fx="367.621"
       fy="352.63">
   <stop
   offset="0"
   style="stop-opacity:1; stop-color:#92E010"
   id="stop107801" />

   <stop
   offset="0.85098"
   style="stop-opacity:1; stop-color:#77BA0B"
   id="stop107803" />

   <stop
   offset="1"
   style="stop-opacity:1; stop-color:#5D9406"
   id="stop107805" />

  </radialGradient>
    <radialGradient
       id="id593"
       gradientUnits="userSpaceOnUse"
       gradientTransform="scale(1,0.999974)"
       xlink:href="#id552"
       cx="134.58701"
       cy="4326.8398"
       r="53.460499"
       fx="134.58701"
       fy="4326.8398">
  </radialGradient>
    <radialGradient
       id="id552"
       gradientUnits="userSpaceOnUse"
       gradientTransform="scale(1,0.999974)"
       cx="525.97803"
       cy="524.19299"
       r="53.460499"
       fx="525.97803"
       fy="524.19299">
   <stop
   offset="0"
   style="stop-opacity:1; stop-color:#BEE62D"
   id="stop108048" />

   <stop
   offset="1"
   style="stop-opacity:1; stop-color:#92E010"
   id="stop108050" />

  </radialGradient>
    <clipPath
       id="id21">
       <path
   d="m 104,4273 h 61 c 13,0 23,11 23,23 v 62 c 0,12 -10,22 -23,22 h -61 c -13,0 -23,-10 -23,-22 v -62 c 0,-12 10,-23 23,-23 z"
   id="path106987" />

      </clipPath>
    <linearGradient
       id="id654"
       gradientUnits="userSpaceOnUse"
       xlink:href="#id629"
       x1="86.336899"
       y1="6894.2036"
       x2="86.336899"
       y2="6882.6973"
       gradientTransform="scale(1.5811388,0.63245553)">
  </linearGradient>
    <linearGradient
       id="id629"
       gradientUnits="userSpaceOnUse"
       x1="136.588"
       y1="1781.73"
       x2="136.588"
       y2="1749.41">
   <stop
   offset="0"
   style="stop-opacity:1; stop-color:#92E010"
   id="stop108177" />

   <stop
   offset="1"
   style="stop-opacity:1; stop-color:#BEE62D"
   id="stop108179" />

  </linearGradient>
    <linearGradient
       id="id763"
       gradientUnits="userSpaceOnUse"
       xlink:href="#id745"
       x1="86.829453"
       y1="6851.6353"
       x2="86.829453"
       y2="6840.4287"
       gradientTransform="scale(1.5714286,0.63636364)">
  </linearGradient>
    <linearGradient
       id="id745"
       gradientUnits="userSpaceOnUse"
       x1="136.52499"
       y1="2294.75"
       x2="136.52499"
       y2="2263.46">
   <stop
   offset="0"
   style="stop-opacity:1; stop-color:#94E013"
   id="stop108361" />

   <stop
   offset="1"
   style="stop-opacity:1; stop-color:#BEE62F"
   id="stop108363" />

  </linearGradient>
    <linearGradient
       id="id913"
       gradientUnits="userSpaceOnUse"
       xlink:href="#id894"
       x1="136.461"
       y1="4360.98"
       x2="136.461"
       y2="4330.7202">
  </linearGradient>
    <linearGradient
       id="id894"
       gradientUnits="userSpaceOnUse"
       x1="136.461"
       y1="4192.1802"
       x2="136.461"
       y2="4161.9199">
   <stop
   offset="0"
   style="stop-opacity:1; stop-color:#96E016"
   id="stop108582" />

   <stop
   offset="1"
   style="stop-opacity:1; stop-color:#BEE530"
   id="stop108584" />

  </linearGradient>
    <linearGradient
       id="id1075"
       gradientUnits="userSpaceOnUse"
       x1="136.397"
       y1="4361.54"
       x2="136.397"
       y2="4332.3101">
   <stop
   offset="0"
   style="stop-opacity:1; stop-color:#99E019"
   id="stop108831" />

   <stop
   offset="1"
   style="stop-opacity:1; stop-color:#BEE532"
   id="stop108833" />

  </linearGradient>
    <linearGradient
       id="id1233"
       gradientUnits="userSpaceOnUse"
       xlink:href="#id1223"
       x1="136.334"
       y1="4362.1099"
       x2="136.334"
       y2="4333.8999">
  </linearGradient>
    <linearGradient
       id="id1223"
       gradientUnits="userSpaceOnUse"
       x1="136.334"
       y1="3502.23"
       x2="136.334"
       y2="3474.02">
   <stop
   offset="0"
   style="stop-opacity:1; stop-color:#9BE01C"
   id="stop109039" />

   <stop
   offset="1"
   style="stop-opacity:1; stop-color:#BEE533"
   id="stop109041" />

  </linearGradient>
    <linearGradient
       id="id1405"
       gradientUnits="userSpaceOnUse"
       xlink:href="#id1385"
       x1="136.27"
       y1="4362.6699"
       x2="136.27"
       y2="4335.4902">
  </linearGradient>
    <linearGradient
       id="id1385"
       gradientUnits="userSpaceOnUse"
       x1="136.27"
       y1="3849.3501"
       x2="136.27"
       y2="3822.1699">
   <stop
   offset="0"
   style="stop-opacity:1; stop-color:#9DE01F"
   id="stop109265" />

   <stop
   offset="1"
   style="stop-opacity:1; stop-color:#BEE535"
   id="stop109267" />

  </linearGradient>
    <linearGradient
       id="id1594"
       gradientUnits="userSpaceOnUse"
       x1="136.20599"
       y1="4363.2402"
       x2="136.20599"
       y2="4337.0898">
   <stop
   offset="0"
   style="stop-opacity:1; stop-color:#9FE022"
   id="stop109554" />

   <stop
   offset="1"
   style="stop-opacity:1; stop-color:#BFE436"
   id="stop109556" />

  </linearGradient>
    <linearGradient
       id="id1755"
       gradientUnits="userSpaceOnUse"
       xlink:href="#id1748"
       x1="136.14301"
       y1="4363.7998"
       x2="136.14301"
       y2="4338.6802">
  </linearGradient>
    <linearGradient
       id="id1748"
       gradientUnits="userSpaceOnUse"
       x1="136.14301"
       y1="3670.5701"
       x2="136.14301"
       y2="3645.45">
   <stop
   offset="0"
   style="stop-opacity:1; stop-color:#A1E025"
   id="stop109764" />

   <stop
   offset="1"
   style="stop-opacity:1; stop-color:#BFE438"
   id="stop109766" />

  </linearGradient>
    <linearGradient
       id="id1940"
       gradientUnits="userSpaceOnUse"
       xlink:href="#id1932"
       x1="136.07899"
       y1="4364.3701"
       x2="136.07899"
       y2="4340.27">
  </linearGradient>
    <linearGradient
       id="id1932"
       gradientUnits="userSpaceOnUse"
       x1="136.07899"
       y1="3851.04"
       x2="136.07899"
       y2="3826.95">
   <stop
   offset="0"
   style="stop-opacity:1; stop-color:#A4E028"
   id="stop110016" />

   <stop
   offset="1"
   style="stop-opacity:1; stop-color:#BFE43A"
   id="stop110018" />

  </linearGradient>
    <linearGradient
       id="id2112"
       gradientUnits="userSpaceOnUse"
       x1="136.015"
       y1="4364.9302"
       x2="136.015"
       y2="4341.8599">
   <stop
   offset="0"
   style="stop-opacity:1; stop-color:#A6E02B"
   id="stop110260" />

   <stop
   offset="1"
   style="stop-opacity:1; stop-color:#BFE33B"
   id="stop110262" />

  </linearGradient>
    <linearGradient
       id="id2325"
       gradientUnits="userSpaceOnUse"
       xlink:href="#id2318"
       x1="135.952"
       y1="4365.5"
       x2="135.952"
       y2="4343.46">
  </linearGradient>
    <linearGradient
       id="id2318"
       gradientUnits="userSpaceOnUse"
       x1="369.83099"
       y1="389.20499"
       x2="369.83099"
       y2="367.16501">
   <stop
   offset="0"
   style="stop-opacity:1; stop-color:#A8E02E"
   id="stop110542" />

   <stop
   offset="1"
   style="stop-opacity:1; stop-color:#BFE33D"
   id="stop110544" />

  </linearGradient>
    <linearGradient
       id="id2505"
       gradientUnits="userSpaceOnUse"
       xlink:href="#id2504"
       x1="135.888"
       y1="4366.0601"
       x2="135.888"
       y2="4345.0498">
  </linearGradient>
    <linearGradient
       id="id2504"
       gradientUnits="userSpaceOnUse"
       x1="135.888"
       y1="1109.95"
       x2="135.888"
       y2="1088.9399">
   <stop
   offset="0"
   style="stop-opacity:1; stop-color:#AAE030"
   id="stop110792" />

   <stop
   offset="1"
   style="stop-opacity:1; stop-color:#BFE33E"
   id="stop110794" />

  </linearGradient>
    <linearGradient
       id="id2665"
       gradientUnits="userSpaceOnUse"
       xlink:href="#id2661"
       x1="135.82401"
       y1="4366.6201"
       x2="135.82401"
       y2="4346.6401">
  </linearGradient>
    <linearGradient
       id="id2661"
       gradientUnits="userSpaceOnUse"
       x1="135.82401"
       y1="3334.8899"
       x2="135.82401"
       y2="3314.8999">
   <stop
   offset="0"
   style="stop-opacity:1; stop-color:#ACE033"
   id="stop111017" />

   <stop
   offset="1"
   style="stop-opacity:1; stop-color:#BFE340"
   id="stop111019" />

  </linearGradient>
    <linearGradient
       id="id2845"
       gradientUnits="userSpaceOnUse"
       xlink:href="#id2842"
       x1="135.761"
       y1="4367.1899"
       x2="135.761"
       y2="4348.23">
  </linearGradient>
    <linearGradient
       id="id2842"
       gradientUnits="userSpaceOnUse"
       x1="369.39801"
       y1="390.89899"
       x2="369.39801"
       y2="371.94299">
   <stop
   offset="0"
   style="stop-opacity:1; stop-color:#AEE036"
   id="stop111258" />

   <stop
   offset="1"
   style="stop-opacity:1; stop-color:#BFE241"
   id="stop111260" />

  </linearGradient>
    <linearGradient
       id="id3036"
       gradientUnits="userSpaceOnUse"
       xlink:href="#id3032"
       x1="135.69701"
       y1="4367.75"
       x2="135.69701"
       y2="4349.8198">
  </linearGradient>
    <linearGradient
       id="id3032"
       gradientUnits="userSpaceOnUse"
       x1="369.25299"
       y1="218.047"
       x2="369.25299"
       y2="200.119">
   <stop
   offset="0"
   style="stop-opacity:1; stop-color:#B1E039"
   id="stop111524" />

   <stop
   offset="1"
   style="stop-opacity:1; stop-color:#BFE243"
   id="stop111526" />

  </linearGradient>
    <linearGradient
       id="id3246"
       gradientUnits="userSpaceOnUse"
       xlink:href="#id3210"
       x1="135.633"
       y1="4368.3198"
       x2="135.633"
       y2="4351.4199">
  </linearGradient>
    <linearGradient
       id="id3210"
       gradientUnits="objectBoundingBox"
       x1="0.51608801"
       y1="0.145529"
       x2="0.51608801"
       y2="0">
   <stop
   offset="0"
   style="stop-opacity:1; stop-color:#B3E03C"
   id="stop111754" />

   <stop
   offset="1"
   style="stop-opacity:1; stop-color:#BFE245"
   id="stop111756" />

  </linearGradient>
    <linearGradient
       id="id3397"
       gradientUnits="userSpaceOnUse"
       xlink:href="#id3395"
       x1="135.57001"
       y1="4368.8799"
       x2="135.57001"
       y2="4353.0098">
  </linearGradient>
    <linearGradient
       id="id3395"
       gradientUnits="userSpaceOnUse"
       x1="135.57001"
       y1="1281.5"
       x2="135.57001"
       y2="1265.63">
   <stop
   offset="0"
   style="stop-opacity:1; stop-color:#B5E03F"
   id="stop112007" />

   <stop
   offset="1"
   style="stop-opacity:1; stop-color:#C0E146"
   id="stop112009" />

  </linearGradient>
    <linearGradient
       id="id3586"
       gradientUnits="userSpaceOnUse"
       xlink:href="#id3579"
       x1="135.506"
       y1="4369.4502"
       x2="135.506"
       y2="4354.6001">
  </linearGradient>
    <linearGradient
       id="id3579"
       gradientUnits="objectBoundingBox"
       x1="0.51608801"
       y1="0.14552701"
       x2="0.51608801"
       y2="0">
   <stop
   offset="0"
   style="stop-opacity:1; stop-color:#B7E042"
   id="stop112251" />

   <stop
   offset="1"
   style="stop-opacity:1; stop-color:#C0E148"
   id="stop112253" />

  </linearGradient>
    <linearGradient
       id="id3803"
       gradientUnits="userSpaceOnUse"
       xlink:href="#id3778"
       x1="135.44299"
       y1="4370.0098"
       x2="135.44299"
       y2="4356.1899">
  </linearGradient>
    <linearGradient
       id="id3778"
       gradientUnits="userSpaceOnUse"
       x1="368.67499"
       y1="393.72101"
       x2="368.67499"
       y2="379.90399">
   <stop
   offset="0"
   style="stop-opacity:1; stop-color:#B9E045"
   id="stop112538" />

   <stop
   offset="1"
   style="stop-opacity:1; stop-color:#C0E149"
   id="stop112540" />

  </linearGradient>
    <linearGradient
       id="id3958"
       gradientUnits="userSpaceOnUse"
       xlink:href="#id3938"
       x1="135.379"
       y1="4370.5801"
       x2="135.379"
       y2="4357.79">
  </linearGradient>
    <linearGradient
       id="id3938"
       gradientUnits="userSpaceOnUse"
       x1="368.53"
       y1="220.87"
       x2="368.53"
       y2="208.08">
   <stop
   offset="0"
   style="stop-opacity:1; stop-color:#BCE048"
   id="stop112746" />

   <stop
   offset="1"
   style="stop-opacity:1; stop-color:#C0E14B"
   id="stop112748" />

  </linearGradient>
    <linearGradient
       id="id4134"
       gradientUnits="userSpaceOnUse"
       xlink:href="#id4130"
       x1="135.315"
       y1="4371.1401"
       x2="135.315"
       y2="4359.3799">
  </linearGradient>
    <linearGradient
       id="id4130"
       gradientUnits="userSpaceOnUse"
       x1="135.315"
       y1="941.09302"
       x2="135.315"
       y2="929.33197">
   <stop
   offset="0"
   style="stop-opacity:1; stop-color:#BEE04B"
   id="stop113002" />

   <stop
   offset="1"
   style="stop-opacity:1; stop-color:#C0E04C"
   id="stop113004" />

  </linearGradient>
    <linearGradient
       id="id289"
       gradientUnits="userSpaceOnUse"
       xlink:href="#id190"
       x1="136.5"
       y1="4296.7002"
       x2="136.505"
       y2="4378.8999">
  </linearGradient>
    <linearGradient
       id="id190"
       gradientUnits="userSpaceOnUse"
       x1="134.565"
       y1="2226.4199"
       x2="134.57001"
       y2="2306.1001">
   <stop
   offset="0"
   style="stop-opacity:1; stop-color:#5C9A00"
   id="stop107496" />

   <stop
   offset="1"
   style="stop-opacity:1; stop-color:#84DC00"
   id="stop107498" />

  </linearGradient>
  </defs>
  <g
     inkscape:label="Capa 1"
     inkscape:groupmode="layer"
     id="layer1"
     transform="translate(-11.545867,-49.454652)">
    <g
       id="_978243824"
       style="clip-rule:evenodd;fill-rule:evenodd;image-rendering:optimizeQuality;shape-rendering:geometricPrecision;text-rendering:geometricPrecision"
       transform="matrix(0.26458333,0,0,0.26458333,-4.0645494,-1076.612)">
   <g
   id="g116235">
    <g
   id="g116119">
     <rect
   class="fil0"
   x="62"
   y="4263"
   width="146"
   height="146"
   rx="31"
   ry="31"
   id="rect116109"
   style="fill:#53381d" />

     <rect
   class="fil1"
   x="62"
   y="4256"
   width="146"
   height="146"
   rx="31"
   ry="31"
   id="rect116111"
   style="fill:#996633" />

     <rect
   class="fil2"
   x="64"
   y="4258"
   width="141"
   height="141"
   rx="30"
   ry="30"
   id="rect116113"
   style="fill:#ca9560" />

     <rect
   class="fil3"
   x="65"
   y="4259"
   width="140"
   height="140"
   rx="30"
   ry="30"
   id="rect116115"
   style="fill:#af753b" />

     <rect
   class="fil0"
   x="69"
   y="4263"
   width="131"
   height="131"
   rx="28"
   ry="28"
   id="rect116117"
   style="fill:#53381d" />

    </g>

    <g
   id="g116193">
     <rect
   class="fil4"
   x="71"
   y="4265"
   width="127"
   height="127"
   rx="27"
   ry="27"
   id="rect116121"
   style="fill:#4b7507" />

     <rect
   class="fil464"
   x="73"
   y="4267"
   width="123"
   height="123"
   rx="26"
   ry="26"
   id="rect116123"
   style="fill:url(#id513)" />

     <polygon
   class="fil6"
   points="142,4379 131,4381 148,4385 164,4381 156,4377 "
   id="polygon116125"
   style="fill:#b3ff41" />

     <path
   class="fil7"
   d="m 170,4268 c 13,0 25,10 26,24 l -61,37 -57,-49 c -3,4 -4,9 -5,14 l 62,35 -52,-55 c 5,-4 10,-6 16,-6 l 36,61 z"
   id="path116127"
   style="fill:#ffffff;fill-opacity:0.2" />

     <path
   class="fil8"
   d="m 104,4273 h 61 c 7,0 13,2 17,6 4,5 7,11 7,17 v 62 c 0,6 -3,12 -7,16 -4,5 -10,7 -17,7 h -61 c -7,0 -13,-2 -17,-7 -4,-4 -7,-10 -7,-16 v -62 c 0,-6 3,-12 7,-17 4,-4 10,-6 17,-6 z m 61,1 h -61 c -6,0 -12,3 -16,7 -4,4 -6,9 -6,15 v 62 c 0,6 2,11 6,15 4,4 10,6 16,6 h 61 c 6,0 12,-2 16,-6 4,-4 6,-9 6,-15 v -62 c 0,-6 -2,-11 -6,-15 -4,-4 -10,-7 -16,-7 z"
   id="path116129"
   style="fill:#b3ff41;fill-rule:nonzero" />

     <path
   class="fil465"
   d="m 104,4273 h 61 c 13,0 23,11 23,23 v 62 c 0,12 -10,22 -23,22 h -61 c -13,0 -23,-10 -23,-22 v -62 c 0,-12 10,-23 23,-23 z"
   id="path116131"
   style="fill:url(#id593)" />

     <g
   clip-path="url(#id21)"
   id="g116181">
      <g
   id="g116179">
       <path
   id="path116133"
   class="fil367"
   d="m 135,4353 c 34,0 62,11 62,25 0,13 -28,25 -62,25 -35,0 -63,-12 -63,-25 0,-14 28,-25 63,-25 z"
   style="fill:url(#id654);fill-opacity:0" />

       <g
   id="g116175">
        <path
   class="fil443"
   d="m 135,4353 c 33,0 60,11 60,25 0,13 -27,24 -60,24 -34,0 -61,-11 -61,-24 0,-14 27,-25 61,-25 z"
   id="path116135"
   style="fill:url(#id763);fill-opacity:0.047059" />

        <path
   class="fil466"
   d="m 135,4354 c 32,0 58,11 58,24 0,13 -26,23 -58,23 -33,0 -59,-10 -59,-23 0,-13 26,-24 59,-24 z"
   id="path116137"
   style="fill:url(#id913);fill-opacity:0.094118" />

        <path
   class="fil467"
   d="m 135,4355 c 31,0 56,10 56,23 0,12 -25,22 -56,22 -31,0 -57,-10 -57,-22 0,-13 26,-23 57,-23 z"
   id="path116139"
   style="fill:url(#id1075);fill-opacity:0.141176" />

        <path
   class="fil468"
   d="m 135,4356 c 30,0 54,10 54,22 0,12 -24,21 -54,21 -30,0 -55,-9 -55,-21 0,-12 25,-22 55,-22 z"
   id="path116141"
   style="fill:url(#id1233);fill-opacity:0.192157" />

        <path
   class="fil469"
   d="m 135,4357 c 28,0 52,9 52,21 0,11 -24,21 -52,21 -29,0 -53,-10 -53,-21 0,-12 24,-21 53,-21 z"
   id="path116143"
   style="fill:url(#id1405);fill-opacity:0.239216" />

        <path
   class="fil470"
   d="m 135,4357 c 27,0 50,9 50,21 0,11 -23,20 -50,20 -28,0 -51,-9 -51,-20 0,-12 23,-21 51,-21 z"
   id="path116145"
   style="fill:url(#id1594);fill-opacity:0.286275" />

        <path
   class="fil471"
   d="m 135,4358 c 26,0 48,9 48,20 0,10 -22,19 -48,19 -27,0 -49,-9 -49,-19 0,-11 22,-20 49,-20 z"
   id="path116147"
   style="fill:url(#id1755);fill-opacity:0.333333" />

        <path
   class="fil472"
   d="m 135,4359 c 25,0 46,8 46,19 0,10 -21,18 -46,18 -26,0 -47,-8 -47,-18 0,-11 21,-19 47,-19 z"
   id="path116149"
   style="fill:url(#id1940);fill-opacity:0.380392" />

        <path
   class="fil473"
   d="m 135,4360 c 24,0 44,8 44,18 0,9 -20,17 -44,17 -25,0 -45,-8 -45,-17 0,-10 20,-18 45,-18 z"
   id="path116151"
   style="fill:url(#id2112);fill-opacity:0.427451" />

        <path
   class="fil474"
   d="m 135,4361 c 23,0 42,7 42,17 0,9 -19,17 -42,17 -24,0 -43,-8 -43,-17 0,-10 19,-17 43,-17 z"
   id="path116153"
   style="fill:url(#id2325);fill-opacity:0.47451" />

        <path
   class="fil475"
   d="m 135,4361 c 22,0 40,8 40,17 0,9 -18,16 -40,16 -23,0 -41,-7 -41,-16 0,-9 18,-17 41,-17 z"
   id="path116155"
   style="fill:url(#id2505);fill-opacity:0.52549" />

        <path
   class="fil476"
   d="m 135,4362 c 21,0 38,7 38,16 0,8 -17,15 -38,15 -22,0 -39,-7 -39,-15 0,-9 17,-16 39,-16 z"
   id="path116157"
   style="fill:url(#id2665);fill-opacity:0.572549" />

        <path
   class="fil477"
   d="m 135,4363 c 20,0 36,6 36,15 0,8 -16,14 -36,14 -21,0 -37,-6 -37,-14 0,-9 16,-15 37,-15 z"
   id="path116159"
   style="fill:url(#id2845);fill-opacity:0.619608" />

        <path
   class="fil478"
   d="m 135,4364 c 19,0 34,6 34,14 0,7 -15,13 -34,13 -19,0 -35,-6 -35,-13 0,-8 16,-14 35,-14 z"
   id="path116161"
   style="fill:url(#id3036);fill-opacity:0.666667" />

        <path
   class="fil479"
   d="m 135,4365 c 18,0 32,5 32,13 0,7 -14,13 -32,13 -18,0 -33,-6 -33,-13 0,-8 15,-13 33,-13 z"
   id="path116163"
   style="fill:url(#id3246);fill-opacity:0.713725" />

        <path
   class="fil480"
   d="m 135,4365 c 16,0 30,6 30,13 0,6 -14,12 -30,12 -17,0 -31,-6 -31,-12 0,-7 14,-13 31,-13 z"
   id="path116165"
   style="fill:url(#id3397);fill-opacity:0.760784" />

        <path
   class="fil481"
   d="m 135,4366 c 15,0 28,5 28,12 0,6 -13,11 -28,11 -16,0 -29,-5 -29,-11 0,-7 13,-12 29,-12 z"
   id="path116167"
   style="fill:url(#id3586);fill-opacity:0.807843" />

        <path
   class="fil482"
   d="m 135,4367 c 14,0 26,5 26,11 0,6 -12,10 -26,10 -15,0 -27,-4 -27,-10 0,-6 12,-11 27,-11 z"
   id="path116169"
   style="fill:url(#id3803);fill-opacity:0.858824" />

        <path
   class="fil483"
   d="m 135,4368 c 13,0 24,4 24,10 0,5 -11,10 -24,10 -14,0 -25,-5 -25,-10 0,-6 11,-10 25,-10 z"
   id="path116171"
   style="fill:url(#id3958);fill-opacity:0.905882" />

        <path
   class="fil484"
   d="m 135,4368 c 12,0 22,5 22,10 0,5 -10,9 -22,9 -13,0 -23,-4 -23,-9 0,-5 10,-10 23,-10 z"
   id="path116173"
   style="fill:url(#id4134);fill-opacity:0.952941" />

       </g>

       <ellipse
   class="fil31"
   cx="135"
   cy="4378"
   rx="21"
   ry="8"
   id="ellipse116177"
   style="fill:#c0e04e" />

      </g>

     </g>

     <path
   class="fil32"
   d="m 104,4273 h 61 c 13,0 23,11 23,23 v 62 c 0,12 -10,22 -23,22 h -61 c -13,0 -23,-10 -23,-22 v -62 c 0,-12 10,-23 23,-23 z"
   id="path116183"
   style="fill:none" />

     <polygon
   class="fil6"
   points="78,4304 74,4304 78,4301 81,4297 82,4301 87,4301 96,4297 89,4303 82,4304 81,4308 "
   id="polygon116185"
   style="fill:#b3ff41" />

     <path
   class="fil33"
   d="m 105,4276 h 23 c -7,5 -14,12 -20,18 -6,-4 -12,-8 -18,-12 4,-4 9,-6 15,-6 z m 27,0 h 32 c 12,0 22,9 22,21 v 15 c -16,0 -34,2 -53,6 -6,-7 -13,-13 -20,-19 -1,-1 -2,-2 -4,-3 7,-8 14,-14 23,-20 z m -1,43 c -3,1 -7,1 -10,2 -13,4 -25,8 -36,13 6,-13 13,-25 22,-36 l 1,-1 c 1,1 3,2 4,3 7,6 13,12 19,19 z m -48,13 v -35 c 0,-5 2,-10 5,-13 7,3 13,7 19,12 l -1,1 c -9,11 -17,23 -23,35 z"
   id="path116187"
   style="fill:#ffffff;fill-opacity:0.301961" />

     <polygon
   class="fil34"
   points="142,4378 133,4381 148,4384 164,4380 156,4376 "
   id="polygon116189"
   style="fill:#5d9406" />

     <polygon
   class="fil34"
   points="78,4303 74,4304 78,4300 81,4295 82,4300 87,4299 96,4297 89,4301 82,4303 81,4307 "
   id="polygon116191"
   style="fill:#5d9406" />

    </g>

    <g
   id="g116213">
     <polygon
   class="fil0"
   points="59,4345 62,4345 62,4359 59,4357 "
   id="polygon116195"
   style="fill:#53381d" />

     <path
   class="fil0"
   d="m 67,4305 c 13,0 23,10 23,22 0,13 -10,23 -23,23 -3,0 -5,-1 -8,-2 v -42 c 3,-1 5,-1 8,-1 z"
   id="path116197"
   style="fill:#53381d" />

     <path
   class="fil1"
   d="m 67,4301 c 13,0 23,10 23,23 0,12 -10,22 -23,22 -3,0 -5,0 -8,-1 v -40 l 4,-3 v 0 c 1,-1 3,-1 4,-1 z"
   id="path116199"
   style="fill:#996633" />

     <path
   class="fil35"
   d="m 67,4301 c 13,0 23,10 23,23 0,12 -10,22 -23,22 -3,0 -5,0 -8,-1 v -1 c 3,1 5,2 8,2 12,0 22,-10 22,-22 0,-12 -10,-22 -22,-22 -1,0 -3,0 -4,0 v 0 l -4,3 v 0 l 4,-3 v 0 c 1,-1 3,-1 4,-1 z"
   id="path116201"
   style="fill:#ca9560" />

     <path
   class="fil2"
   d="m 64,4346 c 0,0 -1,0 -1,0 v -44 0 0 h 1 z"
   id="path116203"
   style="fill:#ca9560" />

     <polygon
   class="fil3"
   points="59,4305 63,4302 63,4346 59,4349 59,4345 59,4342 "
   id="polygon116205"
   style="fill:#af753b" />

     <polygon
   class="fil0"
   points="64,4349 62,4348 61,4352 "
   id="polygon116207"
   style="fill:#53381d" />

     <polygon
   class="fil35"
   points="59,4348 59,4349 63,4346 63,4345 "
   id="polygon116209"
   style="fill:#ca9560" />

     <polygon
   class="fil35"
   points="59,4305 63,4302 "
   id="polygon116211"
   style="fill:#ca9560" />

    </g>

    <g
   id="g116233">
     <polygon
   class="fil0"
   points="210,4345 207,4345 207,4359 210,4357 "
   id="polygon116215"
   style="fill:#53381d" />

     <path
   class="fil0"
   d="m 202,4305 c -12,0 -22,10 -22,22 0,13 10,23 22,23 3,0 6,-1 8,-2 v -42 c -2,-1 -5,-1 -8,-1 z"
   id="path116217"
   style="fill:#53381d" />

     <path
   class="fil1"
   d="m 202,4301 c -12,0 -22,10 -22,23 0,12 10,22 22,22 3,0 6,0 8,-1 v -40 l -4,-3 v 0 c -1,-1 -3,-1 -4,-1 z"
   id="path116219"
   style="fill:#996633" />

     <path
   class="fil35"
   d="m 202,4301 c -12,0 -22,10 -22,23 0,12 10,22 22,22 3,0 6,0 8,-1 v -1 c -2,1 -5,2 -8,2 -12,0 -22,-10 -22,-22 0,-12 10,-22 22,-22 2,0 3,0 4,0 v 0 l 4,3 v 0 l -4,-3 v 0 c -1,-1 -3,-1 -4,-1 z"
   id="path116221"
   style="fill:#ca9560" />

     <path
   class="fil2"
   d="m 205,4346 c 0,0 1,0 1,0 v -44 0 0 h -1 z"
   id="path116223"
   style="fill:#ca9560" />

     <polygon
   class="fil3"
   points="210,4305 206,4302 206,4346 210,4349 210,4345 210,4342 "
   id="polygon116225"
   style="fill:#af753b" />

     <polygon
   class="fil0"
   points="205,4349 207,4348 209,4352 "
   id="polygon116227"
   style="fill:#53381d" />

     <polygon
   class="fil35"
   points="210,4348 210,4349 206,4346 206,4345 "
   id="polygon116229"
   style="fill:#ca9560" />

     <polygon
   class="fil35"
   points="210,4305 206,4302 "
   id="polygon116231"
   style="fill:#ca9560" />

    </g>

   </g>

   <g
   id="g116243">
    <path
   class="fil6"
   d="m 140,4305 c 3,1 6,2 9,3 l 4,-4 c 1,-1 2,-1 3,0 l 5,6 c 1,0 1,2 0,2 l -4,5 c 2,2 3,5 3,8 h 7 c 1,0 2,1 2,2 v 8 c 0,1 -1,2 -2,2 h -7 c 0,3 -1,5 -3,8 l 5,4 c 0,1 0,2 0,3 l -6,6 c -1,1 -2,1 -3,0 l -4,-5 c -3,2 -5,3 -8,4 v 6 c 0,1 -1,2 -2,2 h -8 c -1,0 -2,-1 -2,-2 v -6 c -3,-1 -6,-2 -8,-3 l -5,4 c -1,1 -2,1 -3,0 l -5,-6 c -1,0 -1,-2 0,-2 l 4,-5 c -1,-2 -3,-5 -3,-8 h -7 c -1,0 -2,-1 -2,-2 v -8 c 0,-1 1,-2 2,-2 h 7 c 0,-3 1,-6 3,-8 l -5,-5 c 0,0 0,-2 0,-2 l 6,-6 c 1,-1 2,-1 3,0 l 4,5 c 3,-2 6,-3 8,-4 v -6 c 0,-1 1,-2 2,-2 h 8 c 2,0 2,1 2,2 z m -5,15 c 6,0 11,5 11,11 0,6 -5,11 -11,11 -7,0 -12,-5 -12,-11 0,-6 5,-11 12,-11 z"
   id="path116237"
   style="fill:#b3ff41" />

    <path
   class="fil125"
   d="m 140,4299 c 3,1 6,2 9,3 l 4,-4 c 1,-1 2,-1 3,0 l 5,6 c 1,0 1,1 1,1 v 0 5 h -4 l -1,1 c 2,2 3,5 3,8 h 7 c 1,0 2,1 2,2 v 8 c 0,1 -1,2 -2,2 h -7 c 0,3 -1,5 -3,8 l 5,4 c 0,1 0,2 0,2 v 0 4 h -3 l -3,3 c -1,1 -2,1 -3,0 l -2,-3 h -6 c -1,1 -3,1 -4,2 v 6 c 0,1 -1,2 -2,2 h -8 c -1,0 -2,-1 -2,-2 v -6 c -2,0 -4,-1 -5,-2 h -5 l -3,3 c -1,1 -2,1 -3,0 l -2,-3 h -4 v -4 c 0,0 0,-1 1,-1 l 4,-5 c -1,-2 -3,-5 -3,-8 h -7 c -1,0 -2,-1 -2,-2 v -8 c 0,-1 1,-2 2,-2 h 7 c 0,-3 1,-6 3,-8 l -1,-1 h -4 v -5 c 0,0 0,-1 0,-1 l 6,-6 c 1,-1 2,-1 3,0 l 4,5 c 3,-2 6,-3 8,-4 v -6 c 0,-1 1,-2 2,-2 h 8 c 2,0 2,1 2,2 z m -5,15 c 6,0 11,5 11,11 0,6 -5,11 -11,11 -7,0 -12,-5 -12,-11 0,-6 5,-11 12,-11 z"
   id="path116239"
   style="fill:#4b7507" />

    <path
   class="fil485"
   d="m 140,4304 c 3,1 6,2 9,3 l 4,-4 c 1,-1 2,-1 3,0 l 5,5 c 1,1 1,2 0,3 l -4,5 c 2,2 3,5 3,8 h 7 c 1,0 2,1 2,2 v 8 c 0,1 -1,2 -2,2 h -7 c 0,3 -1,5 -3,8 l 5,4 c 0,1 0,2 0,3 l -6,6 c -1,1 -2,1 -3,0 l -4,-5 c -3,2 -5,3 -8,4 v 6 c 0,1 -1,2 -2,2 h -8 c -1,0 -2,-1 -2,-2 v -6 c -3,-1 -6,-2 -8,-4 l -5,5 c -1,1 -2,1 -3,0 l -5,-6 c -1,0 -1,-2 0,-2 l 4,-5 c -1,-2 -3,-5 -3,-8 h -7 c -1,0 -2,-1 -2,-2 v -8 c 0,-1 1,-2 2,-2 h 7 c 0,-3 1,-6 3,-8 l -5,-5 c 0,0 0,-2 0,-2 l 6,-6 c 1,-1 2,-1 3,0 l 4,4 c 3,-1 6,-2 8,-3 v -6 c 0,-1 1,-2 2,-2 h 8 c 2,0 2,1 2,2 z m -5,15 c 6,0 11,5 11,11 0,6 -5,11 -11,11 -7,0 -12,-5 -12,-11 0,-6 5,-11 12,-11 z"
   id="path116241"
   style="fill:url(#id289)" />

   </g>

  </g>
  </g>
</svg>
