<?xml version="1.0" encoding="UTF-8" standalone="no"?>
<!-- Created with Inkscape (http://www.inkscape.org/) -->

<svg
   width="39.95208mm"
   height="40.216667mm"
   viewBox="0 0 39.95208 40.216667"
   version="1.1"
   id="svg57043"
   xmlns:inkscape="http://www.inkscape.org/namespaces/inkscape"
   xmlns:sodipodi="http://sodipodi.sourceforge.net/DTD/sodipodi-0.dtd"
   xmlns:xlink="http://www.w3.org/1999/xlink"
   xmlns="http://www.w3.org/2000/svg"
   xmlns:svg="http://www.w3.org/2000/svg">
  <sodipodi:namedview
     id="namedview57045"
     pagecolor="#505050"
     bordercolor="#eeeeee"
     borderopacity="1"
     inkscape:showpageshadow="0"
     inkscape:pageopacity="0"
     inkscape:pagecheckerboard="0"
     inkscape:deskcolor="#505050"
     inkscape:document-units="mm"
     showgrid="false" />
  <defs
     id="defs57040">
    <radialGradient
       id="id457"
       gradientUnits="userSpaceOnUse"
       gradientTransform="matrix(6.83717e-5,1.10307,-1.43798,0.0054527,5497,1553)"
       xlink:href="#id451"
       cx="1253.12"
       cy="2951.5801"
       r="46.994801"
       fx="1253.12"
       fy="2951.5801">
  </radialGradient>
    <radialGradient
       id="id451"
       gradientUnits="userSpaceOnUse"
       gradientTransform="matrix(6.83717e-5,1.10307,-1.43798,0.0054527,6238,2066)"
       cx="1253.12"
       cy="3466.95"
       r="46.994801"
       fx="1253.12"
       fy="3466.95">
   <stop
   offset="0"
   style="stop-opacity:1; stop-color:#C8FF00"
   id="stop14770" />

   <stop
   offset="0.85098"
   style="stop-opacity:1; stop-color:#AAD900"
   id="stop14772" />

   <stop
   offset="1"
   style="stop-opacity:1; stop-color:#8CB300"
   id="stop14774" />

  </radialGradient>
    <radialGradient
       id="id565"
       gradientUnits="userSpaceOnUse"
       gradientTransform="scale(1,0.999974)"
       xlink:href="#id548"
       cx="1253.12"
       cy="1747.63"
       r="53.460499"
       fx="1253.12"
       fy="1747.63">
  </radialGradient>
    <radialGradient
       id="id548"
       gradientUnits="userSpaceOnUse"
       gradientTransform="scale(1,0.999974)"
       cx="300.922"
       cy="4326.8398"
       r="53.460499"
       fx="300.922"
       fy="4326.8398">
   <stop
   offset="0"
   style="stop-opacity:1; stop-color:#E8FF1C"
   id="stop14935" />

   <stop
   offset="1"
   style="stop-opacity:1; stop-color:#C8FF00"
   id="stop14937" />

  </radialGradient>
    <clipPath
       id="id80">
      <path
   d="m 1222,2896 h 62 c 12,0 23,10 23,23 v 61 c 0,13 -11,23 -23,23 h -62 c -12,0 -22,-10 -22,-23 v -61 c 0,-13 10,-23 22,-23 z"
   id="path14059" />

     </clipPath>
    <linearGradient
       id="id685"
       gradientUnits="userSpaceOnUse"
       xlink:href="#id630"
       x1="796.9223"
       y1="4696.4946"
       x2="796.9223"
       y2="4685.0347"
       gradientTransform="scale(1.5748016,0.63500064)">
  </linearGradient>
    <linearGradient
       id="id630"
       gradientUnits="userSpaceOnUse"
       x1="302.923"
       y1="1781.73"
       x2="302.923"
       y2="1749.41">
   <stop
   offset="0"
   style="stop-opacity:1; stop-color:#C8FF00"
   id="stop15077" />

   <stop
   offset="1"
   style="stop-opacity:1; stop-color:#E8FF1C"
   id="stop15079" />

  </linearGradient>
    <linearGradient
       id="id834"
       gradientUnits="userSpaceOnUse"
       xlink:href="#id772"
       x1="1255.0601"
       y1="2983.0701"
       x2="1255.0601"
       y2="2951.78">
  </linearGradient>
    <linearGradient
       id="id772"
       gradientUnits="userSpaceOnUse"
       x1="302.85901"
       y1="1104.3"
       x2="302.85901"
       y2="1073.01">
   <stop
   offset="0"
   style="stop-opacity:1; stop-color:#CAFF03"
   id="stop15291" />

   <stop
   offset="1"
   style="stop-opacity:1; stop-color:#E8FF1E"
   id="stop15293" />

  </linearGradient>
    <linearGradient
       id="id1014"
       gradientUnits="userSpaceOnUse"
       xlink:href="#id874"
       x1="1254.99"
       y1="2983.6399"
       x2="1254.99"
       y2="2953.3701">
  </linearGradient>
    <linearGradient
       id="id874"
       gradientUnits="userSpaceOnUse"
       x1="302.79599"
       y1="4192.1802"
       x2="302.79599"
       y2="4161.9199">
   <stop
   offset="0"
   style="stop-opacity:1; stop-color:#CBFF06"
   id="stop15453" />

   <stop
   offset="1"
   style="stop-opacity:1; stop-color:#E8FF20"
   id="stop15455" />

  </linearGradient>
    <linearGradient
       id="id1169"
       gradientUnits="userSpaceOnUse"
       xlink:href="#id1076"
       x1="1254.9301"
       y1="2984.2"
       x2="1254.9301"
       y2="2954.97">
  </linearGradient>
    <linearGradient
       id="id1076"
       gradientUnits="userSpaceOnUse"
       x1="302.73199"
       y1="4361.54"
       x2="302.73199"
       y2="4332.3101">
   <stop
   offset="0"
   style="stop-opacity:1; stop-color:#CDFF0A"
   id="stop15731" />

   <stop
   offset="1"
   style="stop-opacity:1; stop-color:#E9FF22"
   id="stop15733" />

  </linearGradient>
    <linearGradient
       id="id1342"
       gradientUnits="userSpaceOnUse"
       xlink:href="#id1245"
       x1="1254.86"
       y1="2984.77"
       x2="1254.86"
       y2="2956.5601">
  </linearGradient>
    <linearGradient
       id="id1245"
       gradientUnits="userSpaceOnUse"
       x1="302.668"
       y1="3502.23"
       x2="302.668"
       y2="3474.02">
   <stop
   offset="0"
   style="stop-opacity:1; stop-color:#CFFF0D"
   id="stop15960" />

   <stop
   offset="1"
   style="stop-opacity:1; stop-color:#E9FF23"
   id="stop15962" />

  </linearGradient>
    <linearGradient
       id="id1494"
       gradientUnits="userSpaceOnUse"
       xlink:href="#id1407"
       x1="1254.8"
       y1="2985.3301"
       x2="1254.8"
       y2="2958.1499">
  </linearGradient>
    <linearGradient
       id="id1407"
       gradientUnits="userSpaceOnUse"
       x1="302.60501"
       y1="3849.3501"
       x2="302.60501"
       y2="3822.1699">
   <stop
   offset="0"
   style="stop-opacity:1; stop-color:#D1FF10"
   id="stop16186" />

   <stop
   offset="1"
   style="stop-opacity:1; stop-color:#E9FF25"
   id="stop16188" />

  </linearGradient>
    <linearGradient
       id="id1662"
       gradientUnits="userSpaceOnUse"
       xlink:href="#id1615"
       x1="1254.74"
       y1="2985.8999"
       x2="1254.74"
       y2="2959.74">
  </linearGradient>
    <linearGradient
       id="id1615"
       gradientUnits="userSpaceOnUse"
       x1="302.54099"
       y1="4363.2402"
       x2="302.54099"
       y2="4337.0898">
   <stop
   offset="0"
   style="stop-opacity:1; stop-color:#D2FF13"
   id="stop16474" />

   <stop
   offset="1"
   style="stop-opacity:1; stop-color:#E9FF27"
   id="stop16476" />

  </linearGradient>
    <linearGradient
       id="id1904"
       gradientUnits="userSpaceOnUse"
       xlink:href="#id1770"
       x1="1254.67"
       y1="2986.46"
       x2="1254.67"
       y2="2961.3401">
  </linearGradient>
    <linearGradient
       id="id1770"
       gradientUnits="userSpaceOnUse"
       x1="302.47699"
       y1="3670.5701"
       x2="302.47699"
       y2="3645.45">
   <stop
   offset="0"
   style="stop-opacity:1; stop-color:#D4FF16"
   id="stop16685" />

   <stop
   offset="1"
   style="stop-opacity:1; stop-color:#E9FF29"
   id="stop16687" />

  </linearGradient>
    <linearGradient
       id="id2073"
       gradientUnits="userSpaceOnUse"
       xlink:href="#id1955"
       x1="1254.61"
       y1="2987.02"
       x2="1254.61"
       y2="2962.9299">
  </linearGradient>
    <linearGradient
       id="id1955"
       gradientUnits="userSpaceOnUse"
       x1="302.414"
       y1="3851.04"
       x2="302.414"
       y2="3826.95">
   <stop
   offset="0"
   style="stop-opacity:1; stop-color:#D6FF1A"
   id="stop16942" />

   <stop
   offset="1"
   style="stop-opacity:1; stop-color:#EAFF2B"
   id="stop16944" />

  </linearGradient>
    <linearGradient
       id="id2238"
       gradientUnits="userSpaceOnUse"
       xlink:href="#id2134"
       x1="1254.55"
       y1="2987.5901"
       x2="1254.55"
       y2="2964.52">
  </linearGradient>
    <linearGradient
       id="id2134"
       gradientUnits="userSpaceOnUse"
       x1="302.35001"
       y1="4364.9302"
       x2="302.35001"
       y2="4341.8599">
   <stop
   offset="0"
   style="stop-opacity:1; stop-color:#D7FF1D"
   id="stop17185" />

   <stop
   offset="1"
   style="stop-opacity:1; stop-color:#EAFF2D"
   id="stop17187" />

  </linearGradient>
    <linearGradient
       id="id2470"
       gradientUnits="userSpaceOnUse"
       xlink:href="#id2342"
       x1="1254.48"
       y1="2988.1499"
       x2="1254.48"
       y2="2966.1101">
  </linearGradient>
    <linearGradient
       id="id2342"
       gradientUnits="userSpaceOnUse"
       x1="302.28699"
       y1="3672.27"
       x2="302.28699"
       y2="3650.23">
   <stop
   offset="0"
   style="stop-opacity:1; stop-color:#D9FF20"
   id="stop17465" />

   <stop
   offset="1"
   style="stop-opacity:1; stop-color:#EAFF2F"
   id="stop17467" />

  </linearGradient>
    <linearGradient
       id="id2650"
       gradientUnits="userSpaceOnUse"
       xlink:href="#id2524"
       x1="1254.42"
       y1="2988.72"
       x2="1254.42"
       y2="2967.7">
  </linearGradient>
    <linearGradient
       id="id2524"
       gradientUnits="userSpaceOnUse"
       x1="302.22299"
       y1="1109.95"
       x2="302.22299"
       y2="1088.9399">
   <stop
   offset="0"
   style="stop-opacity:1; stop-color:#DBFF23"
   id="stop17715" />

   <stop
   offset="1"
   style="stop-opacity:1; stop-color:#EAFF30"
   id="stop17717" />

  </linearGradient>
    <linearGradient
       id="id2835"
       gradientUnits="userSpaceOnUse"
       xlink:href="#id2683"
       x1="1254.36"
       y1="2989.28"
       x2="1254.36"
       y2="2969.3">
  </linearGradient>
    <linearGradient
       id="id2683"
       gradientUnits="userSpaceOnUse"
       x1="302.159"
       y1="3334.8899"
       x2="302.159"
       y2="3314.8999">
   <stop
   offset="0"
   style="stop-opacity:1; stop-color:#DDFF26"
   id="stop17942" />

   <stop
   offset="1"
   style="stop-opacity:1; stop-color:#EAFF32"
   id="stop17944" />

  </linearGradient>
    <linearGradient
       id="id2975"
       gradientUnits="userSpaceOnUse"
       xlink:href="#id2889"
       x1="1254.29"
       y1="2989.8501"
       x2="1254.29"
       y2="2970.8899">
  </linearGradient>
    <linearGradient
       id="id2889"
       gradientUnits="userSpaceOnUse"
       x1="302.09601"
       y1="754.776"
       x2="302.09601"
       y2="735.82001">
   <stop
   offset="0"
   style="stop-opacity:1; stop-color:#DEFF29"
   id="stop18208" />

   <stop
   offset="1"
   style="stop-opacity:1; stop-color:#EAFF34"
   id="stop18210" />

  </linearGradient>
    <linearGradient
       id="id3189"
       gradientUnits="userSpaceOnUse"
       xlink:href="#id3061"
       x1="1254.23"
       y1="2990.4099"
       x2="1254.23"
       y2="2972.48">
  </linearGradient>
    <linearGradient
       id="id3061"
       gradientUnits="userSpaceOnUse"
       x1="302.03201"
       y1="4367.75"
       x2="302.03201"
       y2="4349.8198">
   <stop
   offset="0"
   style="stop-opacity:1; stop-color:#E0FF2D"
   id="stop18456" />

   <stop
   offset="1"
   style="stop-opacity:1; stop-color:#EBFF36"
   id="stop18458" />

  </linearGradient>
    <linearGradient
       id="id3373"
       gradientUnits="userSpaceOnUse"
       xlink:href="#id3211"
       x1="1254.16"
       y1="2990.98"
       x2="1254.16"
       y2="2974.0701">
  </linearGradient>
    <linearGradient
       id="id3211"
       gradientUnits="objectBoundingBox"
       x1="0.51608801"
       y1="0.145529"
       x2="0.51608801"
       y2="0">
   <stop
   offset="0"
   style="stop-opacity:1; stop-color:#E2FF30"
   id="stop18654" />

   <stop
   offset="1"
   style="stop-opacity:1; stop-color:#EBFF38"
   id="stop18656" />

  </linearGradient>
    <linearGradient
       id="id3533"
       gradientUnits="userSpaceOnUse"
       xlink:href="#id3418"
       x1="1254.1"
       y1="2991.54"
       x2="1254.1"
       y2="2975.6699">
  </linearGradient>
    <linearGradient
       id="id3418"
       gradientUnits="userSpaceOnUse"
       x1="301.905"
       y1="1281.5"
       x2="301.905"
       y2="1265.63">
   <stop
   offset="0"
   style="stop-opacity:1; stop-color:#E3FF33"
   id="stop18929" />

   <stop
   offset="1"
   style="stop-opacity:1; stop-color:#EBFF3A"
   id="stop18931" />

  </linearGradient>
    <linearGradient
       id="id3732"
       gradientUnits="userSpaceOnUse"
       xlink:href="#id3625"
       x1="1254.04"
       y1="2992.1001"
       x2="1254.04"
       y2="2977.26">
  </linearGradient>
    <linearGradient
       id="id3625"
       gradientUnits="userSpaceOnUse"
       x1="301.841"
       y1="1623.21"
       x2="301.841"
       y2="1608.36">
   <stop
   offset="0"
   style="stop-opacity:1; stop-color:#E5FF36"
   id="stop19208" />

   <stop
   offset="1"
   style="stop-opacity:1; stop-color:#EBFF3C"
   id="stop19210" />

  </linearGradient>
    <linearGradient
       id="id3919"
       gradientUnits="userSpaceOnUse"
       xlink:href="#id3776"
       x1="1253.97"
       y1="2992.6699"
       x2="1253.97"
       y2="2978.8501">
  </linearGradient>
    <linearGradient
       id="id3776"
       gradientUnits="userSpaceOnUse"
       x1="699.88397"
       y1="393.72101"
       x2="699.88397"
       y2="379.90399">
   <stop
   offset="0"
   style="stop-opacity:1; stop-color:#E7FF39"
   id="stop19427" />

   <stop
   offset="1"
   style="stop-opacity:1; stop-color:#EBFF3D"
   id="stop19429" />

  </linearGradient>
    <linearGradient
       id="id4084"
       gradientUnits="userSpaceOnUse"
       xlink:href="#id3936"
       x1="1253.91"
       y1="2993.23"
       x2="1253.91"
       y2="2980.4399">
  </linearGradient>
    <linearGradient
       id="id3936"
       gradientUnits="userSpaceOnUse"
       x1="699.73901"
       y1="220.87"
       x2="699.73901"
       y2="208.08">
   <stop
   offset="0"
   style="stop-opacity:1; stop-color:#E9FF3D"
   id="stop19635" />

   <stop
   offset="1"
   style="stop-opacity:1; stop-color:#ECFF3F"
   id="stop19637" />

  </linearGradient>
    <linearGradient
       id="id4277"
       gradientUnits="userSpaceOnUse"
       xlink:href="#id4173"
       x1="1253.85"
       y1="2993.8"
       x2="1253.85"
       y2="2982.04">
  </linearGradient>
    <linearGradient
       id="id4173"
       gradientUnits="userSpaceOnUse"
       x1="301.64999"
       y1="941.09302"
       x2="301.64999"
       y2="929.33197">
   <stop
   offset="0"
   style="stop-opacity:1; stop-color:#EAFF40"
   id="stop19948" />

   <stop
   offset="1"
   style="stop-opacity:1; stop-color:#ECFF41"
   id="stop19950" />

  </linearGradient>
    <linearGradient
       id="id371"
       gradientUnits="userSpaceOnUse"
       xlink:href="#id199"
       x1="1255.01"
       y1="2921.29"
       x2="1255.01"
       y2="3000.6201">
  </linearGradient>
    <linearGradient
       id="id199"
       gradientUnits="userSpaceOnUse"
       x1="301.76001"
       y1="1729.27"
       x2="301.76999"
       y2="1819.28">
   <stop
   offset="0"
   style="stop-opacity:1; stop-color:#8EB900"
   id="stop14408" />

   <stop
   offset="1"
   style="stop-opacity:1; stop-color:#C0FB00"
   id="stop14410" />

  </linearGradient>
  </defs>
  <g
     inkscape:label="Capa 1"
     inkscape:groupmode="layer"
     id="layer1"
     transform="translate(-44.959825,-73.589811)">
    <g
       id="_943003120"
       style="clip-rule:evenodd;fill-rule:evenodd;image-rendering:optimizeQuality;shape-rendering:geometricPrecision;text-rendering:geometricPrecision"
       transform="matrix(-0.26458333,0,0,0.26458333,396.59107,-688.14559)">
   <g
   id="g33385">
    <rect
   class="fil0"
   x="1180"
   y="2885"
   width="146"
   height="146"
   rx="31"
   ry="31"
   id="rect33375"
   style="fill:#53381d" />

    <rect
   class="fil1"
   x="1180"
   y="2879"
   width="146"
   height="146"
   rx="31"
   ry="31"
   id="rect33377"
   style="fill:#996633" />

    <rect
   class="fil2"
   x="1183"
   y="2881"
   width="141"
   height="141"
   rx="30"
   ry="30"
   id="rect33379"
   style="fill:#ca9560" />

    <rect
   class="fil3"
   x="1183"
   y="2882"
   width="140"
   height="140"
   rx="30"
   ry="30"
   id="rect33381"
   style="fill:#af753b" />

    <rect
   class="fil0"
   x="1187"
   y="2886"
   width="131"
   height="131"
   rx="28"
   ry="28"
   id="rect33383"
   style="fill:#53381d" />

   </g>

   <path
   class="fil1034"
   d="m 1213,2882 h 80 c 17,0 30,13 30,29 v 81 c 0,16 -13,30 -30,30 h -80 c -16,0 -30,-14 -30,-30 v -81 c 0,-16 14,-29 30,-29 z"
   id="path33387"
   style="fill:#ffff00;fill-opacity:0" />

   <g
   id="g33449">
    <path
   class="fil1035"
   d="m 1213,2882 c 27,0 53,0 80,0 16,0 30,13 30,30 0,26 0,53 0,79 0,17 -14,30 -30,30 -27,0 -53,0 -80,0 -16,0 -29,-13 -29,-30 0,-26 0,-53 0,-79 0,-17 13,-30 29,-30 z"
   id="path33389"
   style="fill:#ffff08;fill-opacity:0.031373" />

    <path
   class="fil1036"
   d="m 1214,2883 c 26,0 52,0 79,0 16,0 29,13 29,29 0,26 0,53 0,79 0,16 -13,29 -29,29 -27,0 -53,0 -79,0 -17,0 -30,-13 -30,-29 0,-26 0,-53 0,-79 0,-16 13,-29 30,-29 z"
   id="path33391"
   style="fill:#ffff10;fill-opacity:0.062745" />

    <path
   class="fil1037"
   d="m 1214,2883 c 26,0 52,0 78,0 16,0 29,13 29,29 0,26 0,53 0,79 0,16 -13,29 -29,29 -26,0 -52,0 -78,0 -16,0 -29,-13 -29,-29 0,-26 0,-53 0,-79 0,-16 13,-29 29,-29 z"
   id="path33393"
   style="fill:#ffff19;fill-opacity:0.098039" />

    <path
   class="fil1038"
   d="m 1214,2884 c 26,0 52,0 78,0 16,0 29,13 29,29 0,26 0,52 0,77 0,16 -13,29 -29,29 -26,0 -52,0 -78,0 -16,0 -29,-13 -29,-29 0,-25 0,-51 0,-77 0,-16 13,-29 29,-29 z"
   id="path33395"
   style="fill:#ffff21;fill-opacity:0.129412" />

    <path
   class="fil1039"
   d="m 1215,2884 c 25,0 51,0 77,0 15,0 28,13 28,29 0,26 0,51 0,77 0,16 -13,29 -28,29 -26,0 -52,0 -77,0 -16,0 -29,-13 -29,-29 0,-26 0,-51 0,-77 0,-16 13,-29 29,-29 z"
   id="path33397"
   style="fill:#ffff29;fill-opacity:0.160784" />

    <path
   class="fil1040"
   d="m 1215,2885 c 25,0 51,0 76,0 16,0 29,13 29,28 0,26 0,51 0,77 0,15 -13,28 -29,28 -25,0 -51,0 -76,0 -16,0 -28,-13 -28,-28 0,-26 0,-51 0,-77 0,-15 12,-28 28,-28 z"
   id="path33399"
   style="fill:#ffff31;fill-opacity:0.192157" />

    <path
   class="fil1041"
   d="m 1215,2886 c 25,0 51,0 76,0 15,0 28,12 28,28 0,25 0,50 0,76 0,15 -13,28 -28,28 -25,0 -51,0 -76,0 -15,0 -28,-13 -28,-28 0,-26 0,-51 0,-76 0,-16 13,-28 28,-28 z"
   id="path33401"
   style="fill:#ffff3a;fill-opacity:0.227451" />

    <path
   class="fil1042"
   d="m 1216,2886 c 25,0 50,0 75,0 15,0 28,13 28,28 0,25 0,50 0,75 0,15 -13,28 -28,28 -25,0 -50,0 -75,0 -16,0 -28,-13 -28,-28 0,-25 0,-50 0,-75 0,-15 12,-28 28,-28 z"
   id="path33403"
   style="fill:#ffff42;fill-opacity:0.258824" />

    <path
   class="fil1043"
   d="m 1216,2887 c 25,0 50,0 74,0 16,0 28,12 28,27 0,25 0,50 0,75 0,15 -12,27 -28,27 -24,0 -49,0 -74,0 -15,0 -28,-12 -28,-27 0,-25 0,-50 0,-75 0,-15 13,-27 28,-27 z"
   id="path33405"
   style="fill:#ffff4a;fill-opacity:0.290196" />

    <path
   class="fil1044"
   d="m 1216,2887 c 25,0 49,0 74,0 15,0 27,13 27,28 0,24 0,49 0,74 0,15 -12,27 -27,27 -25,0 -49,0 -74,0 -15,0 -27,-12 -27,-27 0,-25 0,-50 0,-74 0,-15 12,-28 27,-28 z"
   id="path33407"
   style="fill:#ffff52;fill-opacity:0.321569" />

    <path
   class="fil1045"
   d="m 1216,2888 c 25,0 49,0 74,0 15,0 27,12 27,27 0,24 0,49 0,73 0,15 -12,27 -27,27 -25,0 -49,0 -74,0 -14,0 -27,-12 -27,-27 0,-24 0,-49 0,-73 0,-15 13,-27 27,-27 z"
   id="path33409"
   style="fill:#ffff5a;fill-opacity:0.352941" />

    <path
   class="fil1046"
   d="m 1217,2888 c 24,0 48,0 72,0 15,0 27,13 27,27 0,24 0,49 0,73 0,15 -12,27 -27,27 -24,0 -48,0 -72,0 -15,0 -27,-12 -27,-27 0,-24 0,-49 0,-73 0,-14 12,-27 27,-27 z"
   id="path33411"
   style="fill:#ffff63;fill-opacity:0.388235" />

    <path
   class="fil1047"
   d="m 1217,2889 c 24,0 48,0 72,0 15,0 27,12 27,27 0,24 0,48 0,72 0,14 -12,26 -27,26 -24,0 -48,0 -72,0 -15,0 -26,-12 -26,-26 0,-24 0,-48 0,-72 0,-15 11,-27 26,-27 z"
   id="path33413"
   style="fill:#ffff6b;fill-opacity:0.419608" />

    <path
   class="fil1048"
   d="m 1217,2890 c 24,0 48,0 72,0 14,0 26,11 26,26 0,24 0,47 0,71 0,15 -12,27 -26,27 -24,0 -48,0 -72,0 -14,0 -26,-12 -26,-27 0,-24 0,-47 0,-71 0,-15 12,-26 26,-26 z"
   id="path33415"
   style="fill:#ffff73;fill-opacity:0.45098" />

    <path
   class="fil1049"
   d="m 1218,2890 c 23,0 47,0 70,0 15,0 27,12 27,26 0,24 0,47 0,71 0,14 -12,26 -27,26 -23,0 -47,0 -70,0 -15,0 -26,-12 -26,-26 0,-24 0,-47 0,-71 0,-14 11,-26 26,-26 z"
   id="path33417"
   style="fill:#ffff7b;fill-opacity:0.482353" />

    <path
   class="fil1050"
   d="m 1218,2891 c 23,0 47,0 70,0 14,0 26,11 26,26 0,23 0,46 0,70 0,14 -12,25 -26,25 -23,0 -47,0 -70,0 -14,0 -26,-11 -26,-25 0,-24 0,-47 0,-70 0,-15 12,-26 26,-26 z"
   id="path33419"
   style="fill:#ffff84;fill-opacity:0.517647" />

    <path
   class="fil1051"
   d="m 1218,2891 c 24,0 47,0 70,0 14,0 25,12 25,26 0,23 0,46 0,69 0,14 -11,26 -25,26 -23,0 -46,0 -70,0 -14,0 -25,-12 -25,-26 0,-23 0,-46 0,-69 0,-14 11,-26 25,-26 z"
   id="path33421"
   style="fill:#ffff8c;fill-opacity:0.54902" />

    <path
   class="fil1052"
   d="m 1219,2892 c 23,0 46,0 68,0 14,0 26,11 26,25 0,23 0,46 0,69 0,14 -12,25 -26,25 -22,0 -45,0 -68,0 -14,0 -26,-11 -26,-25 0,-23 0,-46 0,-69 0,-14 12,-25 26,-25 z"
   id="path33423"
   style="fill:#ffff94;fill-opacity:0.580392" />

    <path
   class="fil1053"
   d="m 1219,2892 c 23,0 45,0 68,0 14,0 25,12 25,26 0,22 0,45 0,68 0,13 -11,25 -25,25 -23,0 -45,0 -68,0 -14,0 -25,-12 -25,-25 0,-23 0,-46 0,-68 0,-14 11,-26 25,-26 z"
   id="path33425"
   style="fill:#ffff9c;fill-opacity:0.611765" />

    <path
   class="fil1054"
   d="m 1219,2893 c 23,0 45,0 68,0 14,0 25,11 25,25 0,22 0,45 0,67 0,14 -11,25 -25,25 -23,0 -45,0 -68,0 -13,0 -25,-11 -25,-25 0,-22 0,-45 0,-67 0,-14 12,-25 25,-25 z"
   id="path33427"
   style="fill:#ffffa5;fill-opacity:0.647059" />

    <path
   class="fil1055"
   d="m 1220,2894 c 22,0 44,0 66,0 14,0 25,11 25,24 0,22 0,45 0,67 0,14 -11,25 -25,25 -22,0 -44,0 -66,0 -14,0 -25,-11 -25,-25 0,-22 0,-45 0,-67 0,-13 11,-24 25,-24 z"
   id="path33429"
   style="fill:#ffffad;fill-opacity:0.678431" />

    <path
   class="fil1056"
   d="m 1220,2894 c 22,0 44,0 66,0 14,0 25,11 25,25 0,22 0,44 0,66 0,13 -11,24 -25,24 -22,0 -44,0 -66,0 -13,0 -24,-11 -24,-24 0,-22 0,-44 0,-66 0,-14 11,-25 24,-25 z"
   id="path33431"
   style="fill:#ffffb5;fill-opacity:0.709804" />

    <path
   class="fil1057"
   d="m 1220,2895 c 22,0 44,0 66,0 13,0 24,11 24,24 0,22 0,43 0,65 0,14 -11,25 -24,25 -22,0 -44,0 -66,0 -13,0 -24,-11 -24,-25 0,-22 0,-43 0,-65 0,-13 11,-24 24,-24 z"
   id="path33433"
   style="fill:#ffffbd;fill-opacity:0.741176" />

    <path
   class="fil1058"
   d="m 1221,2895 c 21,0 43,0 65,0 13,0 23,11 23,24 0,22 0,43 0,65 0,13 -10,24 -23,24 -22,0 -44,0 -65,0 -13,0 -24,-11 -24,-24 0,-22 0,-43 0,-65 0,-13 11,-24 24,-24 z"
   id="path33435"
   style="fill:#ffffc5;fill-opacity:0.772549" />

    <path
   class="fil1059"
   d="m 1221,2896 c 21,0 43,0 64,0 13,0 24,10 24,24 0,21 0,42 0,64 0,13 -11,23 -24,23 -21,0 -43,0 -64,0 -13,0 -24,-10 -24,-23 0,-22 0,-43 0,-64 0,-14 11,-24 24,-24 z"
   id="path33437"
   style="fill:#ffffce;fill-opacity:0.807843" />

    <path
   class="fil1060"
   d="m 1221,2896 c 22,0 43,0 64,0 13,0 23,11 23,24 0,21 0,42 0,63 0,13 -10,24 -23,24 -21,0 -42,0 -64,0 -13,0 -23,-11 -23,-24 0,-21 0,-42 0,-63 0,-13 10,-24 23,-24 z"
   id="path33439"
   style="fill:#ffffd6;fill-opacity:0.839216" />

    <path
   class="fil1061"
   d="m 1222,2897 c 21,0 42,0 63,0 12,0 23,10 23,23 0,21 0,42 0,63 0,13 -11,23 -23,23 -21,0 -42,0 -63,0 -13,0 -24,-10 -24,-23 0,-21 0,-42 0,-63 0,-13 11,-23 24,-23 z"
   id="path33441"
   style="fill:#ffffde;fill-opacity:0.870588" />

    <path
   class="fil1062"
   d="m 1222,2897 c 21,0 41,0 62,0 13,0 23,11 23,23 0,21 0,42 0,63 0,12 -10,23 -23,23 -21,0 -41,0 -62,0 -13,0 -23,-11 -23,-23 0,-21 0,-42 0,-63 0,-12 10,-23 23,-23 z"
   id="path33443"
   style="fill:#ffffe6;fill-opacity:0.901961" />

    <path
   class="fil1063"
   d="m 1222,2898 c 21,0 41,0 62,0 12,0 23,10 23,23 0,20 0,41 0,61 0,13 -11,23 -23,23 -21,0 -41,0 -62,0 -12,0 -22,-10 -22,-23 0,-20 0,-41 0,-61 0,-13 10,-23 22,-23 z"
   id="path33445"
   style="fill:#ffffef;fill-opacity:0.937255" />

    <path
   class="fil1064"
   d="m 1223,2899 c 20,0 40,0 61,0 12,0 22,10 22,22 0,20 0,41 0,61 0,12 -10,23 -22,23 -21,0 -41,0 -61,0 -13,0 -23,-11 -23,-23 0,-20 0,-41 0,-61 0,-12 10,-22 23,-22 z"
   id="path33447"
   style="fill:#fffff7;fill-opacity:0.968627" />

   </g>

   <rect
   class="fil1031"
   x="1201"
   y="2899"
   width="105"
   height="105"
   rx="22"
   ry="22"
   id="rect33451"
   style="fill:#ffffff" />

   <g
   id="g33525">
    <rect
   class="fil1065"
   x="1190"
   y="2888"
   width="127"
   height="127"
   rx="27"
   ry="27"
   id="rect33453"
   style="fill:#ffff00" />

    <rect
   class="fil1832"
   x="1191"
   y="2890"
   width="123"
   height="123"
   rx="26"
   ry="26"
   id="rect33455"
   style="fill:url(#id457)" />

    <polygon
   class="fil1005"
   points="1283,3004 1275,3000 1260,3002 1250,3004 1266,3008 "
   id="polygon33457"
   style="fill:#ffffff" />

    <path
   class="fil7"
   d="m 1288,2890 c 14,0 25,11 26,24 l -61,38 -57,-50 c -2,4 -4,9 -4,14 l 61,36 -51,-56 c 4,-3 10,-6 16,-6 l 35,62 z"
   id="path33459"
   style="fill:#ffffff;fill-opacity:0.2" />

    <path
   class="fil1006"
   d="m 1222,2895 h 62 c 6,0 12,3 17,7 4,4 6,10 6,17 v 61 c 0,7 -2,13 -6,17 -5,4 -11,7 -17,7 h -62 c -6,0 -12,-3 -16,-7 -5,-4 -7,-10 -7,-17 v -61 c 0,-7 2,-13 7,-17 4,-4 10,-7 16,-7 z m 62,2 h -62 c -6,0 -11,2 -15,6 -4,4 -6,10 -6,16 v 61 c 0,6 2,12 6,16 4,4 9,6 15,6 h 62 c 6,0 11,-2 15,-6 4,-4 7,-10 7,-16 v -61 c 0,-6 -3,-12 -7,-16 -4,-4 -9,-6 -15,-6 z"
   id="path33461"
   style="fill:#ffffff;fill-rule:nonzero" />

    <path
   class="fil1673"
   d="m 1222,2896 h 62 c 12,0 23,10 23,23 v 61 c 0,13 -11,23 -23,23 h -62 c -12,0 -22,-10 -22,-23 v -61 c 0,-13 10,-23 22,-23 z"
   id="path33463"
   style="fill:url(#id565)" />

    <g
   clip-path="url(#id80)"
   id="g33513">
     <g
   id="g33511">
      <path
   id="path33465"
   class="fil1542"
   d="m 1253,2975 c 34,0 62,11 62,25 0,14 -28,25 -62,25 -34,0 -62,-11 -62,-25 0,-14 28,-25 62,-25 z"
   style="fill:url(#id685);fill-opacity:0" />

      <g
   id="g33507">
       <path
   class="fil1833"
   d="m 1253,2976 c 33,0 60,11 60,24 0,14 -27,24 -60,24 -33,0 -60,-10 -60,-24 0,-13 27,-24 60,-24 z"
   id="path33467"
   style="fill:url(#id834);fill-opacity:0.047059" />

       <path
   class="fil1834"
   d="m 1253,2977 c 32,0 58,10 58,23 0,13 -26,24 -58,24 -32,0 -58,-11 -58,-24 0,-13 26,-23 58,-23 z"
   id="path33469"
   style="fill:url(#id1014);fill-opacity:0.094118" />

       <path
   class="fil1835"
   d="m 1253,2978 c 31,0 56,10 56,22 0,13 -25,23 -56,23 -31,0 -56,-10 -56,-23 0,-12 25,-22 56,-22 z"
   id="path33471"
   style="fill:url(#id1169);fill-opacity:0.141176" />

       <path
   class="fil1836"
   d="m 1253,2978 c 30,0 54,10 54,22 0,12 -24,22 -54,22 -30,0 -54,-10 -54,-22 0,-12 24,-22 54,-22 z"
   id="path33473"
   style="fill:url(#id1342);fill-opacity:0.192157" />

       <path
   class="fil1837"
   d="m 1253,2979 c 29,0 52,10 52,21 0,12 -23,21 -52,21 -29,0 -52,-9 -52,-21 0,-11 23,-21 52,-21 z"
   id="path33475"
   style="fill:url(#id1494);fill-opacity:0.239216" />

       <path
   class="fil1838"
   d="m 1253,2980 c 28,0 50,9 50,20 0,11 -22,21 -50,21 -28,0 -50,-10 -50,-21 0,-11 22,-20 50,-20 z"
   id="path33477"
   style="fill:url(#id1662);fill-opacity:0.286275" />

       <path
   class="fil1839"
   d="m 1253,2981 c 27,0 48,9 48,19 0,11 -21,20 -48,20 -27,0 -48,-9 -48,-20 0,-10 21,-19 48,-19 z"
   id="path33479"
   style="fill:url(#id1904);fill-opacity:0.333333" />

       <path
   class="fil1840"
   d="m 1253,2982 c 26,0 46,8 46,18 0,11 -20,19 -46,19 -25,0 -46,-8 -46,-19 0,-10 21,-18 46,-18 z"
   id="path33481"
   style="fill:url(#id2073);fill-opacity:0.380392" />

       <path
   class="fil1841"
   d="m 1253,2982 c 25,0 45,8 45,18 0,10 -20,18 -45,18 -24,0 -44,-8 -44,-18 0,-10 20,-18 44,-18 z"
   id="path33483"
   style="fill:url(#id2238);fill-opacity:0.427451" />

       <path
   class="fil1842"
   d="m 1253,2983 c 24,0 43,8 43,17 0,10 -19,17 -43,17 -23,0 -42,-7 -42,-17 0,-9 19,-17 42,-17 z"
   id="path33485"
   style="fill:url(#id2470);fill-opacity:0.47451" />

       <path
   class="fil1843"
   d="m 1253,2984 c 22,0 41,7 41,16 0,9 -19,17 -41,17 -22,0 -40,-8 -40,-17 0,-9 18,-16 40,-16 z"
   id="path33487"
   style="fill:url(#id2650);fill-opacity:0.52549" />

       <path
   class="fil1844"
   d="m 1253,2985 c 21,0 39,7 39,15 0,9 -18,16 -39,16 -21,0 -38,-7 -38,-16 0,-8 17,-15 38,-15 z"
   id="path33489"
   style="fill:url(#id2835);fill-opacity:0.572549" />

       <path
   class="fil1845"
   d="m 1253,2986 c 20,0 37,6 37,14 0,8 -17,15 -37,15 -20,0 -36,-7 -36,-15 0,-8 16,-14 36,-14 z"
   id="path33491"
   style="fill:url(#id2975);fill-opacity:0.619608" />

       <path
   class="fil1846"
   d="m 1253,2986 c 19,0 35,7 35,14 0,8 -16,14 -35,14 -19,0 -34,-6 -34,-14 0,-7 15,-14 34,-14 z"
   id="path33493"
   style="fill:url(#id3189);fill-opacity:0.666667" />

       <path
   class="fil1847"
   d="m 1253,2987 c 18,0 33,6 33,13 0,7 -15,13 -33,13 -18,0 -32,-6 -32,-13 0,-7 14,-13 32,-13 z"
   id="path33495"
   style="fill:url(#id3373);fill-opacity:0.713725" />

       <path
   class="fil1848"
   d="m 1253,2988 c 17,0 31,5 31,12 0,7 -14,13 -31,13 -17,0 -30,-6 -30,-13 0,-7 13,-12 30,-12 z"
   id="path33497"
   style="fill:url(#id3533);fill-opacity:0.760784" />

       <path
   class="fil1849"
   d="m 1253,2989 c 16,0 29,5 29,11 0,7 -13,12 -29,12 -16,0 -28,-5 -28,-12 0,-6 12,-11 28,-11 z"
   id="path33499"
   style="fill:url(#id3732);fill-opacity:0.807843" />

       <path
   class="fil1850"
   d="m 1253,2990 c 15,0 27,4 27,10 0,6 -12,11 -27,11 -15,0 -26,-5 -26,-11 0,-6 11,-10 26,-10 z"
   id="path33501"
   style="fill:url(#id3919);fill-opacity:0.858824" />

       <path
   class="fil1851"
   d="m 1253,2990 c 14,0 25,5 25,10 0,6 -11,10 -25,10 -13,0 -24,-4 -24,-10 0,-5 11,-10 24,-10 z"
   id="path33503"
   style="fill:url(#id4084);fill-opacity:0.905882" />

       <path
   class="fil1852"
   d="m 1253,2991 c 13,0 23,4 23,9 0,5 -10,9 -23,9 -12,0 -23,-4 -23,-9 0,-5 11,-9 23,-9 z"
   id="path33505"
   style="fill:url(#id4277);fill-opacity:0.952941" />

      </g>

      <ellipse
   class="fil1089"
   cx="1253"
   cy="3000"
   rx="21"
   ry="8"
   id="ellipse33509"
   style="fill:#ecff43" />

     </g>

    </g>

    <path
   class="fil32"
   d="m 1222,2896 h 62 c 12,0 23,10 23,23 v 61 c 0,13 -11,23 -23,23 h -62 c -12,0 -22,-10 -22,-23 v -61 c 0,-13 10,-23 22,-23 z"
   id="path33515"
   style="fill:none" />

    <polygon
   class="fil1005"
   points="1199,2919 1201,2923 1206,2923 1214,2919 1207,2925 1200,2927 1200,2931 1197,2927 1192,2927 1197,2924 "
   id="polygon33517"
   style="fill:#ffffff" />

    <path
   class="fil33"
   d="m 1224,2898 h 23 c -8,6 -15,12 -21,19 -5,-4 -11,-9 -18,-12 4,-4 10,-7 16,-7 z m 26,0 h 33 c 12,0 21,10 21,22 v 14 c -15,0 -33,3 -52,7 -6,-7 -13,-14 -20,-20 -2,-1 -3,-2 -4,-3 6,-7 14,-14 22,-20 z m 0,43 c -4,1 -7,2 -11,3 -12,4 -25,8 -36,13 6,-13 14,-25 23,-36 l 1,-1 c 1,1 2,2 3,3 7,6 14,12 20,18 z m -48,14 v -35 c 0,-5 2,-10 5,-14 6,4 12,8 18,13 h -1 c -9,11 -16,23 -22,36 z"
   id="path33519"
   style="fill:#ffffff;fill-opacity:0.301961" />

    <polygon
   class="fil1090"
   points="1283,3003 1275,2999 1260,3001 1251,3004 1266,3007 "
   id="polygon33521"
   style="fill:#8cb300" />

    <polygon
   class="fil1090"
   points="1199,2918 1201,2922 1206,2922 1214,2919 1207,2924 1200,2926 1200,2930 1197,2926 1192,2927 1197,2922 "
   id="polygon33523"
   style="fill:#8cb300" />

   </g>

   <g
   id="g33545">
    <polygon
   class="fil0"
   points="1178,2979 1178,2967 1180,2967 1180,2981 "
   id="polygon33527"
   style="fill:#53381d" />

    <path
   class="fil0"
   d="m 1186,2927 c 12,0 22,10 22,23 0,12 -10,22 -22,22 -3,0 -6,0 -8,-1 v -42 c 2,-1 5,-2 8,-2 z"
   id="path33529"
   style="fill:#53381d" />

    <path
   class="fil1"
   d="m 1186,2924 c 12,0 22,10 22,22 0,13 -10,23 -22,23 -3,0 -6,-1 -8,-2 v -40 l 4,-3 v 0 c 1,0 2,0 4,0 z"
   id="path33531"
   style="fill:#996633" />

    <path
   class="fil2"
   d="m 1186,2924 c 12,0 22,10 22,22 0,13 -10,23 -22,23 -3,0 -6,-1 -8,-2 v 0 c 2,1 5,1 7,1 13,0 23,-10 23,-22 0,-12 -10,-21 -23,-21 -1,0 -2,0 -4,0 h 1 l -4,3 v -1 l 4,-3 v 0 c 1,0 2,0 4,0 z"
   id="path33533"
   style="fill:#ca9560" />

    <path
   class="fil2"
   d="m 1183,2969 c -1,0 -1,0 -1,0 v -45 0 0 h 1 z"
   id="path33535"
   style="fill:#ca9560" />

    <polygon
   class="fil3"
   points="1178,2972 1178,2967 1178,2965 1178,2927 1182,2924 1182,2969 "
   id="polygon33537"
   style="fill:#af753b" />

    <polygon
   class="fil0"
   points="1183,2972 1180,2970 1179,2975 "
   id="polygon33539"
   style="fill:#53381d" />

    <polygon
   class="fil2"
   points="1182,2968 1178,2971 1178,2972 1182,2969 "
   id="polygon33541"
   style="fill:#ca9560" />

    <polygon
   class="fil2"
   points="1182,2924 1178,2927 1178,2928 1182,2925 "
   id="polygon33543"
   style="fill:#ca9560" />

   </g>

   <g
   id="g33565">
    <polygon
   class="fil0"
   points="1329,2979 1329,2967 1326,2967 1326,2981 "
   id="polygon33547"
   style="fill:#53381d" />

    <path
   class="fil0"
   d="m 1321,2927 c -13,0 -23,10 -23,23 0,12 10,22 23,22 2,0 5,0 8,-1 v -42 c -3,-1 -6,-2 -8,-2 z"
   id="path33549"
   style="fill:#53381d" />

    <path
   class="fil1"
   d="m 1321,2924 c -13,0 -23,10 -23,22 0,13 10,23 23,23 2,0 5,-1 8,-2 v -40 l -4,-3 v 0 c -2,0 -3,0 -4,0 z"
   id="path33551"
   style="fill:#996633" />

    <path
   class="fil2"
   d="m 1321,2924 c -13,0 -23,10 -23,22 0,13 10,23 23,23 2,0 5,-1 8,-2 v 0 c -3,1 -6,1 -8,1 -12,0 -22,-10 -22,-22 0,-12 10,-21 22,-21 1,0 2,0 4,0 v 0 l 4,3 v -1 l -4,-3 v 0 c -2,0 -3,0 -4,0 z"
   id="path33553"
   style="fill:#ca9560" />

    <path
   class="fil2"
   d="m 1324,2969 c 0,0 0,0 1,0 v -45 0 0 h -1 z"
   id="path33555"
   style="fill:#ca9560" />

    <polygon
   class="fil3"
   points="1329,2972 1329,2967 1329,2965 1329,2927 1325,2924 1325,2969 "
   id="polygon33557"
   style="fill:#af753b" />

    <polygon
   class="fil0"
   points="1323,2972 1326,2970 1327,2975 "
   id="polygon33559"
   style="fill:#53381d" />

    <polygon
   class="fil2"
   points="1325,2968 1329,2971 1329,2972 1325,2969 "
   id="polygon33561"
   style="fill:#ca9560" />

    <polygon
   class="fil2"
   points="1325,2924 1329,2927 1329,2928 1325,2925 "
   id="polygon33563"
   style="fill:#ca9560" />

   </g>

   <g
   id="g33573">
    <path
   class="fil1005"
   d="m 1275,2932 c 7,6 12,10 12,24 0,15 -14,32 -32,32 -17,0 -31,-14 -31,-32 0,-5 1,-10 3,-15 l -6,-6 c -2,-1 -2,-2 0,-3 l 26,-9 c 5,-2 5,-2 5,3 l -6,28 c 0,3 -1,2 -3,1 l -7,-6 c -1,2 -1,5 -1,7 0,12 9,21 20,21 11,0 22,-12 21,-21 -1,-9 -2,-11 -7,-15 -2,-1 -2,-3 -1,-4 l 3,-5 c 1,-1 3,-1 4,0 z"
   id="path33567"
   style="fill:#ffffff" />

    <path
   class="fil1091"
   d="m 1275,2924 c 7,6 12,11 12,25 0,14 -14,32 -32,32 -17,0 -31,-14 -31,-32 0,-5 1,-11 3,-15 l -2,-2 h -6 v -5 c 0,-1 1,-1 2,-2 l 28,-10 c 2,0 3,-1 3,0 v 0 0 c 0,1 0,1 0,1 v 6 h -1 l -5,25 c 0,2 -1,2 -3,0 l -7,-6 c -1,3 -1,5 -1,8 0,11 9,20 20,20 11,0 22,-11 21,-20 -1,-6 -1,-9 -3,-12 h -5 v -5 c -1,-1 0,-2 0,-2 l 3,-5 c 1,-2 3,-2 4,-1 z"
   id="path33569"
   style="fill:#749400" />

    <path
   class="fil1853"
   d="m 1275,2930 c 7,6 12,10 12,25 0,14 -14,31 -32,31 -17,0 -31,-14 -31,-31 0,-6 1,-11 3,-16 l -6,-5 c -2,-2 -2,-3 0,-3 l 26,-10 c 5,-1 5,-2 5,4 l -6,27 c 0,3 -1,3 -3,1 l -7,-6 c -1,2 -1,5 -1,8 0,11 9,20 20,20 11,0 22,-11 21,-20 -1,-10 -2,-12 -7,-16 -2,-1 -2,-2 -1,-4 l 3,-5 c 1,-1 3,-1 4,0 z"
   id="path33571"
   style="fill:url(#id371)" />

   </g>

  </g>
  </g>
</svg>
