<?xml version="1.0" encoding="UTF-8" standalone="no"?>
<!-- Created with Inkscape (http://www.inkscape.org/) -->

<svg
   width="82.285416mm"
   height="40.216667mm"
   viewBox="0 0 82.285416 40.216667"
   version="1.1"
   id="svg36108"
   inkscape:version="1.2.2 (732a01da63, 2022-12-09)"
   sodipodi:docname="loadgame_hover.svg"
   xmlns:inkscape="http://www.inkscape.org/namespaces/inkscape"
   xmlns:sodipodi="http://sodipodi.sourceforge.net/DTD/sodipodi-0.dtd"
   xmlns:xlink="http://www.w3.org/1999/xlink"
   xmlns="http://www.w3.org/2000/svg"
   xmlns:svg="http://www.w3.org/2000/svg">
  <sodipodi:namedview
     id="namedview36110"
     pagecolor="#505050"
     bordercolor="#eeeeee"
     borderopacity="1"
     inkscape:showpageshadow="0"
     inkscape:pageopacity="0"
     inkscape:pagecheckerboard="0"
     inkscape:deskcolor="#505050"
     inkscape:document-units="mm"
     showgrid="false"
     inkscape:zoom="2.587745"
     inkscape:cx="28.209889"
     inkscape:cy="49.463915"
     inkscape:window-width="2787"
     inkscape:window-height="1586"
     inkscape:window-x="82"
     inkscape:window-y="651"
     inkscape:window-maximized="1"
     inkscape:current-layer="layer1" />
  <defs
     id="defs36105">
    <radialGradient
       id="id623"
       gradientUnits="userSpaceOnUse"
       gradientTransform="matrix(6.83717e-5,0.480234,-1.43798,0.00237391,1206,16)"
       cx="698.83002"
       cy="352.63"
       r="141.59"
       fx="698.83002"
       fy="352.63">
      <stop
         offset="0"
         style="stop-opacity:1; stop-color:#C8FF00"
         id="stop1245" />
      <stop
         offset="0.85098"
         style="stop-opacity:1; stop-color:#AEDE00"
         id="stop1247" />
      <stop
         offset="1"
         style="stop-opacity:1; stop-color:#94BD00"
         id="stop1249" />
    </radialGradient>
    <radialGradient
       id="id546"
       gradientUnits="userSpaceOnUse"
       gradientTransform="matrix(1,0,0,0.400721,0,210)"
       cx="698.83099"
       cy="350.55301"
       r="133.407"
       fx="698.83099"
       fy="350.55301">
      <stop
         offset="0"
         style="stop-opacity:1; stop-color:#E7FF1B"
         id="stop1114" />
      <stop
         offset="1"
         style="stop-opacity:1; stop-color:#C8FF00"
         id="stop1116" />
    </radialGradient>
    <clipPath
       id="id182">
      <path
         d="m 588,297 h 222 c 12,0 22,10 22,23 v 61 c 0,13 -10,23 -22,23 H 588 c -12,0 -23,-10 -23,-23 v -61 c 0,-13 11,-23 23,-23 z"
         id="path550" />
    </clipPath>
    <linearGradient
       id="id741"
       gradientUnits="userSpaceOnUse"
       x1="702.48499"
       y1="383.56"
       x2="702.48499"
       y2="351.23999">
      <stop
         offset="0"
         style="stop-opacity:1; stop-color:#C8FF00"
         id="stop1429" />
      <stop
         offset="1"
         style="stop-opacity:1; stop-color:#E7FF1B"
         id="stop1431" />
    </linearGradient>
    <linearGradient
       id="id821"
       gradientUnits="userSpaceOnUse"
       x1="702.341"
       y1="384.125"
       x2="702.341"
       y2="352.832">
      <stop
         offset="0"
         style="stop-opacity:1; stop-color:#CAFF03"
         id="stop1541" />
      <stop
         offset="1"
         style="stop-opacity:1; stop-color:#E7FF1D"
         id="stop1543" />
    </linearGradient>
    <linearGradient
       id="id871"
       gradientUnits="userSpaceOnUse"
       x1="702.19598"
       y1="384.69"
       x2="702.19598"
       y2="354.42599">
      <stop
         offset="0"
         style="stop-opacity:1; stop-color:#CBFF06"
         id="stop1631" />
      <stop
         offset="1"
         style="stop-opacity:1; stop-color:#E7FF1F"
         id="stop1633" />
    </linearGradient>
    <linearGradient
       id="id1194"
       gradientUnits="userSpaceOnUse"
       x1="702.052"
       y1="385.254"
       x2="702.052"
       y2="356.01801">
      <stop
         offset="0"
         style="stop-opacity:1; stop-color:#CDFF0A"
         id="stop2074" />
      <stop
         offset="1"
         style="stop-opacity:1; stop-color:#E8FF21"
         id="stop2076" />
    </linearGradient>
    <linearGradient
       id="id1320"
       gradientUnits="userSpaceOnUse"
       xlink:href="#id1319"
       x1="701.90698"
       y1="385.81799"
       x2="701.90698"
       y2="357.60999" />
    <linearGradient
       id="id1319"
       gradientUnits="userSpaceOnUse"
       x1="701.90698"
       y1="212.40199"
       x2="701.90698"
       y2="184.194">
      <stop
         offset="0"
         style="stop-opacity:1; stop-color:#CFFF0D"
         id="stop2239" />
      <stop
         offset="1"
         style="stop-opacity:1; stop-color:#E8FF23"
         id="stop2241" />
    </linearGradient>
    <linearGradient
       id="id1543"
       gradientUnits="userSpaceOnUse"
       x1="701.763"
       y1="386.38199"
       x2="701.763"
       y2="359.20099">
      <stop
         offset="0"
         style="stop-opacity:1; stop-color:#D1FF10"
         id="stop2547" />
      <stop
         offset="1"
         style="stop-opacity:1; stop-color:#E8FF25"
         id="stop2549" />
    </linearGradient>
    <linearGradient
       id="id1572"
       gradientUnits="userSpaceOnUse"
       x1="297.54745"
       y1="912.53491"
       x2="297.54745"
       y2="898.46356"
       gradientTransform="scale(2.3581721,0.42405726)">
      <stop
         offset="0"
         style="stop-opacity:1; stop-color:#D2FF13"
         id="stop2608" />
      <stop
         offset="1"
         style="stop-opacity:1; stop-color:#E8FF26"
         id="stop2610" />
    </linearGradient>
    <linearGradient
       id="id1857"
       gradientUnits="userSpaceOnUse"
       x1="701.474"
       y1="387.51199"
       x2="701.474"
       y2="362.38699">
      <stop
         offset="0"
         style="stop-opacity:1; stop-color:#D4FF16"
         id="stop2973" />
      <stop
         offset="1"
         style="stop-opacity:1; stop-color:#E9FF28"
         id="stop2975" />
    </linearGradient>
    <linearGradient
       id="id2044"
       gradientUnits="userSpaceOnUse"
       x1="294.40396"
       y1="925.27545"
       x2="294.40396"
       y2="912.44684"
       gradientTransform="scale(2.3823677,0.41975049)">
      <stop
         offset="0"
         style="stop-opacity:1; stop-color:#D6FF1A"
         id="stop3232" />
      <stop
         offset="1"
         style="stop-opacity:1; stop-color:#E9FF2A"
         id="stop3234" />
    </linearGradient>
    <linearGradient
       id="id2266"
       gradientUnits="userSpaceOnUse"
       x1="701.185"
       y1="388.64099"
       x2="701.185"
       y2="365.573">
      <stop
         offset="0"
         style="stop-opacity:1; stop-color:#D7FF1D"
         id="stop3534" />
      <stop
         offset="1"
         style="stop-opacity:1; stop-color:#E9FF2C"
         id="stop3536" />
    </linearGradient>
    <linearGradient
       id="id2316"
       gradientUnits="userSpaceOnUse"
       x1="701.03998"
       y1="389.20499"
       x2="701.03998"
       y2="367.16501">
      <stop
         offset="0"
         style="stop-opacity:1; stop-color:#D9FF20"
         id="stop3616" />
      <stop
         offset="1"
         style="stop-opacity:1; stop-color:#E9FF2E"
         id="stop3618" />
    </linearGradient>
    <linearGradient
       id="id2584"
       gradientUnits="userSpaceOnUse"
       xlink:href="#id2524"
       x1="700.89502"
       y1="389.76999"
       x2="700.89502"
       y2="368.75699" />
    <linearGradient
       id="id2524"
       gradientUnits="userSpaceOnUse"
       x1="302.22299"
       y1="1109.95"
       x2="302.22299"
       y2="1088.9399">
      <stop
         offset="0"
         style="stop-opacity:1; stop-color:#DBFF23"
         id="stop3900" />
      <stop
         offset="1"
         style="stop-opacity:1; stop-color:#EAFF30"
         id="stop3902" />
    </linearGradient>
    <linearGradient
       id="id2747"
       gradientUnits="userSpaceOnUse"
       xlink:href="#id2683"
       x1="700.75098"
       y1="390.33401"
       x2="700.75098"
       y2="370.349" />
    <linearGradient
       id="id2683"
       gradientUnits="userSpaceOnUse"
       x1="302.159"
       y1="3334.8899"
       x2="302.159"
       y2="3314.8999">
      <stop
         offset="0"
         style="stop-opacity:1; stop-color:#DDFF26"
         id="stop4127" />
      <stop
         offset="1"
         style="stop-opacity:1; stop-color:#EAFF32"
         id="stop4129" />
    </linearGradient>
    <linearGradient
       id="id2958"
       gradientUnits="userSpaceOnUse"
       xlink:href="#id2889"
       x1="700.60602"
       y1="390.89899"
       x2="700.60602"
       y2="371.94299" />
    <linearGradient
       id="id2889"
       gradientUnits="userSpaceOnUse"
       x1="302.09601"
       y1="754.776"
       x2="302.09601"
       y2="735.82001">
      <stop
         offset="0"
         style="stop-opacity:1; stop-color:#DEFF29"
         id="stop4393" />
      <stop
         offset="1"
         style="stop-opacity:1; stop-color:#EAFF34"
         id="stop4395" />
    </linearGradient>
    <linearGradient
       id="id3031"
       gradientUnits="userSpaceOnUse"
       xlink:href="#id3030"
       x1="700.46198"
       y1="391.46301"
       x2="700.46198"
       y2="373.534" />
    <linearGradient
       id="id3030"
       gradientUnits="userSpaceOnUse"
       x1="700.46198"
       y1="218.047"
       x2="700.46198"
       y2="200.119">
      <stop
         offset="0"
         style="stop-opacity:1; stop-color:#E0FF2D"
         id="stop4598" />
      <stop
         offset="1"
         style="stop-opacity:1; stop-color:#EAFF36"
         id="stop4600" />
    </linearGradient>
    <linearGradient
       id="id3211"
       gradientUnits="userSpaceOnUse"
       x1="293.55548"
       y1="934.7395"
       x2="293.55548"
       y2="925.71204"
       gradientTransform="scale(2.3858558,0.41913682)">
      <stop
         offset="0"
         style="stop-opacity:1; stop-color:#E2FF30"
         id="stop4839" />
      <stop
         offset="1"
         style="stop-opacity:1; stop-color:#EBFF38"
         id="stop4841" />
    </linearGradient>
    <linearGradient
       id="id3506"
       gradientUnits="userSpaceOnUse"
       x1="700.17297"
       y1="392.59201"
       x2="700.17297"
       y2="376.72">
      <stop
         offset="0"
         style="stop-opacity:1; stop-color:#E3FF33"
         id="stop5218" />
      <stop
         offset="1"
         style="stop-opacity:1; stop-color:#EBFF39"
         id="stop5220" />
    </linearGradient>
    <linearGradient
       id="id3580"
       gradientUnits="userSpaceOnUse"
       x1="294.47403"
       y1="935.15527"
       x2="294.47403"
       y2="927.19775"
       gradientTransform="scale(2.3774301,0.42062225)">
      <stop
         offset="0"
         style="stop-opacity:1; stop-color:#E5FF36"
         id="stop5336" />
      <stop
         offset="1"
         style="stop-opacity:1; stop-color:#EBFF3B"
         id="stop5338" />
    </linearGradient>
    <linearGradient
       id="id3776"
       gradientUnits="userSpaceOnUse"
       x1="699.88397"
       y1="393.72101"
       x2="699.88397"
       y2="379.90399">
      <stop
         offset="0"
         style="stop-opacity:1; stop-color:#E7FF39"
         id="stop5612" />
      <stop
         offset="1"
         style="stop-opacity:1; stop-color:#EBFF3D"
         id="stop5614" />
    </linearGradient>
    <linearGradient
       id="id3937"
       gradientUnits="userSpaceOnUse"
       xlink:href="#id3936"
       x1="699.73901"
       y1="394.285"
       x2="699.73901"
       y2="381.496" />
    <linearGradient
       id="id3936"
       gradientUnits="userSpaceOnUse"
       x1="699.73901"
       y1="220.87"
       x2="699.73901"
       y2="208.08">
      <stop
         offset="0"
         style="stop-opacity:1; stop-color:#E9FF3D"
         id="stop5820" />
      <stop
         offset="1"
         style="stop-opacity:1; stop-color:#ECFF3F"
         id="stop5822" />
    </linearGradient>
    <linearGradient
       id="id4218"
       gradientUnits="userSpaceOnUse"
       xlink:href="#id4173"
       x1="699.59399"
       y1="394.85001"
       x2="699.59399"
       y2="383.09" />
    <linearGradient
       id="id4173"
       gradientUnits="userSpaceOnUse"
       x1="301.64999"
       y1="941.09302"
       x2="301.64999"
       y2="929.33197">
      <stop
         offset="0"
         style="stop-opacity:1; stop-color:#EAFF40"
         id="stop6133" />
      <stop
         offset="1"
         style="stop-opacity:1; stop-color:#ECFF41"
         id="stop6135" />
    </linearGradient>
  </defs>
  <g
     inkscape:label="Capa 1"
     inkscape:groupmode="layer"
     id="layer1"
     transform="translate(4.1853319,-3.9953274)">
    <g
       id="_894973424"
       style="clip-rule:evenodd;fill-rule:evenodd;image-rendering:optimizeQuality;shape-rendering:geometricPrecision;text-rendering:geometricPrecision"
       transform="matrix(0.26458333,0,0,0.26458333,-147.85408,-70.088005)"
       inkscape:label="hover"
       inkscape:export-filename="_894973424.svg"
       inkscape:export-xdpi="96"
       inkscape:export-ydpi="96">
      <g
         id="g34192">
        <path
           class="fil0"
           d="m 577,286 h 244 c 17,0 31,14 31,31 v 84 c 0,17 -14,31 -31,31 H 577 c -17,0 -31,-14 -31,-31 v -84 c 0,-17 14,-31 31,-31 z"
           id="path34182"
           style="fill:#53381d" />
        <path
           class="fil1"
           d="m 577,280 h 244 c 17,0 31,14 31,31 v 84 c 0,17 -14,31 -31,31 H 577 c -17,0 -31,-14 -31,-31 v -84 c 0,-17 14,-31 31,-31 z"
           id="path34184"
           style="fill:#996633" />
        <path
           class="fil2"
           d="m 578,282 h 241 c 17,0 30,14 30,30 v 81 c 0,17 -13,30 -30,30 H 578 c -16,0 -30,-13 -30,-30 v -81 c 0,-16 14,-30 30,-30 z"
           id="path34186"
           style="fill:#ca9560" />
        <path
           class="fil3"
           d="m 579,283 h 240 c 16,0 30,13 30,29 v 81 c 0,16 -14,30 -30,30 H 579 c -17,0 -30,-14 -30,-30 v -81 c 0,-16 13,-29 30,-29 z"
           id="path34188"
           style="fill:#af753b" />
        <path
           class="fil0"
           d="m 581,287 h 236 c 15,0 28,12 28,28 v 75 c 0,16 -13,28 -28,28 H 581 c -15,0 -28,-12 -28,-28 v -75 c 0,-16 13,-28 28,-28 z"
           id="path34190"
           style="fill:#53381d" />
      </g>
      <path
         class="fil4177"
         d="m 576,283 h 245 c 16,0 29,13 29,29 v 81 c 0,16 -13,30 -29,30 H 576 c -15,0 -28,-14 -28,-30 v -81 c 0,-16 13,-29 28,-29 z"
         id="path34194"
         style="fill:#ffff00;fill-opacity:0" />
      <g
         id="g34236">
        <path
           class="fil4178"
           d="m 577,283 c 81,0 162,0 244,0 15,0 28,14 28,30 0,26 0,53 0,79 0,17 -13,30 -28,30 -82,0 -163,0 -244,0 -16,0 -28,-13 -28,-30 0,-26 0,-53 0,-79 0,-16 12,-30 28,-30 z"
           id="path34196"
           style="fill:#ffff0c;fill-opacity:0.047059" />
        <path
           class="fil4179"
           d="m 578,284 c 80,0 161,0 242,0 16,0 28,13 28,29 0,26 0,53 0,79 0,16 -12,29 -28,29 -81,0 -162,0 -242,0 -16,0 -29,-13 -29,-29 0,-26 0,-53 0,-79 0,-16 13,-29 29,-29 z"
           id="path34198"
           style="fill:#ffff18;fill-opacity:0.094118" />
        <path
           class="fil4180"
           d="m 578,284 c 81,0 161,0 242,0 15,0 27,14 27,29 0,27 0,53 0,79 0,16 -12,29 -27,29 -81,0 -161,0 -242,0 -15,0 -28,-13 -28,-29 0,-26 0,-52 0,-79 0,-15 13,-29 28,-29 z"
           id="path34200"
           style="fill:#ffff24;fill-opacity:0.141176" />
        <path
           class="fil4181"
           d="m 579,285 c 80,0 160,0 240,0 15,0 28,13 28,29 0,26 0,52 0,77 0,16 -13,29 -28,29 -80,0 -160,0 -240,0 -16,0 -28,-13 -28,-29 0,-25 0,-51 0,-77 0,-16 12,-29 28,-29 z"
           id="path34202"
           style="fill:#ffff31;fill-opacity:0.192157" />
        <path
           class="fil4182"
           d="m 579,286 c 80,0 160,0 239,0 16,0 28,12 28,28 0,26 0,51 0,77 0,16 -12,29 -28,29 -79,0 -159,0 -239,0 -15,0 -27,-13 -27,-29 0,-26 0,-51 0,-77 0,-16 12,-28 27,-28 z"
           id="path34204"
           style="fill:#ffff3d;fill-opacity:0.239216" />
        <path
           class="fil4183"
           d="m 580,286 c 79,0 158,0 238,0 15,0 27,13 27,28 0,26 0,51 0,77 0,15 -12,28 -27,28 -80,0 -159,0 -238,0 -15,0 -28,-13 -28,-28 0,-26 0,-51 0,-77 0,-15 13,-28 28,-28 z"
           id="path34206"
           style="fill:#ffff49;fill-opacity:0.286275" />
        <path
           class="fil4184"
           d="m 580,287 c 79,0 158,0 237,0 15,0 28,12 28,28 0,25 0,50 0,75 0,16 -13,28 -28,28 -79,0 -158,0 -237,0 -15,0 -27,-12 -27,-28 0,-25 0,-50 0,-75 0,-16 12,-28 27,-28 z"
           id="path34208"
           style="fill:#ffff55;fill-opacity:0.333333" />
        <path
           class="fil4185"
           d="m 581,287 c 79,0 157,0 236,0 15,0 27,13 27,28 0,25 0,50 0,75 0,15 -12,28 -27,28 -79,0 -157,0 -236,0 -15,0 -27,-13 -27,-28 0,-25 0,-50 0,-75 0,-15 12,-28 27,-28 z"
           id="path34210"
           style="fill:#ffff61;fill-opacity:0.380392" />
        <path
           class="fil4186"
           d="m 582,288 c 78,0 156,0 234,0 15,0 27,12 27,27 0,25 0,50 0,75 0,15 -12,27 -27,27 -78,0 -156,0 -234,0 -15,0 -28,-12 -28,-27 0,-25 0,-50 0,-75 0,-15 13,-27 28,-27 z"
           id="path34212"
           style="fill:#ffff6d;fill-opacity:0.427451" />
        <path
           class="fil4187"
           d="m 582,289 c 78,0 156,0 234,0 14,0 27,12 27,27 0,24 0,49 0,73 0,15 -13,28 -27,28 -78,0 -156,0 -234,0 -15,0 -27,-13 -27,-28 0,-24 0,-49 0,-73 0,-15 12,-27 27,-27 z"
           id="path34214"
           style="fill:#ffff79;fill-opacity:0.47451" />
        <path
           class="fil4188"
           d="m 583,289 c 77,0 155,0 232,0 15,0 27,12 27,27 0,24 0,49 0,73 0,15 -12,27 -27,27 -77,0 -155,0 -232,0 -15,0 -27,-12 -27,-27 0,-24 0,-49 0,-73 0,-15 12,-27 27,-27 z"
           id="path34216"
           style="fill:#ffff86;fill-opacity:0.52549" />
        <path
           class="fil4189"
           d="m 583,290 c 77,0 154,0 231,0 15,0 27,12 27,26 0,25 0,49 0,73 0,15 -12,27 -27,27 -77,0 -154,0 -231,0 -14,0 -26,-12 -26,-27 0,-24 0,-48 0,-73 0,-14 12,-26 26,-26 z"
           id="path34218"
           style="fill:#ffff92;fill-opacity:0.572549" />
        <path
           class="fil4190"
           d="m 584,290 c 77,0 153,0 230,0 14,0 26,12 26,27 0,24 0,48 0,71 0,15 -12,27 -26,27 -77,0 -153,0 -230,0 -15,0 -27,-12 -27,-27 0,-23 0,-47 0,-71 0,-15 12,-27 27,-27 z"
           id="path34220"
           style="fill:#ffff9e;fill-opacity:0.619608" />
        <path
           class="fil4191"
           d="m 584,291 c 77,0 153,0 229,0 15,0 27,12 27,26 0,24 0,47 0,71 0,15 -12,26 -27,26 -76,0 -152,0 -229,0 -14,0 -26,-11 -26,-26 0,-24 0,-47 0,-71 0,-14 12,-26 26,-26 z"
           id="path34222"
           style="fill:#ffffaa;fill-opacity:0.666667" />
        <path
           class="fil4192"
           d="m 585,291 c 76,0 152,0 228,0 14,0 26,12 26,26 0,24 0,47 0,71 0,14 -12,26 -26,26 -76,0 -152,0 -228,0 -15,0 -26,-12 -26,-26 0,-24 0,-47 0,-71 0,-14 11,-26 26,-26 z"
           id="path34224"
           style="fill:#ffffb6;fill-opacity:0.713725" />
        <path
           class="fil4193"
           d="m 586,292 c 75,0 151,0 226,0 15,0 26,12 26,26 0,23 0,46 0,69 0,15 -11,26 -26,26 -75,0 -151,0 -226,0 -15,0 -27,-11 -27,-26 0,-23 0,-46 0,-69 0,-14 12,-26 27,-26 z"
           id="path34226"
           style="fill:#ffffc2;fill-opacity:0.760784" />
        <path
           class="fil4194"
           d="m 586,293 c 75,0 150,0 226,0 14,0 26,11 26,25 0,23 0,46 0,69 0,14 -12,26 -26,26 -76,0 -151,0 -226,0 -14,0 -26,-12 -26,-26 0,-23 0,-46 0,-69 0,-14 12,-25 26,-25 z"
           id="path34228"
           style="fill:#ffffce;fill-opacity:0.807843" />
        <path
           class="fil4195"
           d="m 587,293 c 74,0 149,0 224,0 14,0 26,12 26,25 0,23 0,46 0,69 0,14 -12,25 -26,25 -75,0 -150,0 -224,0 -15,0 -26,-11 -26,-25 0,-23 0,-46 0,-69 0,-13 11,-25 26,-25 z"
           id="path34230"
           style="fill:#ffffdb;fill-opacity:0.858824" />
        <path
           class="fil4196"
           d="m 587,294 c 75,0 149,0 223,0 15,0 26,11 26,25 0,22 0,45 0,67 0,14 -11,25 -26,25 -74,0 -148,0 -223,0 -14,0 -26,-11 -26,-25 0,-22 0,-45 0,-67 0,-14 12,-25 26,-25 z"
           id="path34232"
           style="fill:#ffffe7;fill-opacity:0.905882" />
        <path
           class="fil4197"
           d="m 588,294 c 74,0 148,0 222,0 14,0 26,12 26,25 0,22 0,45 0,67 0,14 -12,25 -26,25 -74,0 -148,0 -222,0 -14,0 -26,-11 -26,-25 0,-22 0,-45 0,-67 0,-13 12,-25 26,-25 z"
           id="path34234"
           style="fill:#fffff3;fill-opacity:0.952941" />
      </g>
      <path
         class="fil1031"
         d="m 588,295 h 221 c 14,0 26,11 26,24 v 67 c 0,13 -12,24 -26,24 H 588 c -14,0 -25,-11 -25,-24 v -67 c 0,-13 11,-24 25,-24 z"
         id="path34238"
         style="fill:#ffffff" />
      <path
         class="fil4198"
         d="m 582,289 h 233 c 15,0 27,12 27,27 v 73 c 0,15 -12,27 -27,27 H 582 c -14,0 -27,-12 -27,-27 v -73 c 0,-15 13,-27 27,-27 z"
         id="path34240"
         style="fill:#ffff00" />
      <path
         class="fil4199"
         d="m 583,291 h 231 c 15,0 26,12 26,26 v 71 c 0,14 -11,26 -26,26 H 583 c -14,0 -26,-12 -26,-26 v -71 c 0,-14 12,-26 26,-26 z"
         id="path34242"
         style="fill:url(#id623)" />
      <polygon
         class="fil1005"
         points="632,409 648,405 640,401 626,403 616,405 "
         id="polygon34244"
         style="fill:#ffffff" />
      <path
         class="fil7"
         d="m 814,292 c 14,0 25,10 26,24 L 699,353 562,303 c -3,4 -4,9 -4,14 l 141,36 -132,-56 c 5,-3 11,-5 17,-5 l 115,61 z"
         id="path34246"
         style="fill:#ffffff;fill-opacity:0.2" />
      <path
         class="fil1006"
         d="m 588,296 h 222 c 6,0 12,3 16,7 4,4 7,10 7,17 v 61 c 0,7 -3,13 -7,17 -4,4 -10,7 -16,7 H 588 c -6,0 -12,-3 -17,-7 -4,-4 -6,-10 -6,-17 v -61 c 0,-7 2,-13 6,-17 5,-4 11,-7 17,-7 z m 222,2 H 588 c -6,0 -11,2 -15,6 -4,4 -7,10 -7,16 v 61 c 0,6 3,12 7,16 4,4 9,6 15,6 h 222 c 6,0 11,-2 15,-6 4,-4 6,-10 6,-16 v -61 c 0,-6 -2,-12 -6,-16 -4,-4 -9,-6 -15,-6 z"
         id="path34248"
         style="fill:#ffffff;fill-rule:nonzero" />
      <path
         class="fil4200"
         d="m 588,297 h 222 c 12,0 22,10 22,23 v 61 c 0,13 -10,23 -22,23 H 588 c -12,0 -23,-10 -23,-23 v -61 c 0,-13 11,-23 23,-23 z"
         id="path34250"
         style="fill:url(#id546)" />
      <g
         clip-path="url(#id182)"
         id="g34300">
        <g
           id="g34298">
          <path
             id="path34252"
             class="fil4201"
             d="m 698,376 c 78,0 141,11 141,25 0,14 -63,25 -141,25 -78,0 -141,-11 -141,-25 0,-14 63,-25 141,-25 z"
             style="fill:url(#id741);fill-opacity:0" />
          <g
             id="g34294">
            <path
               class="fil4202"
               d="m 698,377 c 75,0 137,11 137,24 0,14 -62,25 -137,25 -76,0 -137,-11 -137,-25 0,-13 61,-24 137,-24 z"
               id="path34254"
               style="fill:url(#id821);fill-opacity:0.047059" />
            <path
               class="fil4203"
               d="m 698,378 c 73,0 132,10 132,23 0,13 -59,24 -132,24 -73,0 -132,-11 -132,-24 0,-13 59,-23 132,-23 z"
               id="path34256"
               style="fill:url(#id871);fill-opacity:0.094118" />
            <path
               class="fil4204"
               d="m 698,379 c 71,0 128,10 128,22 0,13 -57,23 -128,23 -71,0 -128,-10 -128,-23 0,-12 57,-22 128,-22 z"
               id="path34258"
               style="fill:url(#id1194);fill-opacity:0.141176" />
            <path
               class="fil4205"
               d="m 698,379 c 68,0 123,10 123,22 0,12 -55,22 -123,22 -68,0 -123,-10 -123,-22 0,-12 55,-22 123,-22 z"
               id="path34260"
               style="fill:url(#id1320);fill-opacity:0.192157" />
            <path
               class="fil4206"
               d="m 698,380 c 66,0 119,10 119,21 0,12 -53,21 -119,21 -66,0 -119,-9 -119,-21 0,-11 53,-21 119,-21 z"
               id="path34262"
               style="fill:url(#id1543);fill-opacity:0.239216" />
            <path
               class="fil4207"
               d="m 698,381 c 63,0 114,9 114,20 0,11 -51,21 -114,21 -63,0 -114,-10 -114,-21 0,-11 51,-20 114,-20 z"
               id="path34264"
               style="fill:url(#id1572);fill-opacity:0.286275" />
            <path
               class="fil4208"
               d="m 698,382 c 61,0 110,9 110,19 0,11 -49,20 -110,20 -61,0 -110,-9 -110,-20 0,-10 49,-19 110,-19 z"
               id="path34266"
               style="fill:url(#id1857);fill-opacity:0.333333" />
            <path
               class="fil4209"
               d="m 698,383 c 58,0 105,8 105,18 0,11 -47,19 -105,19 -58,0 -105,-8 -105,-19 0,-10 47,-18 105,-18 z"
               id="path34268"
               style="fill:url(#id2044);fill-opacity:0.380392" />
            <path
               class="fil4210"
               d="m 698,383 c 56,0 101,8 101,18 0,10 -45,18 -101,18 -56,0 -101,-8 -101,-18 0,-10 45,-18 101,-18 z"
               id="path34270"
               style="fill:url(#id2266);fill-opacity:0.427451" />
            <path
               class="fil4211"
               d="m 698,384 c 53,0 96,8 96,17 0,10 -43,17 -96,17 -53,0 -96,-7 -96,-17 0,-9 43,-17 96,-17 z"
               id="path34272"
               style="fill:url(#id2316);fill-opacity:0.47451" />
            <path
               class="fil4212"
               d="m 698,385 c 51,0 92,7 92,16 0,9 -41,17 -92,17 -51,0 -92,-8 -92,-17 0,-9 41,-16 92,-16 z"
               id="path34274"
               style="fill:url(#id2584);fill-opacity:0.52549" />
            <path
               class="fil4213"
               d="m 698,386 c 48,0 87,7 87,15 0,9 -39,16 -87,16 -48,0 -87,-7 -87,-16 0,-8 39,-15 87,-15 z"
               id="path34276"
               style="fill:url(#id2747);fill-opacity:0.572549" />
            <path
               class="fil4214"
               d="m 698,387 c 46,0 83,6 83,14 0,8 -37,15 -83,15 -46,0 -83,-7 -83,-15 0,-8 37,-14 83,-14 z"
               id="path34278"
               style="fill:url(#id2958);fill-opacity:0.619608" />
            <path
               class="fil4215"
               d="m 698,387 c 43,0 78,7 78,14 0,8 -35,14 -78,14 -43,0 -78,-6 -78,-14 0,-7 35,-14 78,-14 z"
               id="path34280"
               style="fill:url(#id3031);fill-opacity:0.666667" />
            <path
               class="fil4216"
               d="m 698,388 c 41,0 74,6 74,13 0,8 -33,13 -74,13 -41,0 -74,-5 -74,-13 0,-7 33,-13 74,-13 z"
               id="path34282"
               style="fill:url(#id3211);fill-opacity:0.713725" />
            <path
               class="fil4217"
               d="m 698,389 c 38,0 69,6 69,12 0,7 -31,13 -69,13 -38,0 -69,-6 -69,-13 0,-6 31,-12 69,-12 z"
               id="path34284"
               style="fill:url(#id3506);fill-opacity:0.760784" />
            <path
               class="fil4218"
               d="m 698,390 c 36,0 65,5 65,11 0,7 -29,12 -65,12 -36,0 -65,-5 -65,-12 0,-6 29,-11 65,-11 z"
               id="path34286"
               style="fill:url(#id3580);fill-opacity:0.807843" />
            <path
               class="fil4219"
               d="m 698,391 c 33,0 60,4 60,10 0,6 -27,11 -60,11 -33,0 -60,-5 -60,-11 0,-6 27,-10 60,-10 z"
               id="path34288"
               style="fill:url(#id3776);fill-opacity:0.858824" />
            <path
               class="fil4220"
               d="m 698,391 c 31,0 56,5 56,10 0,6 -25,10 -56,10 -31,0 -56,-4 -56,-10 0,-5 25,-10 56,-10 z"
               id="path34290"
               style="fill:url(#id3937);fill-opacity:0.905882" />
            <path
               class="fil4221"
               d="m 698,392 c 28,0 51,4 51,9 0,5 -23,9 -51,9 -28,0 -51,-4 -51,-9 0,-5 23,-9 51,-9 z"
               id="path34292"
               style="fill:url(#id4218);fill-opacity:0.952941" />
          </g>
          <ellipse
             class="fil1089"
             cx="698"
             cy="401"
             rx="47"
             ry="8"
             id="ellipse34296"
             style="fill:#ecff43" />
        </g>
      </g>
      <path
         class="fil32"
         d="m 588,297 h 222 c 12,0 22,10 22,23 v 61 c 0,13 -10,23 -22,23 H 588 c -12,0 -23,-10 -23,-23 v -61 c 0,-13 11,-23 23,-23 z"
         id="path34302"
         style="fill:none" />
      <path
         class="fil33"
         d="m 830,351 c -69,-14 -131,-4 -181,2 -14,-12 -28,-23 -42,-33 l -3,-2 1,-1 c 8,-6 17,-12 25,-18 h 178 c 12,0 22,9 22,21 z m -184,2 c -33,4 -60,6 -79,-2 v -3 c 12,-9 23,-19 35,-28 l 3,2 c 14,10 28,20 41,31 z m -79,-8 v -25 c 0,-7 4,-14 10,-18 8,5 16,11 23,16 -11,9 -22,18 -33,27 z m 13,-44 c 3,-2 6,-2 10,-2 h 36 c -7,5 -15,11 -22,17 l -2,1 c -7,-6 -15,-11 -22,-16 z"
         id="path34304"
         style="fill:#ffffff;fill-opacity:0.301961" />
      <polygon
         class="fil1005"
         points="573,326 566,328 565,332 562,328 558,328 563,325 565,320 567,324 571,324 580,320 "
         id="polygon34306"
         style="fill:#ffffff" />
      <polygon
         class="fil4222"
         points="632,408 648,404 640,400 626,402 617,405 "
         id="polygon34308"
         style="fill:#94bd00" />
      <polygon
         class="fil4222"
         points="573,325 566,327 565,331 562,327 558,328 563,324 565,319 567,323 571,323 580,320 "
         id="polygon34310"
         style="fill:#94bd00" />
      <g
         id="g34330">
        <polygon
           class="fil0"
           points="543,380 543,368 546,368 546,382 "
           id="polygon34312"
           style="fill:#53381d" />
        <path
           class="fil0"
           d="m 551,328 c 13,0 23,11 23,23 0,12 -10,22 -23,22 -2,0 -5,0 -8,-1 v -42 c 3,-1 6,-2 8,-2 z"
           id="path34314"
           style="fill:#53381d" />
        <path
           class="fil1"
           d="m 551,325 c 13,0 23,10 23,22 0,13 -10,23 -23,23 -2,0 -5,-1 -8,-2 v -40 l 4,-3 v 0 c 2,0 3,0 4,0 z"
           id="path34316"
           style="fill:#996633" />
        <path
           class="fil35"
           d="m 551,325 c 13,0 23,10 23,22 0,13 -10,23 -23,23 -2,0 -5,-1 -8,-2 v 0 c 3,1 6,1 8,1 12,0 22,-9 22,-22 0,-12 -10,-21 -22,-21 -1,0 -2,0 -4,0 v 0 l -4,3 v -1 l 4,-3 v 0 c 2,0 3,0 4,0 z"
           id="path34318"
           style="fill:#ca9560" />
        <path
           class="fil2"
           d="m 548,370 c 0,0 0,0 -1,0 v -45 0 0 h 1 z"
           id="path34320"
           style="fill:#ca9560" />
        <polygon
           class="fil3"
           points="547,325 547,370 543,373 543,368 543,366 543,328 "
           id="polygon34322"
           style="fill:#af753b" />
        <polygon
           class="fil0"
           points="546,371 545,376 549,373 "
           id="polygon34324"
           style="fill:#53381d" />
        <polygon
           class="fil35"
           points="547,369 543,372 543,373 547,370 "
           id="polygon34326"
           style="fill:#ca9560" />
        <polygon
           class="fil35"
           points="547,325 543,328 543,329 547,326 "
           id="polygon34328"
           style="fill:#ca9560" />
      </g>
      <g
         id="g34350">
        <polygon
           class="fil0"
           points="854,380 854,368 852,368 852,382 "
           id="polygon34332"
           style="fill:#53381d" />
        <path
           class="fil0"
           d="m 846,328 c -12,0 -22,11 -22,23 0,12 10,22 22,22 3,0 6,0 8,-1 v -42 c -2,-1 -5,-2 -8,-2 z"
           id="path34334"
           style="fill:#53381d" />
        <path
           class="fil1"
           d="m 846,325 c -12,0 -22,10 -22,22 0,13 10,23 22,23 3,0 6,-1 8,-2 v -40 l -4,-3 v 0 c -1,0 -2,0 -4,0 z"
           id="path34336"
           style="fill:#996633" />
        <path
           class="fil35"
           d="m 846,325 c -12,0 -22,10 -22,22 0,13 10,23 22,23 3,0 6,-1 8,-2 v 0 c -2,1 -5,1 -7,1 -13,0 -23,-9 -23,-22 0,-12 10,-21 23,-21 1,0 2,0 4,0 h -1 l 4,3 v -1 l -4,-3 v 0 c -1,0 -2,0 -4,0 z"
           id="path34338"
           style="fill:#ca9560" />
        <path
           class="fil2"
           d="m 849,370 c 1,0 1,0 1,0 v -45 0 0 h -1 z"
           id="path34340"
           style="fill:#ca9560" />
        <polygon
           class="fil3"
           points="850,325 850,370 854,373 854,368 854,366 854,328 "
           id="polygon34342"
           style="fill:#af753b" />
        <polygon
           class="fil0"
           points="852,371 853,376 849,373 "
           id="polygon34344"
           style="fill:#53381d" />
        <polygon
           class="fil35"
           points="850,369 854,372 854,373 850,370 "
           id="polygon34346"
           style="fill:#ca9560" />
        <polygon
           class="fil35"
           points="850,325 854,328 854,329 850,326 "
           id="polygon34348"
           style="fill:#ca9560" />
      </g>
    </g>
    <g
       id="g53743"
       inkscape:label="texto"
       transform="translate(70.063603,-42.622146)">
      <g
         aria-label="cargar
partida"
         id="text52790"
         style="font-size:12.7px;font-family:'Zero Cool';-inkscape-font-specification:'Zero Cool';text-align:center;text-anchor:middle;stroke:#4b7507;stroke-width:0.264583;stroke-linejoin:bevel"
         inkscape:label="text-normal">
        <path
           d="m -51.634295,61.98243 h -3.664893 l -1.736328,-2.133204 q -0.08682,-0.0124 -0.08682,-0.539502 0,-1.047998 0.341064,-4.148583 l 1.686719,-1.860352 h 2.889746 l 2.492871,1.240234 -1.196826,1.860352 -2.362647,-1.00459 -2.269629,2.468066 2.046387,2.468067 3.237012,-1.451074 1.128613,1.240234 z"
           style="stroke:none"
           id="path70822" />
        <path
           d="m -40.664423,61.98243 h -2.480469 l -1.240234,-2.480469 h -1.240234 l -1.240235,2.480469 h -1.860351 l 2.133203,-8.669239 3.447851,0.0186 z m -3.100586,-3.993555 -1.475879,-3.447852 -1.00459,3.447852 z"
           style="stroke:none"
           id="path70824" />
        <path
           d="m -33.347041,61.98243 h -2.480469 l -0.620117,-3.33003 -1.066601,-0.0186 -0.440284,3.348633 h -2.213818 l 0.409277,-8.4646 3.931543,-0.217041 2.263428,0.620117 -0.223242,3.100586 -1.420069,1.240234 z m -4.991943,-4.818311 2.102197,-0.198437 1.314648,-1.773536 -2.139404,-0.750341 -1.289844,0.173632 z"
           style="stroke:none"
           id="path70826" />
        <path
           d="m -24.690204,57.641609 -0.334863,3.342432 -3.100586,0.998389 -4.111377,-0.334864 -0.229443,-4.626074 1.240234,-3.720703 h 3.100586 l 3.497461,0.620117 -1.947168,1.860352 -3.01377,-1.457276 -1.575097,2.69751 0.657324,3.311426 2.716113,0.179834 -0.08061,-1.823145 -1.69292,-0.198437 0.186035,-1.153418 z"
           style="stroke:none"
           id="path70828" />
        <path
           d="m -16.169795,61.98243 h -2.480469 l -1.240234,-2.480469 h -1.240234 l -1.240235,2.480469 h -1.860351 l 2.133203,-8.669239 3.447851,0.0186 z m -3.100586,-3.993555 -1.475879,-3.447852 -1.00459,3.447852 z"
           style="stroke:none"
           id="path70830" />
        <path
           d="m -8.8524122,61.98243 h -2.4804688 l -0.620117,-3.33003 -1.066602,-0.0186 -0.440283,3.348633 h -2.213818 l 0.409277,-8.4646 3.931543,-0.217041 2.2634278,0.620117 -0.2232422,3.100586 -1.4200686,1.240234 z m -4.9919428,-4.818311 2.102197,-0.198437 1.314648,-1.773536 -2.139404,-0.750341 -1.289844,0.173632 z"
           style="stroke:none"
           id="path70832" />
        <path
           d="m -57.919183,69.175789 4.136182,-0.06201 1.444873,2.54248 -0.334864,3.336231 -3.646289,0.16123 -0.440283,2.703711 -1.779736,0.06201 z m 1.965771,1.519287 -0.291455,2.660303 1.909961,-0.285254 0.198438,-1.475879 z"
           style="stroke:none"
           id="path70834" />
        <path
           d="m -43.780511,77.857429 h -2.480469 l -1.240234,-2.480468 h -1.240235 l -1.240234,2.480468 h -1.860352 l 2.133204,-8.669238 3.447851,0.0186 z m -3.100586,-3.993554 -1.475879,-3.447852 -1.00459,3.447852 z"
           style="stroke:none"
           id="path70836" />
        <path
           d="m -36.463128,77.857429 h -2.480469 l -0.620117,-3.330029 -1.066602,-0.0186 -0.440283,3.348632 h -2.213818 l 0.409277,-8.464599 3.931543,-0.217041 2.263428,0.620117 -0.223243,3.100586 -1.420068,1.240234 z m -4.991944,-4.81831 2.102198,-0.198438 1.314648,-1.773535 -2.139404,-0.750342 -1.289844,0.173633 z"
           style="stroke:none"
           id="path70838" />
        <path
           d="m -29.896088,77.857429 h -3.658691 l 0.26665,-6.461621 -2.418457,-0.16123 v -2.058789 h 7.317383 v 2.095996 l -2.418457,0.384472 z"
           style="stroke:none"
           id="path70840" />
        <path
           d="m -27.316399,69.175789 h 2.356445 l 0.08682,8.68164 h -2.443262 z"
           style="stroke:none"
           id="path70842" />
        <path
           d="m -17.983635,77.857429 h -5.87251 v -8.68164 h 5.581055 l 2.480468,2.189013 v 4.632276 z m -1.085205,-1.829345 1.506884,-1.506885 v -2.511475 l -4.520654,-1.00459 v 5.02295 z"
           style="stroke:none"
           id="path70844" />
        <path
           d="M -7.143987,77.857429 H -9.6244557 L -10.86469,75.376961 h -1.240234 l -1.240235,2.480468 h -1.860351 l 2.133203,-8.669238 3.4478513,0.0186 z m -3.100586,-3.993554 -1.475879,-3.447852 -1.00459,3.447852 z"
           style="stroke:none"
           id="path70846" />
      </g>
      <g
         aria-label="CARGAR
partida"
         id="text39770"
         style="font-size:12.7px;font-family:'Zero Cool';-inkscape-font-specification:'Zero Cool';text-align:center;text-anchor:middle;display:inline;fill:#ffffff;stroke:#4b7507;stroke-width:0.264583;stroke-linejoin:bevel"
         inkscape:label="text-normal">
        <path
           d="m -52.163463,61.453262 h -3.664892 l -1.736328,-2.133203 q -0.08682,-0.0124 -0.08682,-0.539502 0,-1.047998 0.341065,-4.148584 l 1.686719,-1.860351 h 2.889746 l 2.492871,1.240234 -1.196826,1.860352 -2.362647,-1.00459 -2.269629,2.468066 2.046387,2.468067 3.237012,-1.451075 1.128613,1.240235 z"
           style="stroke:none"
           id="path70849" />
        <path
           d="m -41.19359,61.453262 h -2.480469 l -1.240234,-2.480468 h -1.240235 l -1.240234,2.480468 h -1.860351 l 2.133203,-8.669238 3.447851,0.0186 z m -3.100586,-3.993554 -1.475879,-3.447852 -1.00459,3.447852 z"
           style="stroke:none"
           id="path70851" />
        <path
           d="m -33.876208,61.453262 h -2.480469 l -0.620117,-3.330029 -1.066602,-0.0186 -0.440283,3.348632 h -2.213818 l 0.409277,-8.464599 3.931543,-0.217041 2.263428,0.620117 -0.223242,3.100586 -1.420069,1.240234 z m -4.991944,-4.81831 2.102198,-0.198438 1.314648,-1.773535 -2.139404,-0.750342 -1.289844,0.173633 z"
           style="stroke:none"
           id="path70853" />
        <path
           d="m -25.219371,57.112442 -0.334863,3.342432 -3.100586,0.998388 -4.111377,-0.334863 -0.229444,-4.626074 1.240235,-3.720703 h 3.100586 l 3.497461,0.620117 -1.947168,1.860352 -3.01377,-1.457276 -1.575098,2.69751 0.657325,3.311426 2.716113,0.179834 -0.08062,-1.823145 -1.69292,-0.198437 0.186035,-1.153418 z"
           style="stroke:none"
           id="path70855" />
        <path
           d="m -16.698962,61.453262 h -2.480469 l -1.240234,-2.480468 H -21.6599 l -1.240234,2.480468 h -1.860351 l 2.133203,-8.669238 3.447851,0.0186 z m -3.100586,-3.993554 -1.475879,-3.447852 -1.00459,3.447852 z"
           style="stroke:none"
           id="path70857" />
        <path
           d="m -9.3815793,61.453262 h -2.4804687 l -0.620117,-3.330029 -1.066602,-0.0186 -0.440283,3.348632 h -2.213818 l 0.409277,-8.464599 3.931543,-0.217041 2.2634277,0.620117 -0.2232422,3.100586 -1.4200685,1.240234 z m -4.9919437,-4.81831 2.102198,-0.198438 1.314648,-1.773535 -2.139404,-0.750342 -1.289844,0.173633 z"
           style="stroke:none"
           id="path70859" />
        <path
           d="m -58.44835,68.646622 4.136181,-0.06201 1.444873,2.54248 -0.334863,3.336231 -3.646289,0.16123 -0.440283,2.703711 -1.779736,0.06201 z m 1.965771,1.519287 -0.291455,2.660302 1.909961,-0.285254 0.198438,-1.475878 z"
           style="stroke:none"
           id="path70861" />
        <path
           d="m -44.309678,77.328262 h -2.480469 l -1.240234,-2.480469 h -1.240235 l -1.240234,2.480469 h -1.860352 l 2.133203,-8.669238 3.447852,0.0186 z m -3.100586,-3.993555 -1.475879,-3.447851 -1.00459,3.447851 z"
           style="stroke:none"
           id="path70863" />
        <path
           d="m -36.992296,77.328262 h -2.480468 l -0.620117,-3.330029 -1.066602,-0.0186 -0.440283,3.348633 h -2.213819 l 0.409278,-8.464599 3.931543,-0.217041 2.263427,0.620117 -0.223242,3.100586 -1.420068,1.240234 z m -4.991943,-4.81831 2.102197,-0.198438 1.314649,-1.773535 -2.139404,-0.750342 -1.289844,0.173633 z"
           style="stroke:none"
           id="path70865" />
        <path
           d="m -30.425255,77.328262 h -3.658692 l 0.266651,-6.461621 -2.418457,-0.16123 v -2.058789 h 7.317382 v 2.095996 l -2.418457,0.384472 z"
           style="stroke:none"
           id="path70867" />
        <path
           d="m -27.845566,68.646622 h 2.356445 l 0.08682,8.68164 h -2.443262 z"
           style="stroke:none"
           id="path70869" />
        <path
           d="m -18.512803,77.328262 h -5.872509 v -8.68164 h 5.581054 l 2.480469,2.189013 v 4.632276 z m -1.085205,-1.829346 1.506885,-1.506884 v -2.511475 l -4.520654,-1.00459 v 5.022949 z"
           style="stroke:none"
           id="path70871" />
        <path
           d="m -7.6731542,77.328262 h -2.4804688 l -1.240234,-2.480469 h -1.240235 l -1.240234,2.480469 h -1.860351 l 2.133203,-8.669238 3.447851,0.0186 z m -3.1005858,-3.993555 -1.475879,-3.447851 -1.00459,3.447851 z"
           style="stroke:none"
           id="path70873" />
      </g>
    </g>
  </g>
</svg>
