<?xml version="1.0" encoding="UTF-8" standalone="no"?>
<!-- Created with Inkscape (http://www.inkscape.org/) -->

<svg
   width="31.75mm"
   height="31.75mm"
   viewBox="0 0 31.75 31.75"
   version="1.1"
   id="svg65830"
   inkscape:version="1.2.2 (732a01da63, 2022-12-09)"
   sodipodi:docname="gold_icon.svg"
   xmlns:inkscape="http://www.inkscape.org/namespaces/inkscape"
   xmlns:sodipodi="http://sodipodi.sourceforge.net/DTD/sodipodi-0.dtd"
   xmlns="http://www.w3.org/2000/svg"
   xmlns:svg="http://www.w3.org/2000/svg">
  <sodipodi:namedview
     id="namedview65832"
     pagecolor="#505050"
     bordercolor="#eeeeee"
     borderopacity="1"
     inkscape:showpageshadow="0"
     inkscape:pageopacity="0"
     inkscape:pagecheckerboard="0"
     inkscape:deskcolor="#505050"
     inkscape:document-units="mm"
     showgrid="false"
     inkscape:zoom="0.914906"
     inkscape:cx="755.81535"
     inkscape:cy="560.71334"
     inkscape:window-width="3840"
     inkscape:window-height="2126"
     inkscape:window-x="2869"
     inkscape:window-y="-11"
     inkscape:window-maximized="1"
     inkscape:current-layer="layer1" />
  <defs
     id="defs65827" />
  <g
     inkscape:label="Capa 1"
     inkscape:groupmode="layer"
     id="layer1"
     transform="translate(94.727686,0.11442296)">
    <g
       id="g13068"
       style="clip-rule:evenodd;fill-rule:evenodd;image-rendering:optimizeQuality;shape-rendering:geometricPrecision;text-rendering:geometricPrecision"
       transform="matrix(0.26620466,0,0,0.24871927,-1215.1831,-671.42614)">
   <path
   style="fill:#ffef01"
   inkscape:connector-curvature="0"
   id="path13070"
   d="m 4233,2712 c 25,-21 63,-16 83,12 20,28 15,68 -11,89 -26,22 -63,17 -83,-11 -20,-28 -15,-68 11,-90 z"
   class="fil636" />

   <path
   style="fill:#ffff00"
   inkscape:connector-curvature="0"
   id="path13072"
   d="m 4269,2721 c 23,0 42,18 42,40 0,23 -19,40 -42,40 -23,0 -42,-17 -42,-40 0,-22 19,-40 42,-40 z"
   class="fil177" />

   <path
   style="fill:#ffaa00"
   inkscape:connector-curvature="0"
   id="path13074"
   d="m 4269,2715 c 23,0 42,19 42,42 0,23 -19,42 -42,42 -23,0 -42,-19 -42,-42 0,-23 19,-42 42,-42 z"
   class="fil637" />

   <path
   style="fill:#f7c600"
   inkscape:connector-curvature="0"
   id="path13076"
   d="m 4269,2719 c 23,0 42,18 42,40 0,22 -19,40 -42,40 -23,0 -42,-18 -42,-40 0,-22 19,-40 42,-40 z"
   class="fil307" />

   <path
   style="fill:#ffaa00"
   inkscape:connector-curvature="0"
   id="path13078"
   d="m 4269,2782 h 22 c 2,0 4,-1 4,-3 l 5,-19 c 0,-1 0,-3 -1,-4 -1,-1 -3,-1 -4,-1 l -8,2 c -2,1 -4,0 -5,-2 l -10,-17 c 0,-1 -2,-2 -3,-2 -2,0 -3,1 -4,2 l -10,17 c -1,2 -3,3 -5,2 l -8,-2 c -1,0 -2,0 -4,1 -1,1 -1,3 -1,4 l 5,19 c 1,2 2,3 4,3 z"
   class="fil637" />

   <path
   style="fill:#ffff00"
   inkscape:connector-curvature="0"
   id="path13080"
   d="m 4305,2802 c -24,20 -58,16 -79,-7 -1,-1 -3,-3 -4,-5 -7,-10 -11,-21 -12,-33 -2,15 2,32 12,45 20,28 57,33 83,11 17,-13 24,-35 23,-56 -2,14 -7,27 -17,38 -2,2 -4,5 -6,7 z"
   class="fil177" />

   <path
   style="fill:#ffaa00"
   inkscape:connector-curvature="0"
   id="path13082"
   d="m 4209,2764 c 1,13 5,26 13,38 20,28 57,33 83,11 15,-12 23,-30 23,-49 0,-2 0,-4 0,-5 -2,14 -7,27 -17,38 -2,2 -4,4 -6,6 -24,20 -58,17 -79,-6 -1,-2 -3,-3 -4,-5 -7,-10 -11,-22 -12,-33 0,1 0,3 -1,5 z"
   class="fil637" />

   <path
   style="fill:#ffff00"
   inkscape:connector-curvature="0"
   id="path13084"
   d="m 4233,2718 c 25,-21 63,-16 83,12 6,9 10,19 11,30 0,-1 1,-2 1,-3 -1,-12 -5,-23 -12,-33 -20,-28 -58,-33 -83,-12 -14,12 -22,28 -23,45 0,1 0,2 0,3 2,-16 10,-31 23,-42 z"
   class="fil177" />

   <path
   style="fill:#ffe10f"
   inkscape:connector-curvature="0"
   id="path13086"
   d="m 4305,2790 c -26,22 -63,17 -83,-11 -1,-2 -2,-3 -3,-4 -4,-7 -6,-14 -8,-21 0,2 -1,4 -1,6 1,10 5,21 12,30 1,2 3,4 4,5 21,23 55,27 79,7 2,-2 4,-5 6,-7 9,-10 15,-22 16,-35 0,-2 0,-4 -1,-6 -1,7 -4,14 -8,21 -3,6 -8,11 -13,15 z"
   class="fil638" />

   <path
   style="fill:#ffef01"
   inkscape:connector-curvature="0"
   id="path13088"
   d="m 4269,2778 h 22 c 2,0 4,-2 4,-3 l 5,-19 c 0,-2 0,-3 -1,-4 -1,-1 -3,-2 -4,-1 l -8,2 c -2,0 -4,0 -5,-2 l -10,-18 c 0,-1 -2,-2 -3,-2 -2,0 -3,1 -4,2 l -10,18 c -1,2 -3,2 -5,2 l -8,-2 c -1,-1 -2,0 -4,1 -1,1 -1,2 -1,4 l 5,19 c 1,1 2,3 4,3 z"
   class="fil636" />

   <path
   style="fill:#ffff00"
   inkscape:connector-curvature="0"
   id="path13090"
   d="m 4277,2742 -5,-9 c 0,-1 -2,-2 -3,-2 -2,0 -3,1 -4,2 l -10,18 c -1,2 -3,2 -5,2 l -8,-2 c -1,-1 -2,0 -4,1 -1,1 -1,2 -1,4 l 2,8 z"
   class="fil177" />

   <path
   style="fill:#ffe10f"
   inkscape:connector-curvature="0"
   id="path13092"
   d="m 4269,2778 h 22 c 2,0 4,-2 4,-3 l 3,-10 -55,11 c 0,1 2,2 3,2 z"
   class="fil638" />

  </g>
  </g>
</svg>
