<?xml version="1.0" encoding="UTF-8" standalone="no"?>
<!-- Created with Inkscape (http://www.inkscape.org/) -->

<svg
   width="87.3125mm"
   height="31.485416mm"
   viewBox="0 0 87.3125 31.485416"
   version="1.1"
   id="svg28886"
   inkscape:version="1.2.2 (732a01da63, 2022-12-09)"
   sodipodi:docname="found_base.svg"
   xmlns:inkscape="http://www.inkscape.org/namespaces/inkscape"
   xmlns:sodipodi="http://sodipodi.sourceforge.net/DTD/sodipodi-0.dtd"
   xmlns="http://www.w3.org/2000/svg"
   xmlns:svg="http://www.w3.org/2000/svg">
  <sodipodi:namedview
     id="namedview28888"
     pagecolor="#505050"
     bordercolor="#eeeeee"
     borderopacity="1"
     inkscape:showpageshadow="0"
     inkscape:pageopacity="0"
     inkscape:pagecheckerboard="0"
     inkscape:deskcolor="#505050"
     inkscape:document-units="mm"
     showgrid="false"
     inkscape:zoom="2.587745"
     inkscape:cx="170.61187"
     inkscape:cy="214.85889"
     inkscape:window-width="3840"
     inkscape:window-height="2126"
     inkscape:window-x="2869"
     inkscape:window-y="-11"
     inkscape:window-maximized="1"
     inkscape:current-layer="layer1" />
  <defs
     id="defs28883" />
  <g
     inkscape:label="Capa 1"
     inkscape:groupmode="layer"
     id="layer1"
     transform="translate(-67.104221,-71.882417)">
    <g
       id="g20260"
       style="clip-rule:evenodd;fill-rule:evenodd;image-rendering:optimizeQuality;shape-rendering:geometricPrecision;text-rendering:geometricPrecision"
       transform="matrix(0.26458333,0,0,0.26458333,-950.74785,-723.19049)">
   <circle
   style="fill:#53381d"
   id="circle20262"
   r="57"
   cy="3067"
   cx="3904"
   class="fil22" />

   <g
   id="g20264">
    <g
   id="g20266">
     <path
   style="fill:#53381d"
   inkscape:connector-curvature="0"
   id="path20268"
   d="m 3910,3025 h 244 c 11,0 20,9 20,20 v 44 c 0,11 -9,20 -20,20 h -244 c -11,0 -20,-9 -20,-20 v -44 c 0,-11 9,-20 20,-20 z"
   class="fil22" />

     <path
   style="fill:#996633"
   inkscape:connector-curvature="0"
   id="path20270"
   d="m 3910,3021 h 244 c 11,0 20,9 20,20 v 43 c 0,11 -9,21 -20,21 h -244 c -11,0 -20,-10 -20,-21 v -43 c 0,-11 9,-20 20,-20 z"
   class="fil2" />

     <path
   style="fill:#ca9560"
   inkscape:connector-curvature="0"
   id="path20272"
   d="m 3911,3022 h 242 c 11,0 19,9 19,20 v 41 c 0,11 -8,20 -19,20 h -242 c -11,0 -20,-9 -20,-20 v -41 c 0,-11 9,-20 20,-20 z"
   class="fil23" />

     <path
   style="fill:#af753b"
   inkscape:connector-curvature="0"
   id="path20274"
   d="m 3911,3023 h 242 c 10,0 19,8 19,19 v 41 c 0,11 -9,20 -19,20 h -242 c -11,0 -20,-9 -20,-20 v -41 c 0,-11 9,-19 20,-19 z"
   class="fil4" />

     <path
   style="fill:#412c17"
   inkscape:connector-curvature="0"
   id="path20276"
   d="m 3912,3025 h 239 c 10,0 18,8 18,18 v 39 c 0,10 -8,18 -18,18 h -239 c -10,0 -18,-8 -18,-18 v -39 c 0,-10 8,-18 18,-18 z"
   class="fil5" />

    </g>

    <g
   id="g20278">
     <path
   style="fill:#53381d"
   inkscape:connector-curvature="0"
   id="path20280"
   d="m 3905,3021 h 12 v 16 c 0,6 -5,11 -10,11 h -20 v -9 c 0,-10 8,-18 18,-18 z"
   class="fil22" />

     <path
   style="fill:#996633"
   inkscape:connector-curvature="0"
   id="path20282"
   d="m 3905,3019 h 10 l 2,2 v 14 c 0,6 -5,11 -10,11 h -20 v -9 c 0,-10 8,-18 18,-18 z"
   class="fil2" />

     <path
   style="fill:#af753b"
   inkscape:connector-curvature="0"
   id="path20284"
   d="m 3917,3021 v 0 14 c 0,6 -5,11 -10,11 h -18 v -8 c 0,-9 8,-17 18,-17 z"
   class="fil4" />

     <circle
   style="fill:#ca9560"
   id="circle20286"
   r="5"
   cy="3037"
   cx="3908"
   class="fil23" />

     <polygon
   style="fill:#53381d"
   id="polygon20288"
   points="3890,3053 3887,3050 3887,3046 3890,3046 "
   class="fil1" />

     <polygon
   style="fill:#996633"
   id="polygon20290"
   points="3887,3046 3887,3048 3889,3046 3888,3045 "
   class="fil2" />

     <polygon
   style="fill:#53381d"
   id="polygon20292"
   points="3889,3047 3889,3049 3891,3047 "
   class="fil1" />

     <path
   style="fill:#ca9560"
   inkscape:connector-curvature="0"
   id="path20294"
   d="m 3917,3021 v 0 0 h -10 c -10,0 -18,8 -18,18 v 7 0 -8 c 0,-9 8,-17 18,-17 z"
   class="fil23" />

     <circle
   style="fill:#53381d"
   id="circle20296"
   r="5"
   cy="3037"
   cx="3908"
   class="fil22" />

     <circle
   style="fill:#996633"
   id="circle20298"
   r="3"
   cy="3038"
   cx="3908"
   class="fil2" />

    </g>

    <g
   id="g20300">
     <path
   style="fill:#53381d"
   inkscape:connector-curvature="0"
   id="path20302"
   d="m 4159,3021 h -13 v 16 c 0,6 5,11 11,11 h 20 v -9 c 0,-10 -8,-18 -18,-18 z"
   class="fil22" />

     <path
   style="fill:#996633"
   inkscape:connector-curvature="0"
   id="path20304"
   d="m 4159,3019 h -11 l -2,2 v 14 c 0,6 5,11 11,11 h 20 v -9 c 0,-10 -8,-18 -18,-18 z"
   class="fil2" />

     <path
   style="fill:#af753b"
   inkscape:connector-curvature="0"
   id="path20306"
   d="m 4147,3021 h -1 v 14 c 0,6 5,11 11,11 h 18 v -8 c 0,-9 -8,-17 -18,-17 z"
   class="fil4" />

     <circle
   style="fill:#ca9560"
   id="circle20308"
   r="5"
   cy="3037"
   cx="4156"
   class="fil23" />

     <polygon
   style="fill:#53381d"
   id="polygon20310"
   points="4174,3053 4177,3050 4177,3046 4174,3046 "
   class="fil1" />

     <polygon
   style="fill:#996633"
   id="polygon20312"
   points="4177,3046 4177,3048 4175,3046 4176,3045 "
   class="fil2" />

     <polygon
   style="fill:#53381d"
   id="polygon20314"
   points="4174,3047 4174,3049 4172,3047 "
   class="fil1" />

     <path
   style="fill:#ca9560"
   inkscape:connector-curvature="0"
   id="path20316"
   d="m 4147,3021 h -1 v 0 h 10 c 10,0 18,8 18,18 v 7 h 1 v -8 c 0,-9 -8,-17 -18,-17 z"
   class="fil23" />

     <circle
   style="fill:#53381d"
   id="circle20318"
   r="5"
   cy="3037"
   cx="4156"
   class="fil22" />

     <circle
   style="fill:#996633"
   id="circle20320"
   r="3"
   cy="3038"
   cx="4156"
   class="fil2" />

    </g>

    <g
   id="g20322">
     <path
   style="fill:#53381d"
   inkscape:connector-curvature="0"
   id="path20324"
   d="m 3905,3110 h 7 l 3,-3 v -19 c -2,-3 -5,-5 -8,-5 h -14 -4 l -2,2 v 7 c 0,10 8,18 18,18 z"
   class="fil22" />

     <path
   style="fill:#996633"
   inkscape:connector-curvature="0"
   id="path20326"
   d="m 3905,3107 h 10 l 2,-2 v -15 c 0,-5 -5,-10 -10,-10 h -14 -4 l -2,2 v 7 c 0,10 8,18 18,18 z"
   class="fil2" />

     <path
   style="fill:#af753b"
   inkscape:connector-curvature="0"
   id="path20328"
   d="m 3917,3105 v 0 -15 c 0,-5 -5,-10 -10,-10 h -14 -4 v 0 7 c 0,10 8,18 18,18 z"
   class="fil4" />

     <path
   style="fill:#ca9560"
   inkscape:connector-curvature="0"
   id="path20330"
   d="m 3908,3094 c 3,0 5,-2 5,-5 0,-3 -2,-5 -5,-5 -3,0 -5,2 -5,5 0,3 2,5 5,5 z"
   class="fil23" />

     <path
   style="fill:#ca9560"
   inkscape:connector-curvature="0"
   id="path20332"
   d="m 3917,3105 v 0 -1 h -10 c -10,0 -18,-8 -18,-17 v -7 0 0 7 c 0,10 8,18 18,18 z"
   class="fil23" />

     <path
   style="fill:#53381d"
   inkscape:connector-curvature="0"
   id="path20334"
   d="m 3908,3094 c 3,0 5,-3 5,-6 0,-2 -2,-5 -5,-5 -3,0 -5,3 -5,5 0,3 2,6 5,6 z"
   class="fil22" />

     <path
   style="fill:#996633"
   inkscape:connector-curvature="0"
   id="path20336"
   d="m 3908,3093 c 2,0 3,-2 3,-4 0,-1 -1,-3 -3,-3 -2,0 -4,2 -4,3 0,2 2,4 4,4 z"
   class="fil2" />

     <path
   style="fill:#ca9560"
   inkscape:connector-curvature="0"
   id="path20338"
   d="m 3917,3105 v 0 -15 c 0,-5 -5,-10 -10,-10 h -14 -4 v 0 0 h 4 13 c 6,0 10,5 10,11 v 14 z"
   class="fil23" />

    </g>

    <g
   id="g20340">
     <path
   style="fill:#53381d"
   inkscape:connector-curvature="0"
   id="path20342"
   d="m 4159,3110 h -8 l -3,-3 v -19 c 2,-3 5,-5 9,-5 h 13 5 l 2,2 v 7 c 0,10 -8,18 -18,18 z"
   class="fil22" />

     <path
   style="fill:#996633"
   inkscape:connector-curvature="0"
   id="path20344"
   d="m 4159,3107 h -11 l -2,-2 v -15 c 0,-5 5,-10 11,-10 h 13 5 l 2,2 v 7 c 0,10 -8,18 -18,18 z"
   class="fil2" />

     <path
   style="fill:#af753b"
   inkscape:connector-curvature="0"
   id="path20346"
   d="m 4147,3105 h -1 v -15 c 0,-5 5,-10 11,-10 h 13 5 v 0 7 c 0,10 -8,18 -18,18 z"
   class="fil4" />

     <path
   style="fill:#ca9560"
   inkscape:connector-curvature="0"
   id="path20348"
   d="m 4156,3094 c -3,0 -6,-2 -6,-5 0,-3 3,-5 6,-5 3,0 5,2 5,5 0,3 -2,5 -5,5 z"
   class="fil23" />

     <path
   style="fill:#ca9560"
   inkscape:connector-curvature="0"
   id="path20350"
   d="m 4147,3105 h -1 v -1 h 10 c 10,0 18,-8 18,-17 v -7 h 1 v 0 7 c 0,10 -8,18 -18,18 z"
   class="fil23" />

     <path
   style="fill:#53381d"
   inkscape:connector-curvature="0"
   id="path20352"
   d="m 4156,3094 c -3,0 -5,-3 -5,-6 0,-2 2,-5 5,-5 3,0 5,3 5,5 0,3 -2,6 -5,6 z"
   class="fil22" />

     <path
   style="fill:#996633"
   inkscape:connector-curvature="0"
   id="path20354"
   d="m 4156,3093 c -2,0 -4,-2 -4,-4 0,-1 2,-3 4,-3 2,0 3,2 3,3 0,2 -1,4 -3,4 z"
   class="fil2" />

     <path
   style="fill:#ca9560"
   inkscape:connector-curvature="0"
   id="path20356"
   d="m 4147,3105 h -1 v -15 c 0,-5 5,-10 11,-10 h 13 5 v 0 0 h -4 -14 c -5,0 -10,5 -10,11 z"
   class="fil23" />

    </g>

    <path
   style="fill:#53381d"
   inkscape:connector-curvature="0"
   id="path20358"
   d="m 3979,3031 h 151 c 7,0 13,6 13,14 v 36 c 0,7 -6,13 -13,13 h -151 c -8,0 -14,-6 -14,-13 v -36 c 0,-8 6,-14 14,-14 z"
   class="fil22" />

   </g>

   <circle
   style="fill:#996633"
   id="circle20360"
   r="57"
   cy="3062"
   cx="3904"
   class="fil2" />

   <circle
   style="fill:#ca9560"
   id="circle20362"
   r="55"
   cy="3062"
   cx="3904"
   class="fil23" />

   <circle
   style="fill:#af753b"
   id="circle20364"
   r="54"
   cy="3062"
   cx="3904"
   class="fil4" />

   <circle
   style="fill:#412c17"
   id="circle20366"
   r="49"
   cy="3062"
   cx="3904"
   class="fil5" />

   <circle
   style="fill:#53381d"
   id="circle20368"
   r="45"
   cy="3062"
   cx="3904"
   class="fil22" />

  </g>
    <g
       id="g13094"
       style="clip-rule:evenodd;fill-rule:evenodd;image-rendering:optimizeQuality;shape-rendering:geometricPrecision;text-rendering:geometricPrecision"
       transform="matrix(0.16528926,0,0,0.16528926,-652.76798,-370.47406)">
   <polygon
   style="fill:#cb0b17"
   id="polygon13096"
   points="4413,2725 4385,2753 4385,2776 4446,2828 4506,2776 4506,2753 4478,2725 4446,2725 "
   class="fil639" />

   <polygon
   style="fill:#f5404f"
   id="polygon13098"
   points="4413,2715 4385,2744 4385,2767 4446,2819 4506,2767 4506,2744 4478,2715 4446,2715 "
   class="fil640" />

   <polygon
   style="fill:#f4202e"
   id="polygon13100"
   points="4446,2819 4506,2767 4506,2755 4446,2755 "
   class="fil641" />

   <polygon
   style="fill:#f4202e"
   id="polygon13102"
   points="4446,2755 4413,2715 4385,2744 4385,2755 "
   class="fil641" />

   <polygon
   style="fill:#f75b65"
   id="polygon13104"
   points="4446,2755 4478,2715 4446,2715 4413,2715 "
   class="fil642" />

   <polygon
   style="fill:#ffffff;fill-opacity:0.2"
   id="polygon13106"
   points="4416,2720 4390,2746 4390,2767 4446,2814 4501,2767 4501,2746 4475,2720 4446,2720 "
   class="fil62" />

   <polygon
   style="fill:#fcb0b3"
   id="polygon13108"
   points="4421,2721 4472,2721 4457,2741 4474,2722 4496,2741 4475,2720 4417,2720 4390,2746 4390,2753 4391,2746 4417,2722 4443,2752 "
   class="fil643" />

   <polygon
   style="fill:#f97c84"
   id="polygon13110"
   points="4446,2819 4506,2767 4446,2816 4385,2767 "
   class="fil644" />

  </g>
  </g>
</svg>
