<?xml version="1.0" encoding="UTF-8" standalone="no"?>
<!-- Created with Inkscape (http://www.inkscape.org/) -->

<svg
   width="39.687508mm"
   height="40.481251mm"
   viewBox="0 0 39.687508 40.481251"
   version="1.1"
   id="svg71620"
   inkscape:export-filename="bitmap.png"
   inkscape:export-xdpi="96"
   inkscape:export-ydpi="96"
   xmlns:inkscape="http://www.inkscape.org/namespaces/inkscape"
   xmlns:sodipodi="http://sodipodi.sourceforge.net/DTD/sodipodi-0.dtd"
   xmlns:xlink="http://www.w3.org/1999/xlink"
   xmlns="http://www.w3.org/2000/svg"
   xmlns:svg="http://www.w3.org/2000/svg">
  <sodipodi:namedview
     id="namedview71622"
     pagecolor="#505050"
     bordercolor="#eeeeee"
     borderopacity="1"
     inkscape:showpageshadow="0"
     inkscape:pageopacity="0"
     inkscape:pagecheckerboard="0"
     inkscape:deskcolor="#505050"
     inkscape:document-units="mm"
     showgrid="false" />
  <defs
     id="defs71617">
    <radialGradient
       id="id608"
       gradientUnits="userSpaceOnUse"
       gradientTransform="matrix(6.83719e-5,1.10306,-1.43798,0.00545266,2493,886)"
       xlink:href="#id382"
       cx="467.04401"
       cy="1409.1899"
       r="46.994801"
       fx="467.04401"
       fy="1409.1899">
  </radialGradient>
    <radialGradient
       id="id382"
       gradientUnits="userSpaceOnUse"
       gradientTransform="matrix(6.83719e-5,1.10306,-1.43798,0.00545266,5695,3101)"
       cx="467.04401"
       cy="3635.6899"
       r="46.994801"
       fx="467.04401"
       fy="3635.6899">
   <stop
   offset="0"
   style="stop-opacity:1; stop-color:#5AB70E"
   id="stop832" />

   <stop
   offset="0.85098"
   style="stop-opacity:1; stop-color:#469109"
   id="stop834" />

   <stop
   offset="1"
   style="stop-opacity:1; stop-color:#336B05"
   id="stop836" />

  </radialGradient>
    <radialGradient
       id="id410"
       gradientUnits="userSpaceOnUse"
       gradientTransform="scale(1.00001,0.999987)"
       xlink:href="#id384"
       cx="467.04401"
       cy="1070.9301"
       r="48.445"
       fx="467.04401"
       fy="1070.9301">
  </radialGradient>
    <radialGradient
       id="id384"
       gradientUnits="userSpaceOnUse"
       gradientTransform="scale(1.00001,0.999987)"
       cx="467.04401"
       cy="3633.8101"
       r="48.445"
       fx="467.04401"
       fy="3633.8101">
   <stop
   offset="0"
   style="stop-opacity:1; stop-color:#8DBD25"
   id="stop840" />

   <stop
   offset="1"
   style="stop-opacity:1; stop-color:#5AB70E"
   id="stop842" />

  </radialGradient>
    <clipPath
       id="id103">
      <path
   d="m 439,3073 h 56 c 11,0 20,9 20,21 v 55 c 0,12 -9,21 -20,21 h -56 c -11,0 -20,-9 -20,-21 v -55 c 0,-12 9,-21 20,-21 z"
   id="path313" />

     </clipPath>
    <linearGradient
       id="id716"
       gradientUnits="userSpaceOnUse"
       xlink:href="#id704"
       x1="297.15714"
       y1="4971.9517"
       x2="297.15714"
       y2="4961.6191"
       gradientTransform="scale(1.5776213,0.63386569)">
  </linearGradient>
    <linearGradient
       id="id704"
       gradientUnits="userSpaceOnUse"
       x1="468.85901"
       y1="3663.72"
       x2="468.85901"
       y2="3634.4299">
   <stop
   offset="0"
   style="stop-opacity:1; stop-color:#5AB70E"
   id="stop1372" />

   <stop
   offset="1"
   style="stop-opacity:1; stop-color:#8DBD25"
   id="stop1374" />

  </linearGradient>
    <linearGradient
       id="id805"
       gradientUnits="userSpaceOnUse"
       xlink:href="#id743"
       x1="468.80099"
       y1="3151.8"
       x2="468.80099"
       y2="3123.45">
  </linearGradient>
    <linearGradient
       id="id743"
       gradientUnits="userSpaceOnUse"
       x1="468.80099"
       y1="745.04797"
       x2="468.80099"
       y2="716.69202">
   <stop
   offset="0"
   style="stop-opacity:1; stop-color:#5DB710"
   id="stop1435" />

   <stop
   offset="1"
   style="stop-opacity:1; stop-color:#8DBD26"
   id="stop1437" />

  </linearGradient>
    <linearGradient
       id="id959"
       gradientUnits="userSpaceOnUse"
       xlink:href="#id870"
       x1="298.52512"
       y1="4949.2632"
       x2="298.52512"
       y2="4939.4365"
       gradientTransform="scale(1.5700689,0.63691473)">
  </linearGradient>
    <linearGradient
       id="id870"
       gradientUnits="userSpaceOnUse"
       x1="468.74301"
       y1="745.56"
       x2="468.74301"
       y2="718.13501">
   <stop
   offset="0"
   style="stop-opacity:1; stop-color:#5FB713"
   id="stop1626" />

   <stop
   offset="1"
   style="stop-opacity:1; stop-color:#8DBC28"
   id="stop1628" />

  </linearGradient>
    <linearGradient
       id="id1057"
       gradientUnits="userSpaceOnUse"
       xlink:href="#id1037"
       x1="297.12003"
       y1="4973.1055"
       x2="297.12003"
       y2="4963.6929"
       gradientTransform="scale(1.5772777,0.63400377)">
  </linearGradient>
    <linearGradient
       id="id1037"
       gradientUnits="userSpaceOnUse"
       x1="468.686"
       y1="2292.8201"
       x2="468.686"
       y2="2266.3201">
   <stop
   offset="0"
   style="stop-opacity:1; stop-color:#62B715"
   id="stop1861" />

   <stop
   offset="1"
   style="stop-opacity:1; stop-color:#8EBC29"
   id="stop1863" />

  </linearGradient>
    <linearGradient
       id="id1214"
       gradientUnits="userSpaceOnUse"
       xlink:href="#id1203"
       x1="468.62799"
       y1="3153.3401"
       x2="468.62799"
       y2="3127.78">
  </linearGradient>
    <linearGradient
       id="id1203"
       gradientUnits="userSpaceOnUse"
       x1="468.62799"
       y1="746.58301"
       x2="468.62799"
       y2="721.021">
   <stop
   offset="0"
   style="stop-opacity:1; stop-color:#64B718"
   id="stop2095" />

   <stop
   offset="1"
   style="stop-opacity:1; stop-color:#8EBC2A"
   id="stop2097" />

  </linearGradient>
    <linearGradient
       id="id1524"
       gradientUnits="userSpaceOnUse"
       xlink:href="#id1521"
       x1="468.57101"
       y1="3153.8501"
       x2="468.57101"
       y2="3129.22">
  </linearGradient>
    <linearGradient
       id="id1521"
       gradientUnits="userSpaceOnUse"
       x1="468.57101"
       y1="747.09399"
       x2="468.57101"
       y2="722.46399">
   <stop
   offset="0"
   style="stop-opacity:1; stop-color:#67B71A"
   id="stop2521" />

   <stop
   offset="1"
   style="stop-opacity:1; stop-color:#8EBC2B"
   id="stop2523" />

  </linearGradient>
    <linearGradient
       id="id1582"
       gradientUnits="userSpaceOnUse"
       xlink:href="#id1571"
       x1="468.51199"
       y1="3154.3601"
       x2="468.51199"
       y2="3130.6599">
  </linearGradient>
    <linearGradient
       id="id1571"
       gradientUnits="userSpaceOnUse"
       x1="1420.71"
       y1="747.60602"
       x2="1420.71"
       y2="723.90698">
   <stop
   offset="0"
   style="stop-opacity:1; stop-color:#6AB71C"
   id="stop2603" />

   <stop
   offset="1"
   style="stop-opacity:1; stop-color:#8EBB2D"
   id="stop2605" />

  </linearGradient>
    <linearGradient
       id="id1853"
       gradientUnits="userSpaceOnUse"
       xlink:href="#id1745"
       x1="468.45499"
       y1="3154.8701"
       x2="468.45499"
       y2="3132.1101">
  </linearGradient>
    <linearGradient
       id="id1745"
       gradientUnits="userSpaceOnUse"
       x1="468.45499"
       y1="3667.3"
       x2="468.45499"
       y2="3644.53">
   <stop
   offset="0"
   style="stop-opacity:1; stop-color:#6CB71F"
   id="stop2837" />

   <stop
   offset="1"
   style="stop-opacity:1; stop-color:#8EBB2E"
   id="stop2839" />

  </linearGradient>
    <linearGradient
       id="id2053"
       gradientUnits="userSpaceOnUse"
       xlink:href="#id1931"
       x1="468.397"
       y1="3155.3899"
       x2="468.397"
       y2="3133.55">
  </linearGradient>
    <linearGradient
       id="id1931"
       gradientUnits="userSpaceOnUse"
       x1="468.397"
       y1="3667.8101"
       x2="468.397"
       y2="3645.98">
   <stop
   offset="0"
   style="stop-opacity:1; stop-color:#6FB721"
   id="stop3091" />

   <stop
   offset="1"
   style="stop-opacity:1; stop-color:#8FBB2F"
   id="stop3093" />

  </linearGradient>
    <linearGradient
       id="id2197"
       gradientUnits="userSpaceOnUse"
       xlink:href="#id2196"
       x1="468.33899"
       y1="3155.8999"
       x2="468.33899"
       y2="3134.99">
  </linearGradient>
    <linearGradient
       id="id2196"
       gradientUnits="userSpaceOnUse"
       x1="468.33899"
       y1="2295.8899"
       x2="468.33899"
       y2="2274.98">
   <stop
   offset="0"
   style="stop-opacity:1; stop-color:#72B723"
   id="stop3436" />

   <stop
   offset="1"
   style="stop-opacity:1; stop-color:#8FBA31"
   id="stop3438" />

  </linearGradient>
    <linearGradient
       id="id2300"
       gradientUnits="userSpaceOnUse"
       xlink:href="#id2294"
       x1="468.28201"
       y1="3156.4099"
       x2="468.28201"
       y2="3136.4399">
  </linearGradient>
    <linearGradient
       id="id2294"
       gradientUnits="userSpaceOnUse"
       x1="468.28201"
       y1="749.65198"
       x2="468.28201"
       y2="729.67999">
   <stop
   offset="0"
   style="stop-opacity:1; stop-color:#74B726"
   id="stop3590" />

   <stop
   offset="1"
   style="stop-opacity:1; stop-color:#8FBA32"
   id="stop3592" />

  </linearGradient>
    <linearGradient
       id="id2491"
       gradientUnits="userSpaceOnUse"
       xlink:href="#id2481"
       x1="468.22501"
       y1="3156.9199"
       x2="468.22501"
       y2="3137.8799">
  </linearGradient>
    <linearGradient
       id="id2481"
       gradientUnits="userSpaceOnUse"
       x1="468.22501"
       y1="2296.9099"
       x2="468.22501"
       y2="2277.8701">
   <stop
   offset="0"
   style="stop-opacity:1; stop-color:#77B728"
   id="stop3845" />

   <stop
   offset="1"
   style="stop-opacity:1; stop-color:#8FBA33"
   id="stop3847" />

  </linearGradient>
    <linearGradient
       id="id2768"
       gradientUnits="userSpaceOnUse"
       xlink:href="#id2659"
       x1="468.16699"
       y1="3157.4299"
       x2="468.16699"
       y2="3139.3201">
  </linearGradient>
    <linearGradient
       id="id2659"
       gradientUnits="userSpaceOnUse"
       x1="1420.36"
       y1="750.67499"
       x2="1420.36"
       y2="732.56598">
   <stop
   offset="0"
   style="stop-opacity:1; stop-color:#79B72B"
   id="stop4087" />

   <stop
   offset="1"
   style="stop-opacity:1; stop-color:#8FBA34"
   id="stop4089" />

  </linearGradient>
    <linearGradient
       id="id2947"
       gradientUnits="userSpaceOnUse"
       xlink:href="#id2934"
       x1="468.10901"
       y1="3157.9399"
       x2="468.10901"
       y2="3140.76">
  </linearGradient>
    <linearGradient
       id="id2934"
       gradientUnits="userSpaceOnUse"
       x1="865.40399"
       y1="560.94897"
       x2="865.40399"
       y2="543.771">
   <stop
   offset="0"
   style="stop-opacity:1; stop-color:#7CB72D"
   id="stop4442" />

   <stop
   offset="1"
   style="stop-opacity:1; stop-color:#8FB936"
   id="stop4444" />

  </linearGradient>
    <linearGradient
       id="id3159"
       gradientUnits="userSpaceOnUse"
       xlink:href="#id3028"
       x1="468.052"
       y1="3158.45"
       x2="468.052"
       y2="3142.21">
  </linearGradient>
    <linearGradient
       id="id3028"
       gradientUnits="userSpaceOnUse"
       x1="1420.25"
       y1="751.698"
       x2="1420.25"
       y2="735.45203">
   <stop
   offset="0"
   style="stop-opacity:1; stop-color:#7FB72F"
   id="stop4588" />

   <stop
   offset="1"
   style="stop-opacity:1; stop-color:#90B937"
   id="stop4590" />

  </linearGradient>
    <linearGradient
       id="id3228"
       gradientUnits="userSpaceOnUse"
       xlink:href="#id3212"
       x1="467.99399"
       y1="3158.97"
       x2="467.99399"
       y2="3143.6499">
  </linearGradient>
    <linearGradient
       id="id3212"
       gradientUnits="userSpaceOnUse"
       x1="467.99399"
       y1="4195.8198"
       x2="467.99399"
       y2="4180.5098">
   <stop
   offset="0"
   style="stop-opacity:1; stop-color:#81B732"
   id="stop4844" />

   <stop
   offset="1"
   style="stop-opacity:1; stop-color:#90B938"
   id="stop4846" />

  </linearGradient>
    <linearGradient
       id="id3511"
       gradientUnits="userSpaceOnUse"
       xlink:href="#id3394"
       x1="467.935"
       y1="3159.48"
       x2="467.935"
       y2="3145.0901">
  </linearGradient>
    <linearGradient
       id="id3394"
       gradientUnits="userSpaceOnUse"
       x1="467.935"
       y1="3671.9099"
       x2="467.935"
       y2="3657.52">
   <stop
   offset="0"
   style="stop-opacity:1; stop-color:#84B734"
   id="stop5082" />

   <stop
   offset="1"
   style="stop-opacity:1; stop-color:#90B83A"
   id="stop5084" />

  </linearGradient>
    <linearGradient
       id="id3693"
       gradientUnits="userSpaceOnUse"
       xlink:href="#id3688"
       x1="467.87799"
       y1="3159.99"
       x2="467.87799"
       y2="3146.54">
  </linearGradient>
    <linearGradient
       id="id3688"
       gradientUnits="userSpaceOnUse"
       x1="467.87799"
       y1="3672.4199"
       x2="467.87799"
       y2="3658.97">
   <stop
   offset="0"
   style="stop-opacity:1; stop-color:#87B736"
   id="stop5472" />

   <stop
   offset="1"
   style="stop-opacity:1; stop-color:#90B83B"
   id="stop5474" />

  </linearGradient>
    <linearGradient
       id="id3794"
       gradientUnits="userSpaceOnUse"
       xlink:href="#id3753"
       x1="467.82001"
       y1="3160.5"
       x2="467.82001"
       y2="3147.98">
  </linearGradient>
    <linearGradient
       id="id3753"
       gradientUnits="userSpaceOnUse"
       x1="467.82001"
       y1="3672.9299"
       x2="467.82001"
       y2="3660.4099">
   <stop
   offset="0"
   style="stop-opacity:1; stop-color:#89B739"
   id="stop5573" />

   <stop
   offset="1"
   style="stop-opacity:1; stop-color:#90B83C"
   id="stop5575" />

  </linearGradient>
    <linearGradient
       id="id4064"
       gradientUnits="userSpaceOnUse"
       xlink:href="#id3940"
       x1="467.763"
       y1="3161.01"
       x2="467.763"
       y2="3149.4199">
  </linearGradient>
    <linearGradient
       id="id3940"
       gradientUnits="userSpaceOnUse"
       x1="865.05798"
       y1="564.01898"
       x2="865.05798"
       y2="552.42999">
   <stop
   offset="0"
   style="stop-opacity:1; stop-color:#8CB73B"
   id="stop5832" />

   <stop
   offset="1"
   style="stop-opacity:1; stop-color:#91B83D"
   id="stop5834" />

  </linearGradient>
    <linearGradient
       id="id4117"
       gradientUnits="userSpaceOnUse"
       xlink:href="#id4114"
       x1="467.70499"
       y1="3161.52"
       x2="467.70499"
       y2="3150.8701">
  </linearGradient>
    <linearGradient
       id="id4114"
       gradientUnits="objectBoundingBox"
       x1="0.51609403"
       y1="0.145578"
       x2="0.51609403"
       y2="0">
   <stop
   offset="0"
   style="stop-opacity:1; stop-color:#8EB73E"
   id="stop6062" />

   <stop
   offset="1"
   style="stop-opacity:1; stop-color:#91B73F"
   id="stop6064" />

  </linearGradient>
    <linearGradient
       id="id200"
       gradientUnits="userSpaceOnUse"
       xlink:href="#id189"
       x1="468.315"
       y1="3094.6299"
       x2="468.32101"
       y2="3171.0601">
  </linearGradient>
    <linearGradient
       id="id189"
       gradientUnits="userSpaceOnUse"
       x1="467.02499"
       y1="2229.8799"
       x2="467.02899"
       y2="2302.0801">
   <stop
   offset="0"
   style="stop-opacity:1; stop-color:#317100"
   id="stop571" />

   <stop
   offset="1"
   style="stop-opacity:1; stop-color:#4EB300"
   id="stop573" />

  </linearGradient>
  </defs>
  <g
     inkscape:label="Capa 1"
     inkscape:groupmode="layer"
     id="layer1"
     transform="translate(-113.85884,20.529813)">
    <g
       id="_930771136"
       style="clip-rule:evenodd;fill-rule:evenodd;image-rendering:optimizeQuality;shape-rendering:geometricPrecision;text-rendering:geometricPrecision"
       transform="matrix(0.26458333,0,0,0.26458333,10.142174,-827.50897)">
   <g
   id="g23287">
    <rect
   class="fil0"
   x="394"
   y="3057"
   width="146"
   height="146"
   rx="31"
   ry="31"
   id="rect23277"
   style="fill:#53381d" />

    <rect
   class="fil1"
   x="394"
   y="3050"
   width="146"
   height="146"
   rx="31"
   ry="31"
   id="rect23279"
   style="fill:#996633" />

    <rect
   class="fil2"
   x="396"
   y="3053"
   width="141"
   height="141"
   rx="30"
   ry="30"
   id="rect23281"
   style="fill:#ca9560" />

    <rect
   class="fil3"
   x="397"
   y="3053"
   width="140"
   height="140"
   rx="30"
   ry="30"
   id="rect23283"
   style="fill:#af753b" />

    <rect
   class="fil0"
   x="401"
   y="3058"
   width="131"
   height="131"
   rx="28"
   ry="28"
   id="rect23285"
   style="fill:#53381d" />

   </g>

   <g
   id="g23361">
    <rect
   class="fil2146"
   x="410"
   y="3066"
   width="115"
   height="115"
   rx="24"
   ry="24"
   id="rect23289"
   style="fill:#254c05" />

    <rect
   class="fil2243"
   x="411"
   y="3067"
   width="112"
   height="112"
   rx="24"
   ry="24"
   id="rect23291"
   style="fill:url(#id608)" />

    <polygon
   class="fil2148"
   points="479,3174 494,3171 486,3167 474,3169 464,3171 "
   id="polygon23293"
   style="fill:#7cd637" />

    <path
   class="fil7"
   d="m 499,3068 c 12,0 22,10 23,22 l -55,33 -52,-44 c -2,3 -3,8 -3,12 l 55,32 -47,-50 c 4,-3 10,-5 15,-5 l 32,55 z"
   id="path23295"
   style="fill:#ffffff;fill-opacity:0.2" />

    <path
   class="fil2149"
   d="m 439,3072 h 56 c 6,0 11,3 15,6 4,4 6,10 6,16 v 55 c 0,6 -2,11 -6,15 -4,4 -9,7 -15,7 h -56 c -6,0 -11,-3 -15,-7 -4,-4 -6,-9 -6,-15 v -55 c 0,-6 2,-12 6,-16 4,-3 9,-6 15,-6 z m 56,2 h -56 c -5,0 -10,2 -14,6 -3,3 -6,8 -6,14 v 55 c 0,6 3,11 6,14 4,4 9,6 14,6 h 56 c 5,0 10,-2 14,-6 3,-3 6,-8 6,-14 v -55 c 0,-6 -3,-11 -6,-14 -4,-4 -9,-6 -14,-6 z"
   id="path23297"
   style="fill:#7cd637;fill-rule:nonzero" />

    <path
   class="fil2200"
   d="m 439,3073 h 56 c 11,0 20,9 20,21 v 55 c 0,12 -9,21 -20,21 h -56 c -11,0 -20,-9 -20,-21 v -55 c 0,-12 9,-21 20,-21 z"
   id="path23299"
   style="fill:url(#id410)" />

    <g
   clip-path="url(#id103)"
   id="g23349">
     <g
   id="g23347">
      <path
   id="path23301"
   class="fil2177"
   d="m 467,3145 c 31,0 56,10 56,22 0,13 -25,23 -56,23 -31,0 -56,-10 -56,-23 0,-12 25,-22 56,-22 z"
   style="fill:url(#id716);fill-opacity:0" />

      <g
   id="g23343">
       <path
   class="fil2469"
   d="m 467,3145 c 30,0 55,10 55,22 0,13 -25,22 -55,22 -30,0 -55,-9 -55,-22 0,-12 25,-22 55,-22 z"
   id="path23303"
   style="fill:url(#id805);fill-opacity:0.047059" />

       <path
   class="fil2407"
   d="m 467,3146 c 29,0 53,10 53,21 0,12 -24,22 -53,22 -29,0 -53,-10 -53,-22 0,-11 24,-21 53,-21 z"
   id="path23305"
   style="fill:url(#id959);fill-opacity:0.094118" />

       <path
   class="fil2451"
   d="m 467,3147 c 28,0 51,9 51,20 0,12 -23,21 -51,21 -28,0 -51,-9 -51,-21 0,-11 23,-20 51,-20 z"
   id="path23307"
   style="fill:url(#id1057);fill-opacity:0.141176" />

       <path
   class="fil2470"
   d="m 467,3148 c 27,0 49,8 49,19 0,11 -22,20 -49,20 -27,0 -49,-9 -49,-20 0,-11 22,-19 49,-19 z"
   id="path23309"
   style="fill:url(#id1214);fill-opacity:0.192157" />

       <path
   class="fil2471"
   d="m 467,3148 c 26,0 47,9 47,19 0,11 -21,19 -47,19 -26,0 -47,-8 -47,-19 0,-10 21,-19 47,-19 z"
   id="path23311"
   style="fill:url(#id1524);fill-opacity:0.239216" />

       <path
   class="fil2472"
   d="m 467,3149 c 25,0 46,8 46,18 0,11 -21,19 -46,19 -25,0 -46,-8 -46,-19 0,-10 21,-18 46,-18 z"
   id="path23313"
   style="fill:url(#id1582);fill-opacity:0.286275" />

       <path
   class="fil2473"
   d="m 467,3150 c 24,0 44,8 44,17 0,10 -20,18 -44,18 -24,0 -44,-8 -44,-18 0,-9 20,-17 44,-17 z"
   id="path23315"
   style="fill:url(#id1853);fill-opacity:0.333333" />

       <path
   class="fil2474"
   d="m 467,3150 c 23,0 42,8 42,17 0,10 -19,17 -42,17 -23,0 -42,-7 -42,-17 0,-9 19,-17 42,-17 z"
   id="path23317"
   style="fill:url(#id2053);fill-opacity:0.380392" />

       <path
   class="fil2475"
   d="m 467,3151 c 22,0 40,7 40,16 0,9 -18,17 -40,17 -22,0 -40,-8 -40,-17 0,-9 18,-16 40,-16 z"
   id="path23319"
   style="fill:url(#id2197);fill-opacity:0.427451" />

       <path
   class="fil2476"
   d="m 467,3152 c 21,0 38,7 38,15 0,9 -17,16 -38,16 -21,0 -38,-7 -38,-16 0,-8 17,-15 38,-15 z"
   id="path23321"
   style="fill:url(#id2300);fill-opacity:0.47451" />

       <path
   class="fil2477"
   d="m 467,3153 c 20,0 37,6 37,14 0,9 -17,15 -37,15 -20,0 -37,-6 -37,-15 0,-8 17,-14 37,-14 z"
   id="path23323"
   style="fill:url(#id2491);fill-opacity:0.52549" />

       <path
   class="fil2478"
   d="m 467,3153 c 19,0 35,7 35,14 0,8 -16,14 -35,14 -19,0 -35,-6 -35,-14 0,-7 16,-14 35,-14 z"
   id="path23325"
   style="fill:url(#id2768);fill-opacity:0.572549" />

       <path
   class="fil2479"
   d="m 467,3154 c 18,0 33,6 33,13 0,8 -15,14 -33,14 -18,0 -33,-6 -33,-14 0,-7 15,-13 33,-13 z"
   id="path23327"
   style="fill:url(#id2947);fill-opacity:0.619608" />

       <path
   class="fil2480"
   d="m 467,3155 c 17,0 31,5 31,12 0,7 -14,13 -31,13 -17,0 -31,-6 -31,-13 0,-7 14,-12 31,-12 z"
   id="path23329"
   style="fill:url(#id3159);fill-opacity:0.666667" />

       <path
   class="fil2481"
   d="m 467,3156 c 16,0 30,5 30,11 0,7 -14,12 -30,12 -16,0 -29,-5 -29,-12 0,-6 13,-11 29,-11 z"
   id="path23331"
   style="fill:url(#id3228);fill-opacity:0.713725" />

       <path
   class="fil2482"
   d="m 467,3156 c 15,0 28,5 28,11 0,7 -13,12 -28,12 -15,0 -28,-5 -28,-12 0,-6 13,-11 28,-11 z"
   id="path23333"
   style="fill:url(#id3511);fill-opacity:0.760784" />

       <path
   class="fil2483"
   d="m 467,3157 c 14,0 26,5 26,10 0,6 -12,11 -26,11 -14,0 -26,-5 -26,-11 0,-5 12,-10 26,-10 z"
   id="path23335"
   style="fill:url(#id3693);fill-opacity:0.807843" />

       <path
   class="fil2484"
   d="m 467,3158 c 13,0 24,4 24,9 0,6 -11,10 -24,10 -13,0 -24,-4 -24,-10 0,-5 11,-9 24,-9 z"
   id="path23337"
   style="fill:url(#id3794);fill-opacity:0.858824" />

       <path
   class="fil2485"
   d="m 467,3158 c 12,0 22,4 22,9 0,5 -10,9 -22,9 -12,0 -22,-4 -22,-9 0,-5 10,-9 22,-9 z"
   id="path23339"
   style="fill:url(#id4064);fill-opacity:0.905882" />

       <path
   class="fil2486"
   d="m 467,3159 c 11,0 21,4 21,8 0,5 -10,9 -21,9 -11,0 -20,-4 -20,-9 0,-4 9,-8 20,-8 z"
   id="path23341"
   style="fill:url(#id4117);fill-opacity:0.952941" />

      </g>

      <ellipse
   class="fil2172"
   cx="467"
   cy="3167"
   rx="19"
   ry="8"
   id="ellipse23345"
   style="fill:#91b740" />

     </g>

    </g>

    <path
   class="fil32"
   d="m 439,3073 h 56 c 11,0 20,9 20,21 v 55 c 0,12 -9,21 -20,21 h -56 c -11,0 -20,-9 -20,-21 v -55 c 0,-12 9,-21 20,-21 z"
   id="path23351"
   style="fill:none" />

    <polygon
   class="fil2148"
   points="416,3098 418,3094 420,3098 424,3098 432,3094 426,3099 419,3101 418,3105 416,3101 412,3101 "
   id="polygon23353"
   style="fill:#7cd637" />

    <path
   class="fil33"
   d="m 440,3075 h 21 c -7,5 -13,11 -18,17 -5,-4 -11,-8 -17,-11 4,-4 9,-6 14,-6 z m 25,0 h 29 c 11,0 19,9 19,20 v 13 c -14,0 -30,2 -47,6 -6,-7 -12,-13 -18,-18 -2,-1 -3,-2 -4,-3 6,-6 13,-13 21,-18 z m -1,39 c -3,1 -6,2 -9,2 -12,4 -23,8 -33,12 5,-12 12,-23 20,-33 h 1 c 1,0 2,1 3,2 7,5 12,11 18,17 z m -43,12 v -31 c 0,-5 1,-9 4,-13 6,4 11,7 17,11 l -1,1 c -8,10 -15,21 -20,32 z"
   id="path23355"
   style="fill:#ffffff;fill-opacity:0.301961" />

    <polygon
   class="fil2173"
   points="479,3173 494,3170 486,3166 474,3168 465,3171 "
   id="polygon23357"
   style="fill:#336b05" />

    <polygon
   class="fil2173"
   points="416,3097 418,3093 420,3097 424,3096 432,3094 426,3098 419,3100 418,3104 416,3100 412,3101 "
   id="polygon23359"
   style="fill:#336b05" />

   </g>

   <g
   id="g23381">
    <polygon
   class="fil0"
   points="394,3153 392,3151 392,3139 394,3139 "
   id="polygon23363"
   style="fill:#53381d" />

    <path
   class="fil0"
   d="m 400,3099 c 12,0 22,10 22,23 0,12 -10,22 -22,22 -3,0 -6,0 -8,-1 v -42 c 2,-1 5,-2 8,-2 z"
   id="path23365"
   style="fill:#53381d" />

    <path
   class="fil1"
   d="m 400,3096 c 12,0 22,10 22,22 0,12 -10,23 -22,23 -3,0 -6,-1 -8,-2 v -40 l 4,-3 h -1 c 2,0 3,0 5,0 z"
   id="path23367"
   style="fill:#996633" />

    <path
   class="fil2"
   d="m 400,3096 c 12,0 22,10 22,22 0,12 -10,23 -22,23 -3,0 -6,-1 -8,-2 v 0 c 2,0 5,1 7,1 13,0 22,-10 22,-22 0,-12 -9,-22 -22,-22 -1,0 -2,0 -4,1 v 0 l -3,3 v -1 l 4,-3 h -1 c 2,0 3,0 5,0 z"
   id="path23369"
   style="fill:#ca9560" />

    <path
   class="fil2"
   d="m 396,3140 c 0,0 0,0 -1,0 v -44 h 1 -1 1 z"
   id="path23371"
   style="fill:#ca9560" />

    <polygon
   class="fil3"
   points="396,3140 392,3143 392,3139 392,3137 392,3099 396,3096 "
   id="polygon23373"
   style="fill:#af753b" />

    <polygon
   class="fil0"
   points="393,3146 397,3143 394,3142 "
   id="polygon23375"
   style="fill:#53381d" />

    <polygon
   class="fil2"
   points="396,3140 396,3139 392,3142 392,3143 "
   id="polygon23377"
   style="fill:#ca9560" />

    <polygon
   class="fil2"
   points="396,3097 396,3096 392,3099 392,3100 "
   id="polygon23379"
   style="fill:#ca9560" />

   </g>

   <g
   id="g23401">
    <polygon
   class="fil0"
   points="540,3153 542,3151 542,3139 540,3139 "
   id="polygon23383"
   style="fill:#53381d" />

    <path
   class="fil0"
   d="m 535,3099 c -13,0 -23,10 -23,23 0,12 10,22 23,22 2,0 5,0 7,-1 v -42 c -2,-1 -5,-2 -7,-2 z"
   id="path23385"
   style="fill:#53381d" />

    <path
   class="fil1"
   d="m 535,3096 c -13,0 -23,10 -23,22 0,12 10,23 23,23 2,0 5,-1 7,-2 v -40 l -3,-3 v 0 c -2,0 -3,0 -4,0 z"
   id="path23387"
   style="fill:#996633" />

    <path
   class="fil2"
   d="m 535,3096 c -13,0 -23,10 -23,22 0,12 10,23 23,23 2,0 5,-1 7,-2 v 0 c -2,0 -5,1 -7,1 -12,0 -22,-10 -22,-22 0,-12 10,-22 22,-22 1,0 2,0 4,1 v 0 l 3,3 v -1 l -3,-3 v 0 c -2,0 -3,0 -4,0 z"
   id="path23389"
   style="fill:#ca9560" />

    <path
   class="fil2"
   d="m 538,3140 c 0,0 0,0 1,0 v -44 0 0 h -1 z"
   id="path23391"
   style="fill:#ca9560" />

    <polygon
   class="fil3"
   points="539,3140 542,3143 542,3139 542,3137 542,3099 539,3096 "
   id="polygon23393"
   style="fill:#af753b" />

    <polygon
   class="fil0"
   points="541,3146 537,3143 540,3142 "
   id="polygon23395"
   style="fill:#53381d" />

    <polygon
   class="fil2"
   points="539,3140 539,3139 542,3142 542,3143 "
   id="polygon23397"
   style="fill:#ca9560" />

    <polygon
   class="fil2"
   points="539,3097 539,3096 542,3099 542,3100 "
   id="polygon23399"
   style="fill:#ca9560" />

   </g>

   <g
   id="g23409">
    <path
   class="fil2148"
   d="m 475,3128 c -4,3 0,9 -10,9 -8,0 -8,-10 -6,-15 2,-5 7,-5 9,-6 2,-1 2,-2 2,-4 0,-1 -6,-4 -12,3 -5,5 -17,0 -13,-10 6,-15 45,-15 45,8 0,11 -12,13 -15,15 z m -10,14 c 5,0 9,3 9,8 0,4 -4,8 -9,8 -4,0 -8,-4 -8,-8 0,-5 4,-8 8,-8 z"
   id="path23403"
   style="fill:#7cd637" />

    <path
   class="fil2146"
   d="m 475,3125 c -4,2 0,8 -10,8 -8,0 -8,-10 -6,-15 2,-4 7,-5 9,-6 2,-1 2,-2 2,-3 0,-1 -6,-5 -12,2 -5,5 -17,0 -13,-10 6,-15 45,-15 45,8 0,11 -12,13 -15,16 z m -18,24 h 1 c 1,3 4,5 7,5 4,0 7,-2 8,-5 h 1 v -3 c 0,-5 -4,-8 -9,-8 -4,0 -8,3 -8,8 z"
   id="path23405"
   style="fill:#254c05" />

    <path
   class="fil2487"
   d="m 475,3128 c -4,2 0,8 -10,8 -8,0 -8,-10 -6,-15 2,-4 7,-5 9,-6 2,-1 2,-2 2,-3 0,-1 -6,-4 -12,2 -5,5 -17,0 -13,-9 6,-16 45,-16 45,7 0,11 -12,13 -15,16 z m -10,13 c 5,0 9,3 9,8 0,5 -4,8 -9,8 -4,0 -8,-3 -8,-8 0,-5 4,-8 8,-8 z"
   id="path23407"
   style="fill:url(#id200)" />

   </g>

  </g>
  </g>
</svg>
